<?xml version="1.0" encoding="utf-8"?>
<!-- Generator: Adobe Illustrator 25.2.3, SVG Export Plug-In . SVG Version: 6.00 Build 0)  -->
<svg version="1.1" id="Layer_1" xmlns="http://www.w3.org/2000/svg" xmlns:xlink="http://www.w3.org/1999/xlink" x="0px" y="0px"
	 width="114.4px" height="24px" viewBox="0 0 114.4 24" style="enable-background:new 0 0 114.4 24;" xml:space="preserve">
<style type="text/css">
	.st0{fill-rule:evenodd;clip-rule:evenodd;fill:#1974BB;}
</style>
<path class="st0" d="M40.4,2.6V0h2.6v2.6H40.4z M59.8,2.6V0h2.6v2.6H59.8z M102.6,13.6V7.5h-1.8v-2h1.8V1.6h2.5v3.8h3.3v2h-3.3v5.8
	c0,0.5,0.1,1,0.2,1.3c0.2,0.4,0.3,0.7,0.5,0.9c0.2,0.2,0.5,0.4,0.7,0.5c0.3,0.1,0.5,0.2,0.8,0.2c0.1,0,0.2,0,0.3,0
	c0.1,0,0.2,0,0.3,0l0.6-0.1v2.2c-0.1,0-0.2,0-0.3,0c-0.2,0-0.4,0-0.6,0c-0.5,0-0.8,0-1.2-0.1l-0.1,0c-0.4-0.1-0.8-0.1-1.2-0.4
	c-0.5-0.2-0.9-0.4-1.3-0.8c-0.4-0.4-0.7-0.8-0.9-1.4C102.7,15.2,102.6,14.5,102.6,13.6z M91.8,18.5V5.2h2.5v2.3l-0.1,1h0.1
	c0.3-1,0.8-1.9,1.6-2.5c0.8-0.7,1.6-1,2.7-1l0.7,0.1v2.5c-0.2-0.1-0.5-0.1-0.8-0.1c-0.8,0-1.6,0.3-2.3,0.8c-0.7,0.5-1.2,1.3-1.5,2.2
	c-0.2,0.7-0.3,1.5-0.3,2.4v5.4L91.8,18.5z M79.2,6.9c-1.3,1.3-1.9,2.9-1.9,5c0,1.9,0.7,3.6,2,5c1.3,1.3,3.1,1.9,5.1,1.9
	c1,0,1.9-0.1,2.8-0.5c0.8-0.3,1.5-0.6,1.8-0.8c0.1-0.1,0.3-0.2,0.4-0.3c0.1-0.1,0.2-0.1,0.2-0.2l-1.1-1.9l-0.5,0.4
	c-0.3,0.2-0.8,0.5-1.5,0.7c-0.7,0.2-1.4,0.4-2.1,0.4c-1.2,0-2.3-0.4-3.2-1.1c-0.9-0.7-1.4-1.8-1.5-3.2h9.9l0.1-1.1
	c0-1.8-0.5-3.2-1.5-4.4C87.3,5.6,85.8,5,84,5C82.1,5,80.5,5.6,79.2,6.9z M80,10.3h7.2c0-1.1-0.4-1.9-1-2.5C85.6,7.3,84.9,7,83.9,7
	c-1,0-1.9,0.3-2.6,0.9C80.6,8.4,80.3,9.3,80,10.3z M66.4,7c-1.4,1.3-2.1,3-2.1,4.9s0.7,3.6,2.1,4.9c1.4,1.3,3.1,1.9,5.2,1.9
	c0.7,0,1.3-0.1,1.9-0.2c0.5-0.1,1-0.3,1.4-0.5l0.1-0.1h0c0.4-0.2,0.8-0.4,1.1-0.7c0.4-0.2,0.6-0.4,0.7-0.5l0.2-0.2L76,14.7l-0.5,0.4
	c-0.3,0.3-0.8,0.6-1.5,0.9c-0.7,0.3-1.4,0.4-2.1,0.4c-1.4,0-2.5-0.4-3.5-1.3c-0.9-0.9-1.4-2-1.4-3.4s0.4-2.5,1.3-3.4
	c0.9-0.9,2-1.3,3.4-1.3c0.7,0,1.4,0.1,2,0.4C74.4,7.8,74.8,8,75,8.1l0.5,0.4l1.2-1.8l-0.5-0.4c-0.4-0.3-1-0.7-1.8-1
	c-0.8-0.3-1.8-0.4-2.8-0.4C69.4,4.9,67.7,5.6,66.4,7z M59.8,5.2v13.2h2.6V5.2H59.8z M47,20.9c1.2,0.6,2.4,0.9,3.7,0.9
	c1.3,0,2.3-0.3,3.1-0.9c0.8-0.6,1.2-1.6,1.2-2.8v-1v-0.8h-0.1c-0.8,1.3-2.1,2.1-4,2.1c-1.8,0-3.3-0.7-4.4-1.9
	c-1.1-1.3-1.6-2.9-1.6-4.9c0-1.9,0.5-3.5,1.6-4.8c1.1-1.2,2.5-1.9,4.4-1.9c0.6,0,1.2,0.1,1.7,0.2c0.5,0.1,0.9,0.3,1.2,0.5
	c0.1,0,0.1,0.1,0.2,0.1l0,0c0.2,0.2,0.4,0.3,0.6,0.5c0.2,0.2,0.4,0.4,0.5,0.5l0.2,0.1h0.1V6.4V5.2h2.5v12.6c0,1-0.2,1.9-0.5,2.8
	c-0.4,0.8-0.9,1.4-1.5,1.9c-0.8,0.5-1.5,0.9-2.3,1.1c-0.8,0.2-1.6,0.4-2.5,0.4c-1.6,0-3.1-0.4-4.6-1.1L47,20.9z M54.1,15
	c-0.7,0.7-1.5,1-2.6,1c-1.2,0-2.1-0.4-2.8-1.1c-0.7-0.8-1.1-1.9-1.1-3.4c0-1.3,0.4-2.5,1-3.2c0.6-0.8,1.5-1.2,2.7-1.2
	c2.5,0,3.8,1.4,3.8,4.4C55.1,13.2,54.8,14.3,54.1,15z M40.5,5.2v13.2h2.6V5.2H40.5z M25.4,11.9c0-2.1,0.5-3.7,1.7-5
	C28.2,5.6,29.7,5,31.5,5c0.6,0,1.2,0.1,1.6,0.2c0.5,0.1,0.9,0.3,1.2,0.5c0.1,0.1,0.3,0.2,0.4,0.3v0l0,0c0.1,0.1,0.3,0.2,0.4,0.3
	c0.2,0.2,0.4,0.4,0.5,0.5l0.1,0.2h0.1c0-0.1,0-0.2,0-0.3c0-0.2,0-0.4,0-0.6V0.1h2.6v18.4h-2.5v-1.3v-0.9h-0.1c0,0.1-0.1,0.1-0.2,0.2
	c0,0-0.1,0.1-0.2,0.3c-0.1,0.1-0.1,0.2-0.2,0.3c-0.2,0.3-0.5,0.5-0.8,0.7c-0.3,0.2-0.8,0.4-1.3,0.6c-0.5,0.1-1.2,0.2-1.8,0.2
	c-1.8,0-3.3-0.6-4.4-1.9C25.9,15.6,25.4,13.9,25.4,11.9z M29.1,15.3c-0.7-0.9-1.1-2-1.1-3.4c0-1.5,0.4-2.6,1.2-3.5
	c0.7-0.8,1.7-1.3,2.8-1.3c1.2,0,2.1,0.5,2.8,1.4c0.7,0.9,1,2,1,3.3c0,1.6-0.4,2.8-1.2,3.6c-0.7,0.8-1.7,1.2-2.8,1.2
	C30.7,16.6,29.8,16.2,29.1,15.3z"/>
<path class="st0" d="M19.5,4.9c2.1,2.6,4.1,5.2,4.5,8.8c0.2,3.4-0.5,6.6-2.3,9.2c0.6-1.5,0.4-3.6-0.7-4.8l-3.7,3.2
	c-2.3,1.5-4.9,2.6-7.6,2.7c-3,0.1-5.9-0.5-8.5-2.4c0.2,0,0.4,0.1,0.7,0.1C3.3,22,5.1,22.4,6,20.9l-3.2-3.6C1.2,14.9,0.1,12.3,0,9.7
	c-0.1-3,0.5-5.8,2.5-8.4c0,0.5-0.1,1-0.3,1.6C1.9,4.2,1.6,5.5,3.2,6c3.7-3.2,7.7-6.1,12.7-6c2.6,0.2,5.1,1.1,7.1,2.5
	c0,0-0.1,0-0.1,0c-1.6-0.3-3.8-0.7-4.7,0.7C18.6,3.8,19,4.4,19.5,4.9z M18.4,16.3c0,0,1.2-1.4,2.1-2.5c0-0.1-0.1-0.5-0.1-0.5
	c-0.2-2.5-1.7-4.3-3.1-6.1c-0.3-0.4-0.7-0.8-1-1.2l-1.7-2.2h-0.2c-3.5,0-6.2,2-8.8,4.2L3.5,9.8v0.1v0.6c0.1,1.9,0.8,3.7,1.9,5.3
	c0.6,0.8,1,1.2,1.4,1.7c0.3,0.3,0.5,0.5,0.8,0.8l2.1,2.1l0.1,0.1h0.5c1.9-0.1,3.8-0.8,5.4-1.9c0.1-0.1,0.2-0.2,0.4-0.3
	C16.7,17.9,17.5,17.3,18.4,16.3z"/>
<path class="st0" d="M111.5,0c-1.5,0-2.8,1.2-2.8,2.8c0,1.5,1.2,2.8,2.8,2.8c1.5,0,2.8-1.3,2.8-2.8C114.4,1.3,113.1,0,111.5,0z
	 M110.6,4.4L110.6,4.4l0.5,0.1V3.2h0.6l0.6,1.2h0.5l-0.6-1.2c0-0.1-0.1-0.2-0.1-0.2c0.2-0.1,0.3-0.2,0.4-0.3
	c0.1-0.1,0.2-0.3,0.2-0.5c0-0.2-0.1-0.4-0.2-0.6c-0.1-0.2-0.2-0.2-0.4-0.3c-0.1-0.1-0.3-0.1-0.6-0.1h-1V4.4z M111.7,2.7H111l0.1-1.1
	h0.5c0.2,0,0.3,0,0.4,0.1c0.2,0.1,0.2,0.2,0.2,0.5c0,0.2-0.1,0.3-0.2,0.4C112,2.7,111.9,2.7,111.7,2.7z M109.3,2.8
	c0,1.3,1,2.3,2.3,2.3c1.3,0,2.3-1,2.3-2.3c0-1.3-1-2.3-2.3-2.3C110.2,0.6,109.3,1.6,109.3,2.8z"/>
</svg>
