<?xml version="1.0" encoding="utf-8"?>
<!-- Generator: Adobe Illustrator 25.2.3, SVG Export Plug-In . SVG Version: 6.00 Build 0)  -->
<svg version="1.1" id="Layer_1" xmlns="http://www.w3.org/2000/svg" xmlns:xlink="http://www.w3.org/1999/xlink" x="0px" y="0px"
	 width="180.341px" height="80px" viewBox="0 0 180.341 80" style="enable-background:new 0 0 180.341 80;" xml:space="preserve">
<style type="text/css">
	.st0{fill:#FFFFFF;}
	.st1{fill:#F3F3F3;}
	.st2{fill:#1AA44A;}
	.st3{fill:#20375D;}
</style>
<g>
	<g>
		<rect x="0.678" y="0.678" class="st0" width="178.986" height="78.645"/>
	</g>
	<g>
		<path class="st1" d="M178.986,1.356v77.289H1.356V1.356H178.986 M180.341,0h-1.355H1.356H0v1.356v77.289V80h1.356h177.629h1.356
			v-1.356V1.356V0L180.341,0z"/>
	</g>
</g>
<g>
	<g>
		<g>
			<circle class="st2" cx="43.043" cy="40" r="20.695"/>
		</g>
		<g>
			<path class="st0" d="M47.942,36.44h-9.73v-1.332c0-1.304,0.509-2.53,1.43-3.451c0.9-0.901,2.088-1.405,3.353-1.43
				c0.024,0.002,0.046,0.003,0.068,0.003h0.008c1.301,0,2.523,0.507,3.443,1.427c0.921,0.921,1.428,2.145,1.427,3.449L47.942,36.44
				L47.942,36.44z M44.898,47.21h-3.642l0.857-4.104c-0.514-0.32-0.857-0.89-0.857-1.543c0-1.007,0.815-1.82,1.822-1.82
				c1.005,0,1.82,0.813,1.82,1.82c0,0.653-0.342,1.222-0.857,1.543L44.898,47.21z M51.342,36.44h-1.389v-1.674
				c0-0.719-0.122-1.442-0.4-2.104c-1.167-2.774-3.635-4.4-6.368-4.443c-3.192,0-5.036,2.086-5.036,2.086
				c-1.258,1.294-1.949,2.996-1.949,4.804v1.332h-1.387c-0.275,0-0.498,0.222-0.498,0.497v13.838c0,0.275,0.222,0.498,0.498,0.498
				h16.529c0.274,0,0.497-0.222,0.497-0.498V36.937C51.839,36.662,51.617,36.44,51.342,36.44"/>
		</g>
	</g>
	<g>
		<g>
			<path class="st2" d="M82.459,33.079h-5.59v3.847h6.534v2.086h-9.242V25.515h9.223v2.086h-6.516v3.392h5.59
				C82.459,30.993,82.459,33.079,82.459,33.079z"/>
			<path class="st2" d="M87.317,28.982l0.121,1.437c0.333-0.514,0.745-0.912,1.233-1.196c0.488-0.284,1.035-0.426,1.641-0.426
				c1.013,0,1.804,0.319,2.373,0.955c0.568,0.636,0.853,1.635,0.853,2.994v6.266H90.82v-6.271c0-0.674-0.135-1.154-0.408-1.435
				c-0.272-0.282-0.682-0.423-1.233-0.423c-0.358,0-0.68,0.073-0.964,0.219c-0.284,0.146-0.522,0.352-0.714,0.617v7.293h-2.707
				v-10.03H87.317z"/>
			<path class="st2" d="M99.765,37.121c0.482,0,0.868-0.14,1.159-0.419c0.29-0.279,0.435-0.653,0.435-1.119h2.456l0.027,0.056
				c0.025,1.013-0.358,1.862-1.144,2.544c-0.789,0.682-1.766,1.024-2.934,1.024c-1.495,0-2.648-0.472-3.458-1.418
				c-0.81-0.946-1.214-2.16-1.214-3.643v-0.278c0-1.477,0.403-2.691,1.21-3.643c0.805-0.952,1.957-1.427,3.452-1.427
				c1.236,0,2.233,0.352,2.988,1.057c0.758,0.705,1.124,1.631,1.099,2.781l-0.019,0.056h-2.466c0-0.519-0.142-0.95-0.426-1.293
				c-0.284-0.343-0.676-0.515-1.177-0.515c-0.716,0-1.222,0.278-1.516,0.833c-0.293,0.556-0.44,1.271-0.44,2.147v0.278
				c0,0.895,0.147,1.615,0.44,2.161C98.533,36.847,99.042,37.121,99.765,37.121z"/>
			<path class="st2" d="M110.656,31.309l-0.992-0.027c-0.401,0-0.732,0.083-0.992,0.25c-0.26,0.167-0.457,0.402-0.593,0.705v6.776
				h-2.697v-10.03h2.512l0.121,1.483c0.234-0.525,0.539-0.935,0.913-1.228c0.373-0.293,0.804-0.44,1.293-0.44
				c0.136,0,0.261,0.011,0.376,0.032c0.114,0.022,0.229,0.048,0.347,0.078L110.656,31.309z"/>
			<path class="st2" d="M115.903,34.803l0.111,0.556h0.056l1.919-6.378h2.911l-4.069,11.531c-0.284,0.717-0.67,1.321-1.158,1.812
				c-0.489,0.491-1.221,0.737-2.196,0.737c-0.229,0-0.44-0.019-0.635-0.056c-0.193-0.037-0.43-0.089-0.709-0.158l0.316-1.974
				c0.08,0.013,0.167,0.025,0.26,0.037c0.093,0.013,0.176,0.019,0.25,0.019c0.445,0,0.788-0.11,1.029-0.329
				c0.241-0.22,0.426-0.493,0.556-0.82l0.316-0.778l-3.56-10.02h2.911L115.903,34.803z"/>
			<path class="st2" d="M131.03,34.275c0,1.483-0.343,2.676-1.029,3.577c-0.686,0.903-1.644,1.354-2.874,1.354
				c-0.525,0-0.992-0.097-1.4-0.292s-0.758-0.48-1.048-0.858v4.81h-2.697V28.982h2.438l0.158,1.187
				c0.297-0.439,0.654-0.777,1.07-1.015c0.419-0.238,0.905-0.357,1.46-0.357c1.242,0,2.206,0.485,2.892,1.455
				c0.686,0.97,1.029,2.246,1.029,3.828L131.03,34.275L131.03,34.275z M128.323,34.066c0-0.947-0.158-1.714-0.472-2.302
				c-0.316-0.588-0.797-0.882-1.446-0.882c-0.408,0-0.756,0.083-1.042,0.251c-0.289,0.167-0.516,0.405-0.682,0.715v4.4
				c0.167,0.284,0.393,0.501,0.682,0.65c0.286,0.148,0.641,0.222,1.06,0.222c0.656,0,1.135-0.257,1.442-0.77
				c0.305-0.514,0.458-1.209,0.458-2.089L128.323,34.066L128.323,34.066z"/>
			<path class="st2" d="M135.915,26.526v2.456h1.687v1.9h-1.687v5.107c0,0.389,0.08,0.667,0.241,0.834
				c0.16,0.167,0.377,0.25,0.649,0.25c0.142,0,0.264-0.008,0.367-0.024c0.101-0.016,0.22-0.042,0.356-0.078l0.231,1.955
				c-0.271,0.093-0.538,0.163-0.797,0.209c-0.26,0.046-0.54,0.07-0.844,0.07c-0.933,0-1.651-0.256-2.154-0.769
				c-0.505-0.514-0.756-1.325-0.756-2.438v-5.116h-1.464v-1.9h1.464v-2.456H135.915z"/>
			<path class="st2" d="M143.765,39.206c-1.446,0-2.602-0.464-3.467-1.391c-0.864-0.927-1.298-2.104-1.298-3.531v-0.37
				c0-1.489,0.409-2.716,1.227-3.68c0.819-0.964,1.917-1.443,3.296-1.437c1.354,0,2.403,0.408,3.151,1.223s1.121,1.919,1.121,3.309
				v1.474h-5.988l-0.019,0.056c0.049,0.658,0.271,1.201,0.663,1.625c0.393,0.424,0.925,0.637,1.6,0.637c0.6,0,1.097-0.06,1.493-0.18
				c0.396-0.121,0.827-0.311,1.298-0.57l0.732,1.672c-0.408,0.335-0.943,0.614-1.603,0.833
				C145.311,39.096,144.575,39.206,143.765,39.206z M143.524,30.882c-0.501,0-0.897,0.191-1.187,0.574
				c-0.29,0.383-0.47,0.887-0.538,1.511l0.027,0.046h3.319v-0.241c0-0.574-0.135-1.033-0.403-1.376
				C144.474,31.054,144.069,30.882,143.524,30.882z"/>
			<path class="st2" d="M148.956,34.081c0-1.582,0.342-2.858,1.023-3.828c0.683-0.97,1.646-1.455,2.888-1.455
				c0.501,0,0.952,0.108,1.354,0.324c0.402,0.217,0.754,0.525,1.057,0.927v-5.496h2.716v14.46h-2.327l-0.222-1.223
				c-0.316,0.464-0.687,0.815-1.116,1.057c-0.43,0.241-0.923,0.362-1.479,0.362c-1.23,0-2.187-0.451-2.87-1.354
				c-0.682-0.903-1.023-2.095-1.023-3.577V34.081z M151.653,34.277c0,0.883,0.148,1.578,0.445,2.085
				c0.297,0.507,0.778,0.76,1.446,0.76c0.389,0,0.729-0.079,1.019-0.238c0.29-0.158,0.528-0.39,0.714-0.695v-4.299
				c-0.185-0.318-0.422-0.565-0.709-0.742c-0.289-0.176-0.623-0.266-1.007-0.266c-0.661,0-1.144,0.295-1.452,0.886
				c-0.305,0.591-0.458,1.361-0.458,2.313L151.653,34.277L151.653,34.277z"/>
			<path class="st3" d="M82.715,51.342l0.016,0.048c0.022,1.245-0.359,2.233-1.14,2.964c-0.781,0.731-1.866,1.097-3.253,1.097
				c-1.393,0-2.524-0.448-3.392-1.343c-0.868-0.895-1.303-2.047-1.303-3.456v-2.296c0-1.404,0.423-2.555,1.271-3.456
				c0.848-0.901,1.949-1.351,3.305-1.351c1.43,0,2.547,0.367,3.353,1.101c0.805,0.733,1.197,1.734,1.176,2.999l-0.016,0.048h-2.256
				c0-0.763-0.182-1.347-0.548-1.751s-0.935-0.608-1.708-0.608c-0.694,0-1.245,0.282-1.652,0.846
				c-0.408,0.564-0.612,1.282-0.612,2.155v2.309c0,0.884,0.215,1.607,0.644,2.171c0.429,0.565,1.009,0.846,1.74,0.846
				c0.725,0,1.262-0.195,1.609-0.584c0.347-0.389,0.52-0.968,0.52-1.736h2.245V51.342z"/>
			<path class="st3" d="M84.112,50.905c0-1.282,0.358-2.332,1.072-3.15c0.715-0.818,1.705-1.227,2.972-1.227
				c1.271,0,2.267,0.408,2.987,1.223c0.72,0.815,1.08,1.867,1.08,3.154v0.167c0,1.293-0.359,2.345-1.076,3.158
				c-0.717,0.813-1.709,1.219-2.976,1.219c-1.271,0-2.266-0.407-2.983-1.219c-0.717-0.813-1.076-1.866-1.076-3.158
				C84.112,51.072,84.112,50.905,84.112,50.905z M86.424,51.068c0,0.782,0.138,1.411,0.414,1.885c0.275,0.473,0.72,0.71,1.335,0.71
				c0.599,0,1.037-0.238,1.315-0.714c0.278-0.476,0.418-1.103,0.418-1.88v-0.167c0-0.762-0.14-1.383-0.421-1.864
				c-0.28-0.48-0.723-0.721-1.327-0.721c-0.599,0-1.037,0.242-1.315,0.725c-0.278,0.484-0.418,1.105-0.418,1.86V51.068z"/>
			<path class="st3" d="M96.051,46.686l0.103,1.231c0.286-0.44,0.638-0.781,1.057-1.025s0.887-0.366,1.406-0.366
				c0.868,0,1.547,0.272,2.034,0.818c0.487,0.546,0.731,1.401,0.731,2.566v5.371h-2.328v-5.374c0-0.578-0.117-0.989-0.35-1.23
				c-0.233-0.242-0.585-0.363-1.057-0.363c-0.307,0-0.582,0.062-0.826,0.187c-0.244,0.124-0.448,0.301-0.612,0.529v6.251h-2.32
				v-8.597H96.051z"/>
			<path class="st3" d="M105.513,46.686l0.103,1.231c0.286-0.44,0.638-0.781,1.057-1.025s0.887-0.366,1.406-0.366
				c0.868,0,1.547,0.272,2.034,0.818c0.487,0.546,0.731,1.401,0.731,2.566v5.371h-2.328v-5.374c0-0.578-0.117-0.989-0.35-1.23
				c-0.233-0.241-0.585-0.363-1.057-0.363c-0.307,0-0.582,0.062-0.826,0.187c-0.244,0.124-0.448,0.301-0.612,0.529v6.251h-2.32
				v-8.597H105.513z"/>
			<path class="st3" d="M116.658,55.45c-1.24,0-2.23-0.397-2.972-1.192c-0.742-0.795-1.112-1.803-1.112-3.027v-0.318
				c0-1.276,0.351-2.328,1.053-3.154c0.702-0.826,1.644-1.237,2.825-1.231c1.16,0,2.06,0.35,2.701,1.049
				c0.641,0.699,0.961,1.645,0.961,2.836v1.263h-5.133l-0.016,0.048c0.042,0.565,0.231,1.029,0.568,1.393
				c0.336,0.365,0.793,0.546,1.37,0.546c0.514,0,0.94-0.052,1.279-0.155s0.71-0.267,1.112-0.489l0.627,1.433
				c-0.35,0.287-0.808,0.525-1.374,0.715C117.982,55.355,117.352,55.45,116.658,55.45z M116.451,48.315
				c-0.429,0-0.768,0.165-1.017,0.493c-0.249,0.328-0.403,0.76-0.461,1.295l0.024,0.04h2.844v-0.207c0-0.493-0.116-0.886-0.346-1.18
				C117.266,48.462,116.918,48.315,116.451,48.315z"/>
			<path class="st3" d="M125.348,53.662c0.414,0,0.744-0.12,0.993-0.36c0.249-0.239,0.373-0.56,0.373-0.96h2.105l0.024,0.048
				c0.022,0.868-0.306,1.596-0.981,2.181c-0.675,0.585-1.513,0.878-2.515,0.878c-1.282,0-2.27-0.405-2.964-1.215
				c-0.694-0.811-1.041-1.851-1.041-3.123v-0.238c0-1.266,0.346-2.307,1.037-3.123c0.691-0.815,1.678-1.223,2.96-1.223
				c1.06,0,1.913,0.302,2.562,0.906c0.649,0.604,0.962,1.399,0.942,2.384l-0.016,0.048h-2.113c0-0.445-0.122-0.814-0.366-1.109
				c-0.244-0.294-0.58-0.441-1.009-0.441c-0.615,0-1.048,0.238-1.299,0.714c-0.252,0.476-0.377,1.09-0.377,1.841v0.238
				c0,0.766,0.125,1.385,0.377,1.852C124.292,53.428,124.728,53.662,125.348,53.662z"/>
			<path class="st3" d="M133.196,44.581v2.105h1.446v1.629h-1.446v4.378c0,0.333,0.069,0.572,0.207,0.715
				c0.138,0.143,0.323,0.215,0.556,0.215c0.122,0,0.226-0.007,0.314-0.02c0.087-0.014,0.189-0.035,0.306-0.068l0.199,1.676
				c-0.233,0.079-0.461,0.139-0.683,0.178c-0.222,0.039-0.464,0.06-0.723,0.06c-0.8,0-1.415-0.22-1.848-0.66
				c-0.431-0.44-0.648-1.136-0.648-2.09v-4.386h-1.256v-1.629h1.256v-2.105H133.196z"/>
			<path class="st3" d="M138.835,44.629h-2.32v-1.74h2.32V44.629z M138.835,55.282h-2.32v-8.597h2.32V55.282z"/>
			<path class="st3" d="M140.661,50.905c0-1.282,0.358-2.332,1.072-3.15c0.715-0.818,1.705-1.227,2.972-1.227
				c1.271,0,2.267,0.408,2.987,1.223c0.72,0.815,1.08,1.867,1.08,3.154v0.167c0,1.293-0.359,2.345-1.076,3.158
				c-0.717,0.813-1.709,1.219-2.976,1.219c-1.271,0-2.266-0.407-2.983-1.219c-0.717-0.813-1.076-1.866-1.076-3.158L140.661,50.905
				L140.661,50.905z M142.973,51.068c0,0.782,0.138,1.411,0.414,1.885c0.275,0.473,0.72,0.71,1.335,0.71
				c0.599,0,1.037-0.238,1.315-0.714c0.278-0.476,0.418-1.103,0.418-1.88v-0.167c0-0.762-0.14-1.383-0.421-1.864
				c-0.28-0.48-0.723-0.721-1.327-0.721c-0.599,0-1.037,0.242-1.315,0.725c-0.278,0.484-0.418,1.105-0.418,1.86V51.068z"/>
			<path class="st3" d="M152.602,46.686l0.103,1.231c0.286-0.44,0.638-0.781,1.057-1.025c0.419-0.244,0.887-0.366,1.406-0.366
				c0.868,0,1.547,0.272,2.034,0.818c0.487,0.546,0.731,1.401,0.731,2.566v5.371h-2.328v-5.374c0-0.578-0.117-0.989-0.35-1.23
				c-0.233-0.242-0.585-0.363-1.057-0.363c-0.307,0-0.582,0.062-0.826,0.187c-0.244,0.124-0.448,0.301-0.612,0.529v6.251h-2.32
				v-8.597H152.602z"/>
		</g>
	</g>
</g>
</svg>
