<?xml version="1.0" encoding="utf-8"?>
<!-- Generator: Adobe Illustrator 23.0.0, SVG Export Plug-In . SVG Version: 6.00 Build 0)  -->
<svg version="1.1" id="Layer_1" xmlns="http://www.w3.org/2000/svg" xmlns:xlink="http://www.w3.org/1999/xlink" x="0px" y="0px"
	 width="180px" height="86px" viewBox="0 0 180 86" style="enable-background:new 0 0 180 86;" xml:space="preserve">
<style type="text/css">
	.st0{fill:#FFFFFF;}
	.st1{fill:#096CB2;}
	.st2{fill:#F37122;}
	.st3{fill:#706F6F;}
	.st4{fill-rule:evenodd;clip-rule:evenodd;fill:#706F6F;}
</style>
<g>
	<g>
		<rect width="180" height="86"/>
		<rect x="1.75" y="1.75" class="st0" width="176.5" height="82.5"/>
	</g>
	<g>
		<path class="st1" d="M25.91,14.58c5.24-3.72,10.82-5.07,15.55-4.39V1.74H1.74v40.39h13.52c-0.17-0.34-0.34-0.51-0.51-0.85
			C11.04,33.35,16.11,21.34,25.91,14.58"/>
		<path class="st2" d="M41.29,14.92c-10.48,0-18.93,8.62-18.93,19.1c0,1.18,0.17,2.37,0.34,3.55c0.51,2.03,1.52,2.7,2.54,3.04
			c0.51,0.17,1.01,0.34,1.18,0.34c2.03,0.17,4.06-0.34,6.08-1.52c2.7-1.69,4.73-4.39,5.75-7.61c-3.38,0.34-6.59,0.85-9.63,1.52
			v-5.92l21.3-1.52l-0.17,20.28l-6.42,0.51l0,0c0-0.17,0-0.34,0.17-0.68c0.17-1.69,0.51-3.38,0.68-5.24c0-1.01,0.17-2.03,0.17-3.04
			c-0.85,1.01-1.69,2.03-2.87,3.04c-1.01,0.85-2.03,1.69-3.21,2.37c-0.68,0.34-1.35,0.85-2.03,1.18c-1.52,0.68-2.87,1.18-4.39,1.69
			c-1.18,0.34-3.38,0.51-5.07,0.51c3.55,4.06,8.62,6.59,14.37,6.59c10.48,0,18.93-8.62,18.93-19.1
			C60.39,23.37,51.94,14.92,41.29,14.92"/>
	</g>
	<g>
		<g>
			<path class="st3" d="M80.48,25.72c-0.43-1.92-2.06-2.48-3.83-2.48c-3.97,0-5.39,3.48-5.32,6.53c0.14,4.19,1.42,6.46,6.03,6.53
				c1.14,0,2.2-0.14,3.19-0.5v-4.54h-3.69v-1.92h5.89v8.09c-1.7,0.5-3.55,0.92-5.39,0.92c-2.27,0-4.12-0.28-5.89-1.84
				c-1.77-1.56-2.41-4.33-2.41-6.6c0-1.7,0.57-3.55,1.35-5.04c1.42-2.48,3.76-3.48,6.53-3.48s5.75,1.28,5.89,4.4L80.48,25.72
				L80.48,25.72z"/>
		</g>
		<g>
			<path class="st3" d="M87.43,32.74c-0.14,1.99,0.64,4.04,2.84,4.04c1.63,0,2.48-0.64,2.7-2.27h2.27
				c-0.35,2.55-2.27,3.83-4.97,3.83c-3.62,0-5.04-2.55-5.04-5.89s1.63-6.1,5.25-6.1c3.33,0.07,4.97,2.2,4.97,5.32v1.06H87.43z
				 M93.11,31.25c0.07-1.92-0.78-3.33-2.84-3.33c-1.77,0-2.84,1.49-2.84,3.33H93.11z"/>
		</g>
		<g>
			<path class="st3" d="M108.08,32.31c0,3.55-1.92,6.03-5.61,6.03s-5.61-2.48-5.61-6.03s1.92-5.96,5.61-5.96
				C106.16,26.28,108.08,28.77,108.08,32.31 M102.47,36.78c2.55,0,3.33-2.06,3.33-4.47s-0.85-4.4-3.33-4.4
				c-2.55,0-3.33,2.06-3.33,4.4C99.14,34.73,99.92,36.78,102.47,36.78"/>
		</g>
		<g>
			<polygon class="st3" points="110.42,24.86 105.45,24.86 105.45,21.67 120,21.67 120,24.86 114.89,24.86 114.89,37.99 
				110.42,37.99 			"/>
		</g>
		<g>
			<path class="st3" d="M122.34,28.77L122.34,28.77c0.5-1.84,1.92-2.48,3.83-2.48v3.62c-0.28,0-0.64,0-0.92,0
				c-2.2,0-2.98,1.35-2.91,3.55v4.54h-4.26v-8.44c0-0.99,0-1.7-0.14-2.91h4.33L122.34,28.77z"/>
		</g>
		<g>
			<path class="st3" d="M135.75,36.71c-0.99,1.14-2.06,1.56-3.55,1.56c-2.41,0-4.19-1.56-4.19-4.12v-7.52h4.26v6.67
				c0.07,1.14,0.28,2.27,1.63,2.27c2.13,0,1.84-2.34,1.84-2.48v-6.53H140v8.44c0,0.99,0,1.7,0.14,2.91h-4.33L135.75,36.71z"/>
		</g>
		<g>
			<path class="st3" d="M148.87,30.11c0-0.35-0.07-0.71-0.28-0.92c-0.21-0.28-0.57-0.43-1.14-0.43c-0.64,0-0.99,0.35-0.99,0.99
				c0,0.85,1.7,0.78,4.4,1.63c1.35,0.43,2.27,1.28,2.27,3.12c0,2.98-2.77,3.76-5.39,3.76c-2.77,0-5.46-0.57-5.39-4.04h4.04
				c-0.07,0.35,0.07,0.71,0.28,0.99s0.57,0.5,0.99,0.5c0.85,0,1.42-0.28,1.42-1.06c0-1.99-6.67-0.78-6.67-4.9
				c0-2.77,2.98-3.55,5.18-3.55c2.7,0,5.11,0.71,5.32,3.83h-4.04L148.87,30.11L148.87,30.11z"/>
		</g>
		<g>
			<path class="st3" d="M156.39,26.64v-1.7l4.26-1.63v3.33h2.48v2.7h-2.48v4.47c0,0.28-0.14,1.77,0.78,1.77c0.57,0,1.14,0,1.63-0.07
				v2.55c-0.99,0.21-1.63,0.21-2.27,0.21c-2.91,0-4.61-0.43-4.4-3.9v-5.04h-2.2v-2.7C154.19,26.64,156.39,26.64,156.39,26.64z"/>
		</g>
		<g>
			<g>
				<path class="st4" d="M166.82,27.09c-0.3-0.32-0.68-0.48-1.13-0.48c-0.44,0-0.83,0.16-1.14,0.48c-0.31,0.32-0.47,0.7-0.47,1.16
					c0,0.45,0.16,0.83,0.47,1.14c0.31,0.32,0.7,0.49,1.14,0.49c0.45,0,0.83-0.17,1.13-0.49c0.33-0.31,0.49-0.69,0.49-1.14
					C167.31,27.78,167.15,27.41,166.82,27.09z M166.56,29.14c-0.23,0.26-0.53,0.39-0.86,0.39c-0.34,0-0.64-0.13-0.87-0.39
					c-0.25-0.26-0.36-0.56-0.36-0.89c0-0.34,0.11-0.65,0.36-0.89c0.23-0.27,0.53-0.39,0.87-0.39c0.34,0,0.63,0.13,0.86,0.39
					c0.24,0.25,0.37,0.55,0.37,0.89C166.93,28.58,166.8,28.88,166.56,29.14z"/>
			</g>
			<g>
				<g>
					<path class="st3" d="M165.15,27.43c0.12-0.02,0.3-0.04,0.51-0.04c0.25,0,0.42,0.04,0.54,0.13c0.1,0.08,0.16,0.2,0.16,0.35
						c0,0.21-0.15,0.36-0.3,0.41v0.01c0.12,0.05,0.18,0.16,0.22,0.31c0.05,0.19,0.1,0.41,0.14,0.48h-0.39
						c-0.02-0.05-0.07-0.18-0.11-0.39c-0.05-0.21-0.12-0.27-0.28-0.27h-0.11v0.66h-0.38V27.43z M165.53,28.16h0.15
						c0.19,0,0.3-0.09,0.3-0.24c0-0.15-0.1-0.23-0.28-0.23c-0.09,0-0.15,0.01-0.17,0.01V28.16z"/>
				</g>
			</g>
		</g>
	</g>
	<g>
		<path d="M79.87,57.24c-0.65,0.24-1.91,0.57-3.25,0.57c-1.71,0-3-0.44-3.96-1.35c-0.9-0.85-1.42-2.19-1.41-3.72
			c0-3.19,2.28-5.25,5.62-5.25c1.24,0,2.22,0.26,2.68,0.48l-0.4,1.48c-0.56-0.24-1.23-0.43-2.29-0.43c-2.16,0-3.67,1.27-3.67,3.63
			c0,2.29,1.41,3.66,3.51,3.66c0.66,0,1.16-0.09,1.4-0.21v-2.52H76.3v-1.46h3.57V57.24z"/>
		<path d="M83.14,54.57c0.04,1.32,1.08,1.89,2.25,1.89c0.85,0,1.47-0.12,2.02-0.33l0.27,1.27c-0.63,0.26-1.5,0.47-2.55,0.47
			c-2.37,0-3.76-1.47-3.76-3.7c0-2.02,1.23-3.93,3.57-3.93c2.38,0,3.15,1.95,3.15,3.55c0,0.34-0.03,0.61-0.06,0.78H83.14z
			 M86.35,53.28c0.02-0.68-0.29-1.78-1.51-1.78c-1.14,0-1.62,1.03-1.69,1.78H86.35z"/>
		<path d="M96.58,53.99c0,2.68-1.89,3.88-3.75,3.88c-2.07,0-3.66-1.43-3.66-3.76c0-2.4,1.57-3.87,3.78-3.87
			C95.13,50.24,96.58,51.77,96.58,53.99z M91.08,54.06c0,1.41,0.69,2.47,1.81,2.47c1.05,0,1.78-1.03,1.78-2.5
			c0-1.14-0.51-2.44-1.77-2.44C91.6,51.59,91.08,52.85,91.08,54.06z"/>
		<path d="M99.49,49.14h-2.88V47.6h7.63v1.54h-2.91v8.56h-1.84V49.14z"/>
		<path d="M104.67,52.76c0-0.99-0.02-1.7-0.06-2.35h1.6l0.06,1.4h0.06c0.36-1.04,1.22-1.56,2-1.56c0.18,0,0.28,0.02,0.43,0.04v1.74
			c-0.15-0.03-0.31-0.06-0.54-0.06c-0.89,0-1.49,0.57-1.65,1.4c-0.03,0.17-0.06,0.36-0.06,0.57v3.78h-1.84V52.76z"/>
		<path d="M116.61,55.52c0,0.87,0.03,1.59,0.06,2.19h-1.62l-0.09-1.11h-0.03c-0.32,0.52-1.04,1.27-2.34,1.27
			c-1.33,0-2.55-0.79-2.55-3.18V50.4h1.84v3.97c0,1.21,0.39,1.99,1.36,1.99c0.73,0,1.21-0.52,1.41-0.99c0.06-0.17,0.1-0.36,0.1-0.57
			V50.4h1.84V55.52z"/>
		<path d="M118.57,56.01c0.42,0.25,1.22,0.52,1.88,0.52c0.81,0,1.17-0.33,1.17-0.81c0-0.49-0.3-0.75-1.2-1.06
			c-1.43-0.49-2.02-1.27-2.01-2.13c0-1.29,1.06-2.29,2.76-2.29c0.81,0,1.51,0.21,1.93,0.44l-0.36,1.3c-0.31-0.18-0.9-0.42-1.54-0.42
			c-0.66,0-1.02,0.31-1.02,0.76c0,0.46,0.34,0.69,1.27,1.02c1.32,0.48,1.94,1.15,1.95,2.23c0,1.32-1.03,2.29-2.97,2.29
			c-0.88,0-1.68-0.23-2.22-0.52L118.57,56.01z"/>
		<path d="M127.09,48.53v1.88h1.75v1.38h-1.75v3.22c0,0.89,0.24,1.35,0.94,1.35c0.34,0,0.51-0.03,0.72-0.09l0.03,1.41
			c-0.27,0.1-0.75,0.2-1.33,0.2c-0.68,0-1.24-0.24-1.59-0.61c-0.39-0.42-0.57-1.08-0.57-2.04v-3.43h-1.05V50.4h1.05v-1.35
			L127.09,48.53z"/>
		<path d="M129.34,59.52c0.4-1.14,0.81-2.71,1-3.96l1.93-0.15c-0.42,1.41-1.09,3.03-1.68,3.99L129.34,59.52z"/>
		<path d="M138.9,47.6v10.11h-1.84V47.6H138.9z"/>
		<path d="M141.09,52.58c0-0.84-0.02-1.54-0.06-2.17h1.62l0.09,1.09h0.04c0.32-0.57,1.11-1.26,2.32-1.26c1.27,0,2.59,0.82,2.59,3.14
			v4.33h-1.84v-4.12c0-1.05-0.39-1.84-1.4-1.84c-0.73,0-1.24,0.52-1.44,1.08c-0.06,0.17-0.07,0.39-0.07,0.6v4.29h-1.86V52.58z"/>
		<path d="M155.1,57.48c-0.39,0.18-1.15,0.39-2.07,0.39c-2.28,0-3.76-1.47-3.76-3.73c0-2.19,1.5-3.9,4.06-3.9
			c0.68,0,1.36,0.15,1.78,0.34l-0.33,1.38c-0.3-0.14-0.73-0.28-1.39-0.28c-1.41,0-2.25,1.03-2.24,2.37c0,1.5,0.98,2.35,2.24,2.35
			c0.64,0,1.09-0.14,1.45-0.28L155.1,57.48z"/>
		<path d="M157.3,57.87c-0.66,0-1.13-0.51-1.13-1.19c0-0.69,0.48-1.18,1.14-1.18c0.67,0,1.14,0.48,1.14,1.18
			c0,0.68-0.45,1.19-1.14,1.19H157.3z"/>
	</g>
	<g>
		<path d="M61.34,65.39v8.55c0,0.7,0.03,1.51,0.06,2.02h-1.52l-0.09-1.06h-0.03c-0.38,0.72-1.14,1.21-2.06,1.21
			c-1.61,0-2.78-1.5-2.78-3.73c-0.01-2.47,1.36-3.87,2.9-3.87c0.86,0,1.48,0.37,1.77,0.9h0.03v-4.02H61.34z M59.61,71.63
			c0-0.15,0-0.33-0.03-0.47c-0.13-0.68-0.64-1.24-1.35-1.24c-1.04,0-1.58,1.08-1.58,2.41c0,1.38,0.57,2.35,1.57,2.35
			c0.6,0,1.16-0.41,1.33-1.2c0.04-0.15,0.06-0.33,0.06-0.51V71.63z"/>
		<path d="M69.17,65.39v8.55c0,0.7,0.03,1.51,0.06,2.02H67.7l-0.09-1.06h-0.03c-0.38,0.72-1.14,1.21-2.06,1.21
			c-1.61,0-2.78-1.5-2.78-3.73c-0.01-2.47,1.36-3.87,2.9-3.87c0.86,0,1.48,0.37,1.77,0.9h0.03v-4.02H69.17z M67.44,71.63
			c0-0.15,0-0.33-0.03-0.47c-0.13-0.68-0.64-1.24-1.35-1.24c-1.04,0-1.58,1.08-1.58,2.41c0,1.38,0.57,2.35,1.57,2.35
			c0.6,0,1.16-0.41,1.33-1.2c0.04-0.15,0.06-0.33,0.06-0.51V71.63z"/>
		<path d="M71.72,76.12c-0.6,0-1.05-0.48-1.05-1.15c0-0.69,0.45-1.17,1.07-1.17c0.63,0,1.05,0.46,1.07,1.17
			c0,0.67-0.42,1.15-1.07,1.15H71.72z"/>
		<path d="M74.19,70.81c0-0.84-0.03-1.5-0.06-2.14h1.49l0.07,1.02h0.04c0.34-0.57,0.97-1.17,2.04-1.17c0.88,0,1.55,0.48,1.84,1.26
			h0.03c0.22-0.38,0.51-0.67,0.82-0.89c0.37-0.24,0.79-0.37,1.32-0.37c1.16,0,2.2,0.85,2.2,3.03v4.42h-1.7v-4.15
			c0-1.11-0.32-1.84-1.13-1.84c-0.56,0-0.97,0.41-1.14,0.93c-0.06,0.17-0.07,0.39-0.07,0.6v4.47h-1.7v-4.35
			c0-0.93-0.31-1.65-1.11-1.65c-0.57,0-1,0.47-1.16,0.99c-0.06,0.18-0.09,0.39-0.09,0.6v4.41h-1.7V70.81z"/>
		<path d="M85.76,70.81c0-0.84-0.03-1.5-0.06-2.14h1.49l0.07,1.02h0.04c0.34-0.57,0.97-1.17,2.04-1.17c0.88,0,1.55,0.48,1.84,1.26
			h0.03c0.22-0.38,0.51-0.67,0.82-0.89c0.37-0.24,0.79-0.37,1.32-0.37c1.16,0,2.2,0.85,2.2,3.03v4.42h-1.7v-4.15
			c0-1.11-0.32-1.84-1.13-1.84c-0.56,0-0.97,0.41-1.14,0.93c-0.06,0.17-0.07,0.39-0.07,0.6v4.47h-1.7v-4.35
			c0-0.93-0.31-1.65-1.11-1.65c-0.57,0-1,0.47-1.16,0.99c-0.06,0.18-0.09,0.39-0.09,0.6v4.41h-1.7V70.81z"/>
		<path d="M98.21,76.12c-0.6,0-1.05-0.48-1.05-1.15c0-0.69,0.45-1.17,1.07-1.17c0.63,0,1.05,0.46,1.07,1.17
			c0,0.67-0.42,1.15-1.07,1.15H98.21z"/>
		<path d="M101.8,68.66l1.14,3.93c0.13,0.46,0.26,0.99,0.35,1.39h0.04c0.09-0.39,0.21-0.93,0.34-1.39l0.98-3.93h1.82l-1.65,5.05
			c-0.81,2.39-1.41,3.7-2.24,4.53c-0.66,0.66-1.36,0.93-1.76,1l-0.44-1.5c0.31-0.1,0.67-0.3,1.02-0.58
			c0.32-0.25,0.66-0.68,0.88-1.13c0.06-0.14,0.1-0.22,0.1-0.33c0-0.08-0.01-0.18-0.07-0.33l-2.4-6.72H101.8z"/>
		<path d="M108.81,68.66l1.14,3.93c0.13,0.46,0.26,0.99,0.35,1.39h0.04c0.09-0.39,0.21-0.93,0.34-1.39l0.98-3.93h1.82l-1.65,5.05
			c-0.81,2.39-1.41,3.7-2.24,4.53c-0.66,0.66-1.36,0.93-1.76,1l-0.44-1.5c0.31-0.1,0.67-0.3,1.02-0.58
			c0.32-0.25,0.66-0.68,0.88-1.13c0.06-0.14,0.1-0.22,0.1-0.33c0-0.08-0.01-0.18-0.07-0.33l-2.4-6.72H108.81z"/>
		<path d="M123.19,71.03c0,3.25-1.19,5.08-3.22,5.08c-2.08,0-3.13-2.07-3.15-4.99c0-3.03,1.16-5.05,3.25-5.05
			C122.25,66.07,123.19,68.23,123.19,71.03z M118.56,71.11c-0.01,2.35,0.53,3.61,1.46,3.61c0.97,0,1.43-1.33,1.43-3.65
			c0-2.25-0.45-3.61-1.43-3.61C119.13,67.46,118.56,68.71,118.56,71.11z"/>
		<path d="M130.48,71.03c0,3.25-1.19,5.08-3.22,5.08c-2.08,0-3.13-2.07-3.15-4.99c0-3.03,1.16-5.05,3.25-5.05
			C129.54,66.07,130.48,68.23,130.48,71.03z M125.85,71.11c-0.01,2.35,0.53,3.61,1.46,3.61c0.97,0,1.43-1.33,1.43-3.65
			c0-2.25-0.45-3.61-1.43-3.61C126.43,67.46,125.85,68.71,125.85,71.11z"/>
		<path d="M132.74,71.03c-0.6,0-1.04-0.48-1.04-1.14s0.44-1.16,1.05-1.16c0.63,0,1.05,0.47,1.05,1.16c0,0.66-0.41,1.14-1.05,1.14
			H132.74z M132.74,76.12c-0.6,0-1.04-0.48-1.04-1.14s0.44-1.16,1.05-1.16c0.63,0,1.05,0.48,1.05,1.16c0,0.66-0.41,1.14-1.05,1.14
			H132.74z"/>
		<path d="M141.14,71.03c0,3.25-1.19,5.08-3.22,5.08c-2.08,0-3.13-2.07-3.15-4.99c0-3.03,1.16-5.05,3.25-5.05
			C140.2,66.07,141.14,68.23,141.14,71.03z M136.51,71.11c-0.01,2.35,0.53,3.61,1.46,3.61c0.97,0,1.43-1.33,1.43-3.65
			c0-2.25-0.45-3.61-1.43-3.61C137.08,67.46,136.51,68.71,136.51,71.11z"/>
		<path d="M148.43,71.03c0,3.25-1.19,5.08-3.22,5.08c-2.08,0-3.13-2.07-3.15-4.99c0-3.03,1.16-5.05,3.25-5.05
			C147.49,66.07,148.43,68.23,148.43,71.03z M143.8,71.11c-0.01,2.35,0.53,3.61,1.46,3.61c0.97,0,1.43-1.33,1.43-3.65
			c0-2.25-0.45-3.61-1.43-3.61C144.37,67.46,143.8,68.71,143.8,71.11z"/>
		<path d="M154.4,65.86v6.12c0,1.87,0.72,2.68,1.76,2.68c1.11,0,1.79-0.79,1.79-2.68v-6.12h1.74v5.95c0,2.97-1.41,4.3-3.59,4.3
			c-2.12,0-3.43-1.29-3.43-4.27v-5.98H154.4z"/>
		<path d="M163.27,67.39h-2.5v-1.53h6.76v1.53h-2.52v8.58h-1.74V67.39z"/>
		<path d="M174.59,75.71c-0.4,0.19-1.2,0.39-2.23,0.39c-2.87,0-4.6-1.96-4.6-5.07c0-3.49,2.2-5.31,4.83-5.31
			c1.02,0,1.74,0.21,2.06,0.39l-0.37,1.44c-0.4-0.2-0.92-0.34-1.63-0.34c-1.73,0-3.07,1.2-3.07,3.73c0,2.37,1.19,3.66,3.06,3.66
			c0.61,0,1.26-0.14,1.67-0.31L174.59,75.71z"/>
	</g>
	<g>
		<path class="st1" d="M17.61,74.35c-0.41,0.14-1.25,0.28-2.33,0.28c-3,0-4.8-1.43-4.8-3.68c0-2.54,2.29-3.86,5.05-3.86
			c1.07,0,1.82,0.15,2.16,0.28l-0.38,1.05c-0.41-0.14-0.96-0.25-1.7-0.25c-1.81,0-3.21,0.87-3.21,2.71c0,1.72,1.24,2.66,3.2,2.66
			c0.64,0,1.32-0.1,1.74-0.23L17.61,74.35z"/>
		<path class="st1" d="M19.06,67.19h1.81v6.27h3.79v1.08h-5.6V67.19z"/>
		<path class="st1" d="M27.81,67.19v7.35h-1.81v-7.35H27.81z"/>
		<path class="st1" d="M36.49,74.35c-0.41,0.14-1.25,0.28-2.33,0.28c-3,0-4.8-1.43-4.8-3.68c0-2.54,2.29-3.86,5.05-3.86
			c1.07,0,1.82,0.15,2.16,0.28l-0.38,1.05c-0.41-0.14-0.96-0.25-1.7-0.25c-1.81,0-3.21,0.87-3.21,2.71c0,1.72,1.24,2.66,3.2,2.66
			c0.64,0,1.32-0.1,1.74-0.23L36.49,74.35z"/>
		<path class="st1" d="M37.94,67.19h1.81v3.38h0.03c0.23-0.28,0.47-0.57,0.7-0.83l2.37-2.55h2.17l-3.21,3.14l3.38,4.21h-2.08
			l-2.57-3.33l-0.8,0.74v2.59h-1.81V67.19z"/>
	</g>
	<g>
		<path class="st3" d="M85.22,18.93l-3.03-8.59h2.22l1.19,3.61c0.34,1.06,0.64,2,0.89,3.1h0.03c0.24-1.03,0.57-2.05,0.91-3.03
			l1.26-3.67h2.14l-3.2,8.59H85.22z"/>
		<path class="st3" d="M97.4,15.34h-3.56v1.94h3.98v1.64h-6v-8.59h5.8v1.64h-3.77v1.72h3.56V15.34z"/>
		<path class="st3" d="M99.21,10.45c0.66-0.1,1.67-0.19,2.84-0.19c1.39,0,2.31,0.22,2.94,0.69c0.51,0.38,0.83,1.01,0.83,1.81
			c0,1.15-0.89,1.89-1.58,2.1v0.05c0.6,0.24,0.94,0.82,1.19,1.56c0.29,0.98,0.56,2.12,0.74,2.46h-2.08
			c-0.14-0.26-0.36-0.88-0.64-1.99c-0.27-1.07-0.66-1.35-1.54-1.36h-0.69v3.35h-2.01V10.45z M101.23,14.13h0.92
			c1.05,0,1.67-0.46,1.67-1.21c0-0.8-0.62-1.17-1.56-1.17c-0.57,0-0.88,0.04-1.03,0.06V14.13z"/>
		<path class="st3" d="M109.32,10.33v8.59h-2.03v-8.59H109.32z"/>
		<path class="st3" d="M111.09,10.33h5.75v1.64h-3.72v1.89h3.48v1.64h-3.48v3.42h-2.03V10.33z"/>
		<path class="st3" d="M120.41,10.33v8.59h-2.03v-8.59H120.41z"/>
		<path class="st3" d="M127.77,15.34h-3.56v1.94h3.98v1.64h-6v-8.59h5.8v1.64h-3.77v1.72h3.56V15.34z"/>
		<path class="st3" d="M129.58,10.45c0.82-0.13,1.85-0.19,2.92-0.19c1.82,0,3,0.32,3.91,0.97c0.94,0.66,1.56,1.68,1.56,3.16
			c0,1.62-0.64,2.73-1.49,3.43c-1.01,0.83-2.58,1.21-4.42,1.21c-1.16,0-1.95-0.06-2.47-0.14V10.45z M131.61,17.42
			c0.19,0.04,0.52,0.04,0.8,0.04c2.09,0.03,3.4-1.02,3.4-2.97c0-1.8-1.24-2.69-3.14-2.69c-0.54,0-0.88,0.05-1.07,0.09V17.42z"/>
		<path class="st3" d="M142.09,10.45c0.51-0.09,1.66-0.19,2.72-0.19c1.31,0,2.03,0.13,2.66,0.45c0.65,0.29,1.15,0.88,1.15,1.73
			c0,0.75-0.46,1.45-1.47,1.81v0.03c0.97,0.26,1.77,0.98,1.77,2.13c0,0.82-0.41,1.44-0.98,1.87c-0.68,0.48-1.77,0.75-3.57,0.75
			c-1.06,0-1.82-0.08-2.28-0.14V10.45z M144.1,13.7h0.73c1.17,0,1.73-0.4,1.73-1.02c0-0.66-0.56-0.96-1.5-0.96
			c-0.51,0-0.78,0.03-0.96,0.06V13.7z M144.1,17.5c0.22,0.04,0.48,0.04,0.87,0.04c0.96,0,1.8-0.32,1.8-1.22
			c0-0.87-0.83-1.17-1.9-1.17h-0.76V17.5z"/>
		<path class="st3" d="M152.06,18.93v-3.6l-2.98-5h2.37l0.97,2.08c0.29,0.64,0.5,1.03,0.73,1.58h0.03c0.22-0.51,0.45-0.97,0.73-1.57
			l0.98-2.09h2.35l-3.14,4.92v3.67H152.06z"/>
	</g>
</g>
</svg>
