<svg xmlns="http://www.w3.org/2000/svg" width="132.951" height="28.949" viewBox="0 0 132.951 28.949">
  <g id="GeoTrust_Logo" transform="translate(0 0.2)">
    <g id="GeoTrust" transform="translate(40.6 6.905)">
      <g id="GeoTrust-2" data-name="GeoTrust">
        <path id="Path" d="M10.844,4.253c-.381-1.868-1.965-2.37-3.6-2.37-3.75,0-5.1,3.37-5.021,6.307.171,4.022,1.359,6.222,5.74,6.307a9.671,9.671,0,0,0,3.051-.5V9.556H7.539V7.683h5.593v7.763a17.823,17.823,0,0,1-5.256.914,7.5,7.5,0,0,1-5.588-1.808C.6,13.031,0,10.4,0,8.18A10.444,10.444,0,0,1,1.31,3.349,6.6,6.6,0,0,1,7.495,0c2.586,0,5.441,1.22,5.573,4.243H10.844Z" transform="translate(0.01 0.005)" fill="#717073"/>
        <path id="Shape" d="M0,5.875C0,2.677,1.564,0,4.933,0,8.105.066,9.612,2.129,9.612,5.157V6.181h-7.5v0c-.147,1.913.611,3.9,2.665,3.9A2.258,2.258,0,0,0,7.367,7.854H9.484c-.318,2.48-2.18,3.721-4.722,3.721C1.349,11.575,0,9.095,0,5.875Z" transform="translate(15.283 4.801)" fill="#717073"/>
        <path id="Shape-2" data-name="Shape" d="M0,5.79C0,2.395,1.8,0,5.295,0s5.289,2.395,5.289,5.79-1.8,5.785-5.289,5.785S0,9.18,0,5.79Z" transform="translate(26.312 4.801)" fill="#717073"/>
        <path id="Path-2" data-name="Path" d="M4.679,3.043H0V0H13.7V3.043H8.912V15.7H4.679V3.043Z" transform="translate(34.462 0.346)" fill="#717073"/>
        <path id="Path-3" data-name="Path" d="M4.146,2.373H4.19C4.659.57,5.969-.043,7.744,0V3.5c-.293-.02-.567-.02-.846-.02-2.1.02-2.816,1.306-2.752,3.39v4.369H.122v-8.1A27.979,27.979,0,0,0,0,.329H4.087Z" transform="translate(46.264 4.798)" fill="#717073"/>
        <path id="Path-4" data-name="Path" d="M7.3,9.727A4.023,4.023,0,0,1,3.98,11.248,3.764,3.764,0,0,1,0,7.312V0H4.024V6.418c.044,1.065.3,2.22,1.55,2.22,1.985,0,1.736-2.24,1.736-2.37V0h4.024V8.11a27.867,27.867,0,0,0,.127,2.8H7.372Z" transform="translate(55.787 5.127)" fill="#717073"/>
        <path id="Path-5" data-name="Path" d="M6.224,3.7a1.341,1.341,0,0,0-.259-.914,1.36,1.36,0,0,0-1.1-.392.879.879,0,0,0-.953.979c0,.8,1.633.763,4.151,1.567a2.805,2.805,0,0,1,2.136,3c0,2.892-2.645,3.631-5.08,3.631C2.518,11.57-.019,11.023,0,7.7H3.813a1.247,1.247,0,0,0,.274.979,1.264,1.264,0,0,0,.953.5c.787,0,1.359-.306,1.359-1C6.4,6.242.113,7.4.113,3.435.113.738,2.9,0,5.021,0c2.523,0,4.85.673,5.021,3.7Z" transform="translate(69.295 4.806)" fill="#717073"/>
        <path id="Path-6" data-name="Path" d="M2.078,3.219V1.567L6.1,0V3.219H8.428V5.83H6.1v4.329c0,.286-.171,1.7.763,1.7a11.852,11.852,0,0,0,1.55-.065v2.456a10.916,10.916,0,0,1-2.161.221c-2.733,0-4.38-.392-4.175-3.741V5.83H0V3.219Z" transform="translate(80.559 1.908)" fill="#717073"/>
        <path id="Shape-3" data-name="Shape" d="M0,.959A.949.949,0,0,1,.959,0h.01a.943.943,0,0,1,.943.959.947.947,0,0,1-.953.969A.951.951,0,0,1,0,.959Z" transform="translate(90.44 4.128)" fill="#717073"/>
      </g>
    </g>
    <g id="Group" transform="translate(0 -0.2)">
      <g id="Logo">
        <path id="Path-7" data-name="Path" d="M13.306,7.213a12.073,12.073,0,0,1,8.533-2.455V0H0V22.814H7.468c-.085-.152-.17-.319-.246-.485C5.152,17.812,7.875,11.045,13.306,7.213Z" fill="#004b8d"/>
        <path id="Path-8" data-name="Path" d="M10.432,0A10.616,10.616,0,0,0,0,10.795a10.961,10.961,0,0,0,.18,1.984,2.232,2.232,0,0,0,1.411,1.774,2.249,2.249,0,0,0,.649.186,5.375,5.375,0,0,0,3.343-.9A8.021,8.021,0,0,0,8.741,9.58c-1.828.22-3.6.5-5.3.843l.033-3.386,11.72-.808-.085,11.437-3.542.25c0-.01,0-.015,0-.02.019-.123.033-.24.052-.358.142-.96.26-1.936.35-2.935.052-.573.1-1.147.142-1.725a11.9,11.9,0,0,1-1.525,1.71,13.307,13.307,0,0,1-1.724,1.348c-.369.235-.743.461-1.141.661a12.37,12.37,0,0,1-2.429.941,15.33,15.33,0,0,1-2.765.294,10.243,10.243,0,0,0,7.908,3.753A10.618,10.618,0,0,0,20.864,10.79,10.621,10.621,0,0,0,10.432,0Z" transform="translate(11.294 7.365)" fill="#eb6f26"/>
      </g>
      <g id="Logo_R_Mark" transform="translate(22.729)">
        <path id="Shape-4" data-name="Shape" d="M0,.936A.925.925,0,0,1,.928,0H.933a.916.916,0,0,1,.914.936A.924.924,0,1,1,0,.936Z" transform="translate(0.327 0.02)" fill="#717073"/>
      </g>
    </g>
  </g>
</svg>
