<?xml version="1.0" encoding="utf-8"?>
<!-- Generator: Adobe Illustrator 25.2.3, SVG Export Plug-In . SVG Version: 6.00 Build 0)  -->
<svg version="1.1" id="Layer_1" xmlns="http://www.w3.org/2000/svg" xmlns:xlink="http://www.w3.org/1999/xlink" x="0px" y="0px"
	 width="111.7px" height="24px" viewBox="0 0 111.7 24" style="enable-background:new 0 0 111.7 24;" xml:space="preserve">
<style type="text/css">
	.st0{fill-rule:evenodd;clip-rule:evenodd;fill:#717073;}
	.st1{fill-rule:evenodd;clip-rule:evenodd;fill:#004B8D;}
	.st2{fill-rule:evenodd;clip-rule:evenodd;fill:#EB6F26;}
</style>
<path class="st0" d="M43.4,8.4c-0.3-1.5-1.6-2-3-2c-3.1,0-4.3,2.8-4.2,5.2c0.1,3.3,1.1,5.1,4.8,5.2c0.9,0,1.7-0.1,2.6-0.4v-3.7h-2.9
	v-1.5h4.7v6.4c-1.5,0.5-2.9,0.8-4.4,0.8c-1.8,0-3.3-0.2-4.7-1.5c-1.4-1.3-1.9-3.4-1.9-5.2c0-1.3,0.4-2.8,1.1-4c1.1-2,3-2.8,5.2-2.8
	c2.2,0,4.6,1,4.7,3.5L43.4,8.4L43.4,8.4z"/>
<path class="st0" d="M51.1,17.1c-1.7,0-2.4-1.6-2.2-3.2v0h6.3v-0.8c0-2.5-1.3-4.2-3.9-4.2c-2.8,0-4.1,2.2-4.1,4.8
	c0,2.7,1.1,4.7,4,4.7c2.1,0,3.7-1,4-3.1h-1.8C53.1,16.6,52.4,17.1,51.1,17.1z M51.1,10.1c1.6,0,2.3,1.2,2.3,2.7h-4.5
	C48.9,11.3,49.7,10.1,51.1,10.1z"/>
<path class="st0" d="M60.8,18.4c2.9,0,4.4-2,4.4-4.8c0-2.8-1.5-4.8-4.4-4.8c-2.9,0-4.4,2-4.4,4.8C56.3,16.4,57.9,18.4,60.8,18.4z
	 M63.4,13.6c0,1.9-0.7,3.5-2.7,3.5c-2,0-2.7-1.6-2.7-3.5s0.7-3.5,2.7-3.5C62.8,10.1,63.4,11.7,63.4,13.6z"/>
<path class="st0" d="M67.1,7.7h-3.9V5.2h11.5v2.5h-4v10.4h-3.5V7.7L67.1,7.7z"/>
<path class="st0" d="M76.5,10.8L76.5,10.8c0.4-1.5,1.5-2,3-2v2.9c-0.2,0-0.5,0-0.7,0c-1.8,0-2.4,1.1-2.3,2.8v3.6h-3.4v-6.7
	c0-0.8,0-1.3-0.1-2.3h3.4L76.5,10.8z"/>
<path class="st0" d="M87.2,17.1c-0.8,0.9-1.7,1.3-2.8,1.3c-1.9,0-3.3-1.3-3.3-3.2v-6h3.4v5.3c0,0.9,0.2,1.8,1.3,1.8
	c1.7,0,1.5-1.8,1.5-2V9.1h3.4v6.7c0,0.8,0,1.3,0.1,2.3h-3.4L87.2,17.1z"/>
<path class="st0" d="M97.6,11.9c0-0.3-0.1-0.6-0.2-0.8c-0.2-0.2-0.5-0.3-0.9-0.3c-0.5,0-0.8,0.3-0.8,0.8c0,0.7,1.4,0.6,3.5,1.3
	c1.1,0.3,1.8,1,1.8,2.5c0,2.4-2.2,3-4.3,3c-2.2,0-4.3-0.5-4.3-3.2h3.2c0,0.3,0,0.6,0.2,0.8c0.2,0.2,0.5,0.4,0.8,0.4
	c0.7,0,1.1-0.3,1.1-0.8c0-1.6-5.3-0.6-5.3-3.9c0-2.2,2.3-2.8,4.1-2.8c2.1,0,4.1,0.6,4.2,3H97.6z"/>
<path class="st0" d="M103.5,9.1V7.7l3.4-1.3v2.7h1.9v2.2h-1.9v3.6c0,0.2-0.1,1.4,0.6,1.4c0.4,0,0.9,0,1.3-0.1v2
	c-0.8,0.1-1.3,0.2-1.8,0.2c-2.3,0-3.7-0.3-3.5-3.1v-4h-1.7V9.1H103.5z"/>
<path class="st0" d="M111.7,9.1c0-0.4-0.3-0.8-0.8-0.8h0c-0.5,0-0.8,0.3-0.8,0.8c0,0.5,0.4,0.8,0.8,0.8
	C111.3,9.9,111.7,9.5,111.7,9.1z M110.2,9.1c0-0.4,0.3-0.6,0.6-0.6h0c0.4,0,0.6,0.3,0.6,0.7c0,0.4-0.3,0.7-0.6,0.6
	C110.5,9.7,110.2,9.4,110.2,9.1z M110.7,9.5h-0.2V8.7c0.1,0,0.2,0,0.3,0c0.1,0,0.2,0,0.3,0.1c0,0,0.1,0.1,0.1,0.2
	c0,0.1-0.1,0.2-0.2,0.2v0c0.1,0,0.1,0.1,0.1,0.2c0,0.1,0,0.2,0.1,0.2h-0.2c0,0,0-0.1-0.1-0.2c0-0.1-0.1-0.1-0.2-0.1h-0.1L110.7,9.5
	L110.7,9.5z M110.8,9h-0.1V8.8c0,0,0.1,0,0.1,0c0.1,0,0.2,0.1,0.2,0.1C111,9,111,9,110.8,9z"/>
<path class="st1" d="M11.7,6c2.6-1.7,5.3-2.4,7.5-2V0H0v18.9h6.6c-0.1-0.1-0.2-0.3-0.2-0.4C4.5,14.8,6.9,9.2,11.7,6z"/>
<path class="st2" d="M19.2,6.1c-5.1,0-9.2,4-9.2,8.9c0,0.6,0.1,1.1,0.2,1.6c0.2,1,0.8,1.3,1.2,1.5c0.2,0.1,0.5,0.1,0.6,0.2
	c1,0.1,2-0.2,3-0.7c1.3-0.8,2.3-2.1,2.8-3.5c-1.6,0.2-3.2,0.4-4.7,0.7l0-2.8l10.3-0.7l-0.1,9.5L20.2,21c0,0,0,0,0,0
	c0-0.1,0-0.2,0-0.3c0.1-0.8,0.2-1.6,0.3-2.4c0-0.5,0.1-1,0.1-1.4c-0.4,0.5-0.8,1-1.3,1.4c-0.5,0.4-1,0.8-1.5,1.1
	c-0.3,0.2-0.7,0.4-1,0.5c-0.7,0.3-1.4,0.6-2.1,0.8c-0.6,0.1-1.6,0.2-2.4,0.2c1.7,1.9,4.2,3.1,7,3.1c5.1,0,9.2-4,9.2-8.9
	C28.4,10.1,24.3,6.1,19.2,6.1z"/>
<path class="st0" d="M22,0.8C22,0.4,21.6,0,21.2,0h0c-0.5,0-0.8,0.3-0.8,0.8c0,0.4,0.4,0.8,0.8,0.8C21.6,1.6,22,1.2,22,0.8z
	 M20.5,0.8c0-0.3,0.3-0.6,0.6-0.6h0c0.4,0,0.6,0.3,0.6,0.6c0,0.4-0.3,0.6-0.6,0.6C20.8,1.4,20.5,1.1,20.5,0.8z M21,1.2h-0.2V0.4
	c0.1,0,0.2,0,0.3,0c0.1,0,0.2,0,0.3,0.1c0.1,0,0.1,0.1,0.1,0.2c0,0.1-0.1,0.2-0.2,0.2v0c0.1,0,0.1,0.1,0.1,0.2c0,0.1,0,0.2,0.1,0.2
	h-0.2c0,0,0-0.1-0.1-0.2c0-0.1-0.1-0.1-0.2-0.1H21V1.2z M21.1,0.8H21V0.5c0,0,0.1,0,0.1,0c0.2,0,0.2,0.1,0.2,0.1
	C21.3,0.7,21.2,0.8,21.1,0.8z"/>
</svg>
