<svg xmlns="http://www.w3.org/2000/svg" width="138.421" height="6" viewBox="0 0 138.421 6">
  <path id="stroke" d="M74.5,6a.474.474,0,0,1-.053,0c-.655-.092-1.33-.244-1.983-.391a15.074,15.074,0,0,0-3.233-.489,5.768,5.768,0,0,0-1.113.1c-.086.1-.046.159.01.237a.466.466,0,0,1,.1.237.428.428,0,0,1-.157-.192c-.052-.091-.1-.178-.169-.178-.043,0-.09.035-.144.107l.054.329a1.194,1.194,0,0,0-.879-.306,5.192,5.192,0,0,0-.724.071A5.155,5.155,0,0,1,65.5,5.6a1.069,1.069,0,0,1-1.074-.631,1.223,1.223,0,0,1-.644.175,3.014,3.014,0,0,1-.477-.05l-.011,0a3.162,3.162,0,0,0-.5-.053,1.6,1.6,0,0,0-.977.342c-.173-.148-.068-.293.017-.409.048-.066.09-.123.072-.167s-.063-.059-.153-.075l-1,.515a.852.852,0,0,1-.591.222,3.169,3.169,0,0,1-1.219-.391L58.9,5.054a3.389,3.389,0,0,0-1.319-.408A1.1,1.1,0,0,0,57,4.8l.053-.048a.424.424,0,0,0-.115-.314.333.333,0,0,0-.237-.126.193.193,0,0,0-.071.013c-.05.117.008.195.087.3.03.04.063.085.1.137a6.6,6.6,0,0,1-2.153.479l-.032,0c.076-.07.11-.126.106-.177-.006-.069-.082-.119-.171-.178a.559.559,0,0,1-.316-.418.457.457,0,0,0-.084.329c.005.144.01.269-.289.422-.036,0-.074,0-.111,0A3.543,3.543,0,0,1,52.483,4.9a6.113,6.113,0,0,0-.578-.206.988.988,0,0,1-.306.327.532.532,0,0,0-.266.5,6.934,6.934,0,0,0-.938.109,7.194,7.194,0,0,1-1.29.124H49.08l-.025-.182c-.064.155-.151.23-.266.23a.752.752,0,0,1-.345-.136l-.021-.013a.682.682,0,0,0-.288-.124.136.136,0,0,0-.126.088,1.049,1.049,0,0,1,.064-.244.5.5,0,0,0,.043-.262l-.452.211a.777.777,0,0,0,.184-.675.273.273,0,0,0-.219-.209c-.215.254-.159.323-.1.4s.1.123.017.29l-.118-.607c-.124.029-.222.177-.246.377a.537.537,0,0,0,.23.555H47.38a10.1,10.1,0,0,0-1.236.1l-.014,0a9.531,9.531,0,0,1-1.177.1,3.549,3.549,0,0,1-.4-.021l.094-.392a2.267,2.267,0,0,1-.62.09,1.055,1.055,0,0,1-.824-.294.736.736,0,0,1-.034.133.415.415,0,0,0-.02.324c-.1.1-.181.142-.231.142-.072,0-.085-.094-.1-.185s-.027-.19-.1-.19a.246.246,0,0,0-.126.052.506.506,0,0,0,.243-.341l-1.193.484a1.162,1.162,0,0,0-.99-.751.549.549,0,0,0-.252.059.449.449,0,0,0,.254.421l-.322.147-.249-.682-.467.6L39.6,4.673c-.168.055-.284.254-.4.445s-.207.355-.337.355l-.027,0a2.076,2.076,0,0,1-1.035-.623,3.549,3.549,0,0,0-.537-.477c-.035.45-.247.508-.427.508a1.811,1.811,0,0,1-.286-.032,1.8,1.8,0,0,0-.283-.032.34.34,0,0,0-.371.3,2.71,2.71,0,0,0-1.852-.5c-.15,0-.3,0-.452.006h-.014c-.146,0-.3.006-.442.006a5.49,5.49,0,0,1-.958-.07l.105-.1a.362.362,0,0,0-.236-.116c-.154,0-.266.168-.385.346l-.019.028c-.137.205-.267.375-.459.375a.375.375,0,0,1-.13-.025l.15-.161a1.383,1.383,0,0,0-.856-.256,4.1,4.1,0,0,0-1.986.667.344.344,0,0,0,.049-.353.191.191,0,0,0-.176-.126l-.035,0c-.087.094-.06.256-.038.385.015.09.029.168,0,.2a.054.054,0,0,1-.044.018.344.344,0,0,1-.137-.045.246.246,0,0,0,.025-.25c-.024-.061-.061-.1-.1-.1l-.4.545a7.923,7.923,0,0,0-2.537-.567,3.159,3.159,0,0,0-.866.114c-.16-.151-.1-.3-.048-.452a1.277,1.277,0,0,0,.041-.124,7.3,7.3,0,0,0-1.312.347,6.55,6.55,0,0,1-1.209.321L21.5,4.6c-.163,0-.232.175-.293.329-.051.129-.1.251-.194.251-.065,0-.148-.057-.254-.176-.013-.01-.019-.019-.018-.026s.044-.029.1-.044a.564.564,0,0,0,.386-.25.659.659,0,0,0-.326-.122c-.159,0-.231.137-.308.283l-.027.05a.5.5,0,0,1-.468.334c-.021,0-.043,0-.066,0l.193-.71a.5.5,0,0,0-.285-.12c-.23,0-.338.3-.443.6a3.052,3.052,0,0,1-.124.314.489.489,0,0,1-.317.192c-.167,0-.27-.217-.379-.447l-.038-.079c-.129-.266-.279-.526-.556-.526a.724.724,0,0,0-.354.114A.7.7,0,0,0,17.676,5a.7.7,0,0,1-.057.434,1.331,1.331,0,0,0-.32-.042,1.3,1.3,0,0,0-.487.109,1.3,1.3,0,0,1-.489.109A1.357,1.357,0,0,1,16,5.57c-.11-.285-.143-.444-.105-.5a.066.066,0,0,1,.06-.025l.036,0,.034,0a.055.055,0,0,0,.05-.02c.03-.046-.01-.186-.129-.453l.58.241c-.113-.127-.158-.212-.142-.265s.092-.074.18-.1c.168-.045.377-.1.338-.41a.386.386,0,0,0-.17-.037,1.8,1.8,0,0,0-.781.334,4.026,4.026,0,0,1-.481.263.242.242,0,0,1,.221-.276.221.221,0,0,0,.155-.092.455.455,0,0,0-.034-.331l-.252.194a1.084,1.084,0,0,0,.045-.112c.037-.1.071-.2.17-.2h.012c-.028-.139-.069-.2-.131-.2a.354.354,0,0,0-.165.081.5.5,0,0,1-.238.111,3.4,3.4,0,0,0,.067.9.485.485,0,0,0-.056-.132,1.107,1.107,0,0,1-.951.411.967.967,0,0,0-.787.3.23.23,0,0,0,.011-.213.567.567,0,0,1-.023-.081H13.5c-.155,0-.315.174-.485.359a1.753,1.753,0,0,1-.5.426.953.953,0,0,1-.089-.458c-.007-.231-.014-.43-.235-.43a.654.654,0,0,0-.189.034,1.521,1.521,0,0,0-.026.444.772.772,0,0,1-.093.538.3.3,0,0,1-.228.08h-.016s.264-.183.288-.389a.258.258,0,0,0-.071-.209.62.62,0,0,1-.241.09c-.072,0-.088-.059-.114-.158a.966.966,0,0,0-.291-.507c-.1.2-.2.23-.277.23-.019,0-.038,0-.056,0s-.037,0-.053,0c-.106,0-.168.078-.193.487-.12-.424-.132-.437-.246-.562-.047-.052-.112-.123-.209-.25.073.246-.086.371-.254.5a.677.677,0,0,0-.347.574.935.935,0,0,1,.134-.673.728.728,0,0,0-.008-.853,2.18,2.18,0,0,1-.354.389,1.324,1.324,0,0,0-.534.951,1.43,1.43,0,0,1-.2-.189.891.891,0,0,0-.447-.307c.046-.013.094-.109.122-.167l0-.008a1.621,1.621,0,0,1-.867.271c-.424.048-.825.093-1.031.609a.536.536,0,0,0-.079-.416A.676.676,0,0,0,5.833,5.2c-.157-.013-.3-.025-.359-.119-.045-.079-.021-.212.074-.406a1.505,1.505,0,0,0-.761.674A.524.524,0,0,0,4.7,4.97a.458.458,0,0,0-.34-.091.509.509,0,0,1-.5-.218c-.088.275-.288.33-.5.388a.985.985,0,0,0-.363.155.43.43,0,0,0,.113-.431c-.095.1-.152.139-.2.139s-.089-.072-.137-.182A1.813,1.813,0,0,0,2.6,4.4c-.234.135-.191.311-.145.5a.578.578,0,0,1-.038.511c-.236-.118-.2-.291-.153-.492a.874.874,0,0,0,.029-.365l-.558.824a.728.728,0,0,1-.238-.462c-.026.032-.051.066-.076.1-.1.134-.2.273-.322.273-.078,0-.155-.058-.238-.178l.478-.026-.183-.419-.569.527C-.1,4.677-.03,3.979.048,3.24c.014-.133.028-.27.038-.4L.02,2.864.1,2.545c0,.083-.006.171-.011.256l0,.035.331-.152a.491.491,0,0,0-.385-.476.174.174,0,0,1,0-.156,1.954,1.954,0,0,1,.9-.894c.535.032.545.336.554.631.008.243.015.494.318.589l.863-.5.012.293c.029.041.057.063.084.063.066,0,.114-.122.145-.2.009-.023.017-.043.023-.055a.2.2,0,0,0,.036.165.347.347,0,0,0,.27.078c.093,0,.2-.011.3-.022a2.964,2.964,0,0,1,.3-.022.733.733,0,0,1,.142.012l-.126-.376A.805.805,0,0,1,4.4,1.56a1.34,1.34,0,0,1,.782.4l.023.019a1.249,1.249,0,0,0,.706.384.5.5,0,0,0,.263-.078l.545-.645.112.558a2.132,2.132,0,0,0,.215-.276c.127-.185.237-.344.451-.344a.667.667,0,0,1,.233.049,3.647,3.647,0,0,0,1.783.4,12.2,12.2,0,0,0,1.3-.095h.007a12.269,12.269,0,0,1,1.3-.093,4.021,4.021,0,0,1,1.283.188.26.26,0,0,0-.076-.146,1.338,1.338,0,0,0,.815.3,2.343,2.343,0,0,0,1.214-.5l.013-.009a2.3,2.3,0,0,1,1.167-.491,1.161,1.161,0,0,1,.7.257l-.1.209a1.655,1.655,0,0,1,.228-.023c.053,0,.083.008.094.025s0,.056-.024.1c-.051.1-.128.263.145.417.069-.457.471-.54.86-.62a1.78,1.78,0,0,0,.526-.162.3.3,0,0,1-.188.145.573.573,0,0,0-.154.081,1.032,1.032,0,0,1,.059.162c.043.139.091.3.195.3a.153.153,0,0,0,.076-.024,2,2,0,0,1,1.6-.99A4.71,4.71,0,0,0,21.232.88a1.693,1.693,0,0,0,.452.678,3.7,3.7,0,0,1,.639.889c.072-.147.206-.469.347-.84a1.036,1.036,0,0,1-.1-.117.1.1,0,0,0,.047-.024.152.152,0,0,1,.022-.015c-.135.018-.2.036-.219.058a.015.015,0,0,0,0,.014c-.168-.241-.134-.315-.077-.437a.8.8,0,0,0,.085-.42h.041c.054,0,.117-.006.184-.012h.011c.062-.006.138-.013.21-.013.157,0,.343.029.376.257a.837.837,0,0,1,.361.122l.042.021a.346.346,0,0,1,.217-.1.239.239,0,0,1,.091.019l-.05.054a.715.715,0,0,0,.065.165.443.443,0,0,0,.187.04c.382,0,.846-.442,1.184-.764.073-.07.142-.136.2-.191a.65.65,0,0,0-.033.8.81.81,0,0,1,.135.408,5.962,5.962,0,0,0-1.07-.069.511.511,0,0,1,.089.308.483.483,0,0,0,.336.152,1.006,1.006,0,0,0,.429-.145l.036-.018a1.2,1.2,0,0,1,.543-.163.839.839,0,0,1,.35.08.364.364,0,0,0-.113.341.263.263,0,0,0,.115.028c.231,0,.426-.325.478-.56a.827.827,0,0,0,.74.661A.358.358,0,0,0,27.8,2.03c.056-.085.1-.158.135-.224.115-.2.172-.3.432-.3.036,0,.075,0,.119.006l-.205.329a.489.489,0,0,0,.216.061.345.345,0,0,0,.271-.167l.009-.011c.066-.081.128-.157.23-.157a.294.294,0,0,1,.124.031l-.021,0c-.035,0-.062.028-.073.076a.222.222,0,0,0,.085.236c.476-.151.562-.3.818-.727.051-.086.108-.183.178-.294l-.076.516.085-.054a2.718,2.718,0,0,1,1.07-.5.232.232,0,0,1,.249.2A.555.555,0,0,1,31.56.618.572.572,0,0,1,32,.474a3.192,3.192,0,0,1,.614.085,2.553,2.553,0,0,0,.331.055c-.147.031-.173.253-.187.372a1.4,1.4,0,0,1,.917-.322,3.768,3.768,0,0,1,.879.144,3.788,3.788,0,0,0,.883.144h.021l.144.784c.23-.015.377-.376.533-.758S36.453.19,36.71.19h.017L36.54.565A6.165,6.165,0,0,1,37.383.5,6.282,6.282,0,0,1,38.566.64l-.014.524a1.333,1.333,0,0,1,.431-.242,1.336,1.336,0,0,0,.432-.243.735.735,0,0,0,.731.458,3.557,3.557,0,0,0,.749-.119l.04-.009A3.9,3.9,0,0,1,41.8.88a1.327,1.327,0,0,1,1.123.549L42.99.453h.057c.058,0,.118,0,.189-.006s.124-.006.186-.006a.664.664,0,0,1,.734.569L44.061,1c-.01.168.006.272.048.317a.085.085,0,0,0,.065.027.525.525,0,0,0,.209-.084l.016-.009a.583.583,0,0,1,.256-.093.168.168,0,0,1,.092.026.658.658,0,0,0,.286-.463.272.272,0,0,0-.059-.255A4.6,4.6,0,0,0,46.56.73c.773.042,1.5.082,1.91.6A7.465,7.465,0,0,0,49.6.869,4.243,4.243,0,0,1,51.445.323c.073,0,.147,0,.219.009L51.65.446c.4.13,1.232.4,1.231,1.212a2.553,2.553,0,0,0,.922-.5,2.018,2.018,0,0,1,1.15-.521A1.218,1.218,0,0,1,55.36.71l-.225.313a.273.273,0,0,0,.144.038,1.235,1.235,0,0,0,.64-.352L55.931.7a.051.051,0,0,1,.036.022c.024.035.008.107-.007.177-.007.032-.014.065-.017.094a.225.225,0,0,0,.162.092c.091,0,.171-.088.248-.174A.61.61,0,0,1,56.54.749l-.081.278a.984.984,0,0,0,.566.159A3.857,3.857,0,0,0,58.2.906L58.229.9a4.128,4.128,0,0,1,1.258-.29,1.529,1.529,0,0,1,.19.012.172.172,0,0,0-.1.11.593.593,0,0,0,.087.414A1.714,1.714,0,0,1,61.193.353a2.053,2.053,0,0,0,.564-.115L61.48.595a.665.665,0,0,1,.364-.139c.2,0,.327.161.45.317s.251.317.448.317A.657.657,0,0,0,63.1.95l-.5-.525a.607.607,0,0,0,.245.056.33.33,0,0,0,.263-.114A.43.43,0,0,0,63.175,0a.609.609,0,0,1,.241.407c.041.174.076.324.43.374.011.112-.073.16-.154.206-.062.035-.121.068-.136.127a.229.229,0,0,0,.047.171l.858.679c.015.045.058.065.136.065a1.225,1.225,0,0,0,.281-.046c-.037-.566.142-.582.274-.593.053,0,.1-.008.121-.045.039-.063,0-.221-.115-.527.076-.005.141-.007.2-.007a5.315,5.315,0,0,1,1.168.167l.034.007a4.924,4.924,0,0,0,1.063.16,1.8,1.8,0,0,0,.823-.186c.2.509.646.555,1.079.6.485.05.943.1.886.86h.038a1.607,1.607,0,0,0,1.394-.845.122.122,0,0,0-.086-.037.4.4,0,0,0-.209.107.969.969,0,0,1-.091.064c.172-.4,1.022-.414,1.118-.414h.042c-.116.1-.253.188-.4.285a2.724,2.724,0,0,0-.921.856,5.527,5.527,0,0,0,1.339-.692c.1-.062.181-.116.244-.153l.137.733c.085-.1.158-.151.221-.151s.131.071.178.134l0,.006c.05.067.1.129.163.129s.157-.079.264-.248l-.086-.221c.025,0,.05,0,.082,0a1.049,1.049,0,0,0,.787-.372,1.233,1.233,0,0,1,.741-.4l-.034.289a.167.167,0,0,0,.066.013.6.6,0,0,0,.262-.1l.008,0a.632.632,0,0,1,.285-.107c.122,0,.219.1.3.292l-.5.03a1.273,1.273,0,0,0,.422.773,1.863,1.863,0,0,1,.188.22c.312-.079.323-.355.332-.577.007-.16.012-.3.123-.326.073.31.063.326,0,.428a1.447,1.447,0,0,0-.154.3l.074-.021a2.975,2.975,0,0,0,1.749-.966.372.372,0,0,1,0,.182.656.656,0,0,0,.087.006,1.357,1.357,0,0,0,.659-.243l.05-.03a1.144,1.144,0,0,1,.511-.214.313.313,0,0,1,.238.11l-.122.071a.442.442,0,0,0,.374.213,1.063,1.063,0,0,0,.378-.1l.022-.009a.947.947,0,0,1,.315-.088c.176,0,.268.16.3.519.035.034.05.058.045.075s-.05.032-.1.042c-.074.015-.166.033-.2.105s0,.175.1.322a.514.514,0,0,0,.229.066c.206,0,.3-.21.376-.4l.006-.014c.084-.2.162-.382.339-.382a.39.39,0,0,1,.175.05.119.119,0,0,0-.028,0c-.028,0-.031.028-.037.071a.608.608,0,0,1-.016.085,10.888,10.888,0,0,0,1.611-.267l-.024-.036a.572.572,0,0,1-.042-.069l.177.076-.01,0c-.034.008-.07.017-.1.027a.914.914,0,0,0,.853.414c.128,0,.263-.011.394-.022s.271-.023.406-.023a1.091,1.091,0,0,1,1.022.527.332.332,0,0,1,.077-.484.392.392,0,0,0,.1-.122.3.3,0,0,0,.008.137l.029,0c.17,0,.236-.182.295-.342a.993.993,0,0,1,.075-.173.184.184,0,0,0,.161.095.724.724,0,0,0,.336-.143l.021-.013a.667.667,0,0,1,.277-.131.088.088,0,0,1,.081.046c0-.162.089-.195.217-.195.036,0,.075,0,.116.005s.079.005.12.006a.49.49,0,0,0-.281.519A.809.809,0,0,1,88,2.143a.578.578,0,0,0,.1.009c.287,0,.472-.241.652-.475s.364-.475.651-.475a.6.6,0,0,1,.154.021l.408.482a.564.564,0,0,1,.535-.554c.125-.026.223-.047.217-.151a1.865,1.865,0,0,0,.1.157.777.777,0,0,1,.182.57.4.4,0,0,1,.213-.052,1.394,1.394,0,0,1,.188.017h.007a1.336,1.336,0,0,0,.173.016.258.258,0,0,0,.28-.219L91.57,1.3a1.081,1.081,0,0,0,.312.047,1.738,1.738,0,0,0,.773-.233l.041-.02A1.522,1.522,0,0,1,93.34.881a.679.679,0,0,1,.4.131l-.014,1.1a.363.363,0,0,0,.256.115.753.753,0,0,0,.362-.14l.007,0a.716.716,0,0,1,.339-.136c.115,0,.216.074.309.227-.021-.054-.039-.1-.054-.133-.077-.181-.077-.181.084-.369l.1-.115a.168.168,0,0,0-.068-.013.874.874,0,0,0-.3.094l-.032.014a1.045,1.045,0,0,1-.389.107h-.012l.629-.641-.981.311.121-.123c.255-.256.255-.256.149-.517C94.221.747,94.2.705,94.185.656a.528.528,0,0,1,.267-.085.55.55,0,0,1,.335.152l.006,0A.516.516,0,0,0,95.1.876.5.5,0,0,0,95.4.756c.1.073.1.2.1.344a.549.549,0,0,0,.126.426.354.354,0,0,1,.221-.081.817.817,0,0,1,.458.226l.023.018a.757.757,0,0,0,.392.209.206.206,0,0,0,.1-.023.17.17,0,0,0-.043.148c.077-.024.15-.04.214-.055.215-.048.37-.082.443-.334l-.281-.121h.023a.313.313,0,0,0,.2-.109l.014-.012a.377.377,0,0,1,.259-.121.549.549,0,0,1,.259.08.827.827,0,0,0,.274-.7.145.145,0,0,0-.144-.1.08.08,0,0,1,.039-.01.243.243,0,0,1,.166.111.521.521,0,0,1,.084.453h.01a.5.5,0,0,0,.481-.39c.012-.03.022-.06.033-.089.059-.161.109-.3.242-.3a.546.546,0,0,1,.291.134c-.04.028-.1.082-.074.154a.633.633,0,0,0,.251.06l.044,0c-.14.084-.109.247-.082.39.018.1.036.187,0,.236a.14.14,0,0,1-.114.04A.774.774,0,0,1,99.21,1.3c.038.273.163.31.28.31a1.121,1.121,0,0,0,.161-.016,1.117,1.117,0,0,1,.163-.017.26.26,0,0,1,.191.066.825.825,0,0,0,.171-.7.684.684,0,0,1,.051-.429c0,.142.087.174.211.218.036.013.072.026.111.043l-.171-.439h.015a.824.824,0,0,0,.461-.1l-.3.178a1.149,1.149,0,0,1,.337.191,1.25,1.25,0,0,0,.675.3.62.62,0,0,0,.378-.135c-.1.117-.286.333-.253.531a.343.343,0,0,0,.182.233.789.789,0,0,1,.27-.087.075.075,0,0,1,.057.019c.027.027.026.081.025.15a.527.527,0,0,0,.147.436.425.425,0,0,0,.377-.331c.05-.132.093-.247.3-.247a1.258,1.258,0,0,1,.345.063.036.036,0,0,0,.036-.021c.031-.065-.047-.258-.128-.355a1.542,1.542,0,0,0,.518.082c.073,0,.143,0,.211-.007h.006c.067,0,.134-.006.2-.006a1.281,1.281,0,0,1,.524.1c-.127-.068-.19-.134-.191-.2s.063-.143.192-.217a.2.2,0,0,0-.009.166c.046.1.2.157.369.213a1.035,1.035,0,0,1,.374.181l.061-.219a.254.254,0,0,1,.072.2c-.02.093-.129.149-.224.2l-.015.008a.119.119,0,0,0-.03-.091.13.13,0,0,0-.1-.038l-.034,0a.556.556,0,0,0-.152.572.606.606,0,0,0,.434.529c.517-.212.415-.82.338-1.016a.5.5,0,0,0,.161.029c.228,0,.359-.2.474-.378l.011-.017c.12-.185.234-.361.426-.361a.45.45,0,0,1,.21.061c.056,0,.161.127.294.287.221.266.524.63.819.682.125-.259-.029-.35-.178-.439-.087-.051-.169-.1-.188-.18a.252.252,0,0,1,.051-.19.721.721,0,0,0,.592.421,1.519,1.519,0,0,0,.709-.287l.033-.02a1.645,1.645,0,0,1,.809-.307.817.817,0,0,1,.493.172l-.129.615a2.631,2.631,0,0,0,.446.051,1.208,1.208,0,0,0,.3-.035l-.352-.337a.464.464,0,0,1,.229-.054.458.458,0,0,1,.375.165.357.357,0,0,1,.014.341.6.6,0,0,1,.848-.175,2.4,2.4,0,0,0,.308.125c-.13-.012-.2-.024-.23-.029l-.025,0s0,.006,0,.008c.015.023.059.092-.143.258a1.021,1.021,0,0,0,.461.156.633.633,0,0,0,.3-.095,1.9,1.9,0,0,1,.23-.1.541.541,0,0,0,.11.429.258.258,0,0,0,.179.124,1.468,1.468,0,0,1,.89-.366,2.885,2.885,0,0,0,.6-.152l0,.182a1.19,1.19,0,0,1,.322-.042,3.179,3.179,0,0,1,.815.15,3.252,3.252,0,0,0,.833.152,1.176,1.176,0,0,0,.651-.185.1.1,0,0,1,.021-.011.07.07,0,0,0,.023-.013l-.068-.037a.315.315,0,0,1-.035-.283c.067-.135.291-.176.508-.217a1,1,0,0,0,.451-.151c.014.035.026.077.038.12.038.132.081.282.192.284.006-.333.129-.366.248-.4a.265.265,0,0,0,.2-.141.386.386,0,0,1,.147.332c.014.153.027.3.277.3h.041c.229-.055.207-.427.2-.54a1.047,1.047,0,0,0,.693.56.1.1,0,0,1-.088.054.241.241,0,0,1-.1-.034l-.011-.005a.2.2,0,0,0-.075-.028.035.035,0,0,0-.019.005.282.282,0,0,0,.056.243.433.433,0,0,1,.084.308l.023,0c.089,0,.117-.1.139-.181l0-.008c.025-.089.048-.173.121-.173a.206.206,0,0,1,.106.04l-.274.43a.122.122,0,0,0,.086.036.351.351,0,0,0,.2-.1l.015-.012c-.106.1-.139.361-.1.778.473-.218.354-.7.25-1.119a1.825,1.825,0,0,1-.082-.52.892.892,0,0,0,.425.108,1.74,1.74,0,0,0,.691-.2,1.66,1.66,0,0,1,.545-.172l-.094.509a.635.635,0,0,0,.453-.411l-.1,0,.181-.252a2.153,2.153,0,0,1-.083.25l.379,0a.841.841,0,0,0-.306.751,1.929,1.929,0,0,1,.321-.072c.316-.052.642-.107.731-.581l-.011.074a5.644,5.644,0,0,0,.8.252c.433.115.842.224.82.362a1.731,1.731,0,0,1,.638-.082h.063c.357,0,.611-.03.621-.424-.089.045-.154.158-.2.357.009-.055.017-.127.026-.2.028-.234.062-.524.13-.524h.006a1.782,1.782,0,0,1,.041.369.187.187,0,0,1,.082-.018.793.793,0,0,1,.381.188.79.79,0,0,0,.386.189c.127,0,.22-.11.286-.338.139.154.186.224.182.27s-.029.051-.066.078a.531.531,0,0,0-.22.336.288.288,0,0,0,.215.107.568.568,0,0,0,.289-.117l.022-.015a.485.485,0,0,1,.223-.1c.1,0,.167.125.207.406.126-.079.185-.135.19-.181s-.026-.065-.06-.1a.279.279,0,0,1-.079-.351c.043.4.216.476.462.476.055,0,.112,0,.172-.008s.128-.009.192-.009a.615.615,0,0,1,.5.2c.092-.169.056-.23.025-.285s-.07-.119.117-.328c-.033.224.142.267.236.29l.094-.564.454,1.394a.829.829,0,0,0,.3-.727c-.009-.211-.015-.363.464-.5l-.055.047c.052.126.115.185.2.185a.607.607,0,0,0,.272-.117l.051-.031a.838.838,0,0,1,.424-.148.589.589,0,0,1,.341.117.159.159,0,0,0-.067-.02.053.053,0,0,0-.039.015c-.033.033-.032.117-.031.206a.609.609,0,0,1-.024.23l.36-.23a.1.1,0,0,0-.013.134c.076.1.136.15.19.15a.182.182,0,0,0,.11-.057l.006,0a.2.2,0,0,1,.127-.062.323.323,0,0,1,.208.126.268.268,0,0,0-.146.17.816.816,0,0,0,.083.577l.526-.64-.214.771.037,0a1.242,1.242,0,0,0,.581-.272l.007,0a1.209,1.209,0,0,1,.559-.268c.168,0,.284.142.356.433l-.255.115c.01.1.092.489.295.489a.324.324,0,0,0,.223-.135.591.591,0,0,0,.1-.47l.191.129c-.109.435-.606.6-1,.731l-.165.056a1.153,1.153,0,0,1,.144-.176c.131-.141.266-.287.2-.51a3.35,3.35,0,0,0-.546.345,3.481,3.481,0,0,1-.5.322,2.331,2.331,0,0,0,.262-.622l.032-.1a.31.31,0,0,0-.166-.067c-.1,0-.142.1-.189.2s-.105.233-.229.253l-.011-.021c-.1-.193-.174-.32-.1-.474a1.084,1.084,0,0,1-.536.173.893.893,0,0,1-.511-.182.846.846,0,0,0,.265-.411.294.294,0,0,0-.068-.247,2.251,2.251,0,0,0-.788.609,2.554,2.554,0,0,1-.837.652.936.936,0,0,1-.661.286,1.842,1.842,0,0,1-.683-.176l-.034-.014a1.657,1.657,0,0,0-.584-.163.529.529,0,0,0-.389.167c-.014.09.058.173.122.246s.109.126.095.182-.062.08-.156.113c.044-.285-.06-.326-.151-.363-.055-.022-.1-.041-.11-.109-.123.186-.238.273-.36.273a.486.486,0,0,1-.2-.056l-.006,0a.44.44,0,0,0-.177-.054.265.265,0,0,0-.212.146c.059-.13-.1-.27-.255-.405-.033-.029-.065-.057-.094-.084a.432.432,0,0,0-.1-.365c-.083-.1-.134-.165.238-.636a.816.816,0,0,1-.722.351h-.107c-.3,0-.551.052-.8.708l.167.158-.659-.263.028.014a1.037,1.037,0,0,0-.164-.038c-.157-.026-.252-.042-.547-.491a.9.9,0,0,1,.282-.137.887.887,0,0,0,.285-.14.285.285,0,0,0-.227-.147c-.143,0-.286.14-.437.288s-.3.293-.452.3a.272.272,0,0,1,.173-.274c.092-.049.179-.1.117-.365a.346.346,0,0,0-.079-.009.826.826,0,0,0-.437.2,1.6,1.6,0,0,1-.254.157l.035-.226a.419.419,0,0,0-.23-.1c-.134,0-.183.158-.215.328,0,.025-.009.051-.014.075-.024.136-.044.254-.106.254-.046,0-.113-.068-.2-.207a.719.719,0,0,1-.011.191.6.6,0,0,0-.005.22c-.024-.03-.051-.063-.08-.1-.143-.171-.321-.384-.291-.583a.365.365,0,0,1,.181-.246.779.779,0,0,0-.631.451.991.991,0,0,0,.174.222c.069.067.107.1.153.371l-.961.231c-.021,0-.032-.008-.032-.024a.322.322,0,0,1,.246-.2,1.049,1.049,0,0,0-.786-.372,2.492,2.492,0,0,0-.861.22l-.015.006a2.621,2.621,0,0,1-.9.226,1.3,1.3,0,0,1-.988-.506c.095.241.026.3-.068.394a.608.608,0,0,0-.147.184,2.85,2.85,0,0,0-.567-.071,1.965,1.965,0,0,1-.85-.174l.121-.254c-.268.084-.508.174-.74.26a3.86,3.86,0,0,1-1.261.328,1.273,1.273,0,0,1-.3-.035c0,.011-.006.016-.008.016a.872.872,0,0,1,.1-.432.283.283,0,0,1-.185.071.76.76,0,0,1-.433-.231l-.043-.036c-.117-.1-.228-.194-.314-.194s-.152.11-.183.347l.176.078a1.731,1.731,0,0,0-.3-.025,4.616,4.616,0,0,0-1.475.356,5.941,5.941,0,0,1-1.2.337.312.312,0,0,1-.026-.248c.031-.057.1-.071.18-.086a.291.291,0,0,0,.212-.1.411.411,0,0,0,0-.317,1.226,1.226,0,0,0-.405-.064,3.269,3.269,0,0,0-.641.086l-.01,0a3.394,3.394,0,0,1-.671.089,1.448,1.448,0,0,1-.377-.047.233.233,0,0,0,.106-.12.119.119,0,0,1,.044-.06.64.64,0,0,0-.251-.089.074.074,0,0,0-.061.023c-.033.04-.016.127,0,.219l.01.054a.313.313,0,0,1-.023.245.177.177,0,0,1-.144.051.53.53,0,0,1-.072-.005c.034-.288.006-.359-.2-.511l-.182.469a1.118,1.118,0,0,1,.041-.532.8.8,0,0,1-.664.354c-.266.045-.518.087-.625.372a1.1,1.1,0,0,1,.011-.371,1.39,1.39,0,0,0,0-.541.474.474,0,0,0-.223-.06.853.853,0,0,0-.546.336.857.857,0,0,0-.6-.363c-.057-.013-.091-.02-.093-.032s0-.011.017-.018a.688.688,0,0,0-.2-.042c-.122,0-.125.089-.128.213a.6.6,0,0,1-.217.511l.472.264-.832.13.329-.284a.406.406,0,0,0-.212-.059,1.116,1.116,0,0,0-.464.154l-.014.007a1.211,1.211,0,0,1-.511.162h-.017l.2.336-.507.208c-.023-.32-.166-.379-.28-.426-.135-.056-.241-.1-.092-.531a1.231,1.231,0,0,0-.429-.078,2.214,2.214,0,0,0-1.014.341,2.522,2.522,0,0,1-.931.345c.072-.014.074-.076.076-.148a.463.463,0,0,1,.011-.1.783.783,0,0,0-.233-.038c-.367,0-.622.305-.869.6a.946.946,0,0,1,.1-.222A.486.486,0,0,0,100,4.454h-.016a.5.5,0,0,0-.482.24.908.908,0,0,1-.516.363.461.461,0,0,0,.1-.365.243.243,0,0,0-.155-.146.529.529,0,0,1-.243.5c.262-.733.036-.845-.183-.952-.191-.094-.371-.182-.252-.649a1.5,1.5,0,0,1-.289.36c-.266.28-.6.629-.486.965A2.808,2.808,0,0,1,96.206,5l-.241,0h-.013L95.7,5a3.622,3.622,0,0,0-1.163.151.923.923,0,0,1,.132-.14c.1-.093.211-.2.2-.279-.006-.035-.035-.063-.087-.085a1.852,1.852,0,0,0-.355-.035,2.882,2.882,0,0,0-1.362.457,6.025,6.025,0,0,1-.958.438c-.024-.445.261-.47.563-.5.287-.026.584-.052.6-.463a20.058,20.058,0,0,0-3.449.951c-.109-.329-.248-.482-.439-.482a1.072,1.072,0,0,0-.431.147l-.028.014a1.194,1.194,0,0,1-.513.161.669.669,0,0,1-.535-.317.444.444,0,0,1-.083.369.844.844,0,0,1-.633.229.291.291,0,0,0-.094-.361c-.069-.07-.134-.136-.078-.253a1.138,1.138,0,0,1-.785.322.586.586,0,0,1-.438-.16.58.58,0,0,1-.136-.445c-.039.33-.174.375-.3.375a1.135,1.135,0,0,1-.2-.026h-.005a1.248,1.248,0,0,0-.219-.027.353.353,0,0,0-.34.215.633.633,0,0,0-.369-.106,2.012,2.012,0,0,0-.378.05l-.012,0a2.188,2.188,0,0,1-.413.052.921.921,0,0,1-.372-.074.263.263,0,0,1,.01.237c-.059.094-.218.106-.387.118a1.057,1.057,0,0,0-.322.055c.062-.047.088-.092.073-.13-.035-.089-.085-.133-.152-.133a.672.672,0,0,0-.3.142l-.021.014a.738.738,0,0,1-.359.156.22.22,0,0,1-.144-.052.424.424,0,0,1-.065-.271c0-.117,0-.218-.135-.243,0,.249-.421.533-.782.533a.476.476,0,0,1-.408-.192c.1,0,.135-.083.173-.178a.832.832,0,0,1,.068-.142,4.358,4.358,0,0,1-1.673.268c-.187,0-.378,0-.563-.01s-.383-.01-.572-.01a4.28,4.28,0,0,0-1.878.348l.274-.611a.716.716,0,0,0-.413-.2c-.216,0-.31.249-.409.513l-.018.047C74.9,5.746,74.781,6,74.5,6ZM24.809,4.358a2.4,2.4,0,0,1,.344.02,1.556,1.556,0,0,0-.168-.135c-.116-.085-.217-.158-.178-.24H24.8a.081.081,0,0,0-.064.033.434.434,0,0,0-.036.323h.111ZM22.67,1.607a.36.36,0,0,0,.255.136c.162,0,.3-.173.424-.335-.258.009-.467.02-.619.035l.009-.023c0-.008.006-.016.009-.023a.176.176,0,0,1-.08.044l-.027.01.058-.005.032,0c-.014.043-.031.087-.047.131ZM23.04.743a.248.248,0,0,0-.1.026,1.031,1.031,0,0,0-.066.261A.3.3,0,0,1,22.883,1a.256.256,0,0,0,.009-.03A1.766,1.766,0,0,1,23.181.9C23.158.8,23.112.743,23.04.743ZM84.879,5.619l0,0L84.5,5.393a.339.339,0,0,1,.047-.105l.018-.031a.953.953,0,0,1,.314.359ZM15.343,5.2c-.1,0-.144-.009-.155-.031s.011-.054.041-.1a.472.472,0,0,0,.105-.344,1.917,1.917,0,0,0,.163.469l-.014,0Zm82.17-.192c-.028,0-.056,0-.087-.006S97.364,5,97.335,5a.331.331,0,0,0-.053,0c.07-.047.19-.136.2-.221a.483.483,0,0,0,.029.067l.178-.1a.3.3,0,0,1-.048.223A.16.16,0,0,1,97.513,5.007Zm35.828-.262a.746.746,0,0,1-.385-.18.755.755,0,0,0-.223-.128.134.134,0,0,1,.121-.082.568.568,0,0,1,.278.141l.012.009a.543.543,0,0,0,.245.131.091.091,0,0,0,.085-.065l-.023.15A.259.259,0,0,1,133.341,4.745Zm3.339-.267v0a1.631,1.631,0,0,1,.357-1.379c0,.026-.011.055-.018.086a.441.441,0,0,0,0,.323.664.664,0,0,1,.467-.277c.174,0,.333.127.471.377-.053.188-.138.212-.206.212a.526.526,0,0,1-.068-.006.453.453,0,0,0-.062-.006.082.082,0,0,0-.085.052.463.463,0,0,0-.093-.354.206.206,0,0,0-.156-.08.194.194,0,0,0-.066.012,1.82,1.82,0,0,1-.294.584,1.648,1.648,0,0,0-.248.456Zm1.4-.081v0l.142-.612a.148.148,0,0,1,.05-.01.119.119,0,0,1,.1.062.5.5,0,0,1,.018.4l-.31.165Zm-7.914-2.145h0l-.643-.15c.027,0,.055,0,.087,0a.307.307,0,0,0,.236-.076.249.249,0,0,0,.045-.2,1.235,1.235,0,0,0-.023-.129c-.015-.067-.026-.119-.009-.141a.029.029,0,0,1,.024-.01.877.877,0,0,1,.318.187.193.193,0,0,0-.157.093c-.053.11.049.292.123.424Zm-65.7-.293,0,0a.457.457,0,0,1-.186-.292.469.469,0,0,1,.165-.315c.126-.142.256-.289.071-.507.331.2.174.539.047.808a.616.616,0,0,0-.1.3Zm63.054-.148h0c-.122-.084-.171-.136-.173-.186s.069-.123.187-.222c-.006.038.029.085.065.135s.09.123.071.178-.063.072-.149.1ZM73.8,1.66a.61.61,0,0,1-.236-.089,1.09,1.09,0,0,0-.3-.119.265.265,0,0,1,.22-.143.472.472,0,0,1,.371.336A.1.1,0,0,1,73.8,1.66Zm10.628-.026h0l-.081-.583a.186.186,0,0,1,.092-.03c.069,0,.1.063.115.116a.54.54,0,0,1-.125.5Z" transform="translate(0)" fill="#cdd1d5"/>
</svg>
