<?xml version="1.0" encoding="UTF-8"?>
<svg width="292px" height="114px" viewBox="0 0 292 114" version="1.1" xmlns="http://www.w3.org/2000/svg" xmlns:xlink="http://www.w3.org/1999/xlink">
    <!-- Generator: Sketch 52.3 (67297) - http://www.bohemiancoding.com/sketch -->
    <title>header</title>
    <desc>Created with Sketch.</desc>
    <g id="Page-1" stroke="none" stroke-width="1" fill="none" fill-rule="evenodd">
        <g id="v01" transform="translate(-275.000000, -61.000000)">
            <g id="header" transform="translate(275.000000, 61.000000)">
                <path d="M188.120684,47.4691304 C197.855793,45.0212192 208.881847,43.640625 220.562691,43.640625 C260.016427,43.640625 292,59.3911076 292,78.8203125 C292,98.2495174 260.016427,114 220.562691,114 C194.716331,114 172.07589,107.240472 159.533245,97.1153572 L24.8231048,97.1153423 C11.1136826,97.1153423 1.67892e-15,86.0016597 0,72.2922375 C-1.67892e-15,58.5828153 11.1136826,47.4691328 24.8231048,47.4691328 L188.120678,47.4691328 Z" id="Combined-Shape" fill="#E9EBEE"></path>
                <path d="M34.623421,69.1414453 L33.7625905,69.1414453 L33.7625905,68.139736 C33.7625905,64.9256957 31.3737857,62.34375 28.4415816,62.34375 C25.5093774,62.34375 23.1151924,64.9417659 23.1151924,68.139736 L23.1151924,69.1414453 L22.2705025,69.1414453 C21.8184002,69.1439838 21.4484635,69.5005023 21.4311927,69.9503121 L21.4311927,79.4103041 C21.4311832,79.8726957 21.8060955,80.2483662 22.2705025,80.2513113 L34.6449418,80.2513113 C35.1072584,80.2483887 35.4813162,79.8759618 35.4842516,79.4156608 L35.4842516,69.9503121 C35.4667427,69.4921333 35.0838486,69.1323524 34.623421,69.1414453 Z M25.5954605,68.139736 C25.5954605,66.3398735 26.8598054,64.8774851 28.4200608,64.8774851 C29.9803162,64.8774851 31.2392809,66.3398735 31.2392809,68.139736 L31.2392809,69.1414453 L25.5954605,69.1414453 L25.5954605,68.139736 Z" id="Shape" fill="#57C985" fill-rule="nonzero"></path>
                <g id="Group-3" transform="translate(45.541284, 59.671875)">
                    <path d="M12.1904907,9.00456717 C13.1347335,10.0538311 13.6223348,11.4331978 13.5462989,12.8399886 L13.5462989,21.3250551 L10.1944399,21.3250551 L10.1944399,13.8256277 C10.2395816,12.9946906 9.94452297,12.181019 9.37665082,11.5704427 C8.78115515,10.99991 7.9744759,10.7011492 7.14925174,10.7455057 C6.14800812,10.7151811 5.18398613,11.1245733 4.51295815,11.8650631 C3.84624449,12.6438748 3.49856661,13.644111 3.53914357,14.6666349 L3.53914357,21.3250551 L0.214185527,21.3250551 L0.214185527,2.44256818 L3.53914357,2.44256818 L3.53914357,10.3116102 C4.47529681,8.52603228 6.12163526,7.6171731 8.47815892,7.58503269 C9.86179727,7.512649 11.2112246,8.02864775 12.1904907,9.00456717 Z" id="Path" fill="#4DB576"></path>
                    <path d="M26.4641375,20.5001181 C25.4371175,21.1426399 24.2498865,21.4859368 23.0369558,21.4911138 C21.975761,21.5320792 20.9400058,21.1614476 20.1477932,20.4572642 C19.3509,19.6512781 18.9411904,18.5426634 19.0233333,17.4146393 L19.0233333,10.6972951 L17.1079853,10.6972951 L17.1079853,8.27605136 L19.0502343,8.27605136 L19.0502343,4.52633766 L22.3482914,4.52633766 L22.3482914,8.27605136 L26.25431,8.27605136 L26.25431,10.6972951 L22.3429112,10.6972951 L22.3429112,16.8361121 C22.2972221,17.3111572 22.4252164,17.7866656 22.703384,18.1752956 C22.9866881,18.4575777 23.3798063,18.6023972 23.7794222,18.5716939 C24.4577843,18.5329989 25.1199991,18.3503597 25.7216711,18.0360205 L26.4641375,20.5001181 Z" id="Path" fill="#4DB576"></path>
                    <path d="M38.2575162,20.5001181 C37.2304962,21.1426399 36.0432652,21.4859368 34.8303345,21.4911138 C33.7691397,21.5320792 32.7333845,21.1614476 31.9411719,20.4572642 C31.1442787,19.6512781 30.7345691,18.5426634 30.816712,17.4146393 L30.816712,10.6972951 L28.8959838,10.6972951 L28.8959838,8.27605136 L30.8382328,8.27605136 L30.8382328,4.52633766 L34.1362899,4.52633766 L34.1362899,8.27605136 L38.0476887,8.27605136 L38.0476887,10.6972951 L34.1362899,10.6972951 L34.1362899,16.8361121 C34.0906008,17.3111572 34.2185951,17.7866656 34.4967627,18.1752956 C34.7800668,18.4575777 35.173185,18.6023972 35.5728009,18.5716939 C36.251163,18.5329989 36.9133778,18.3503597 37.5150498,18.0360205 L38.2575162,20.5001181 Z" id="Path" fill="#4DB576"></path>
                    <path d="M53.4888369,8.46889378 C54.4684243,9.05439547 55.2583816,9.90784589 55.7646577,10.9276346 C56.3206178,12.0607089 56.5972742,13.3094161 56.5716864,14.5702137 C56.5978583,15.8120888 56.3267577,17.0423302 55.7807983,18.1592254 C55.2811765,19.1652228 54.5002082,20.0060329 53.5318785,20.5804691 C52.5069723,21.173017 51.3380226,21.4732467 50.1531185,21.44826 C49.2213198,21.4635281 48.2992397,21.2578827 47.463023,20.8483058 C46.674083,20.4442967 46.0046301,19.842385 45.520774,19.1020105 L45.520774,26.258607 L42.195816,26.258607 L42.195816,7.71359431 L45.520774,7.71359431 L45.520774,9.95270907 C45.9881685,9.2121722 46.6456737,8.60931299 47.4253617,8.20641382 C48.2605979,7.7940735 49.1833612,7.58827572 50.1154572,7.60645963 C51.298036,7.58083517 52.4649583,7.8791691 53.4888369,8.46889378 Z M52.1222684,17.4360663 C52.8542143,16.6234029 53.2400841,15.5592037 53.1983066,14.4684357 C53.2424174,13.3805252 52.856054,12.3188114 52.1222684,11.5115186 C51.386495,10.7774753 50.3876807,10.3649695 49.3460899,10.3649695 C48.304499,10.3649695 47.3056847,10.7774753 46.5699113,11.5115186 C45.1367184,13.2326415 45.1367184,15.7256568 46.5699113,17.4467797 C47.2885409,18.2123795 48.3050388,18.6304917 49.3568502,18.5931208 C50.4007343,18.6333858 51.4104225,18.2187542 52.1222684,17.4574932 L52.1222684,17.4360663 Z" id="Shape" fill="#4DB576" fill-rule="nonzero"></path>
                    <path d="M66.6918257,10.4937392 C66.0596327,10.2851518 65.399337,10.1731742 64.7334362,10.1616217 C64.2668094,10.1396923 63.8026871,10.241354 63.3883884,10.456242 C63.0614927,10.6379524 62.8672768,10.9893437 62.8880306,11.3615301 C62.8848796,11.7819023 63.1289482,12.1652628 63.5121328,12.3418124 C64.1449446,12.6510043 64.8085323,12.8933787 65.4920431,13.0649714 C66.2936599,13.2972648 67.0790686,13.5817854 67.8431866,13.9166921 C68.4714923,14.2018998 69.0241959,14.6292947 69.4572439,15.1648111 C69.9319084,15.788414 70.1718062,16.5580476 70.1351479,17.3396451 C70.1911926,18.5549345 69.6109447,19.7123978 68.6017935,20.3983401 C67.4576062,21.147261 66.1071109,21.5218034 64.7388163,21.4696869 C63.6874457,21.4699708 62.6428828,21.3017607 61.6452065,20.9715106 C60.7004564,20.678764 59.8254475,20.1976025 59.0734752,19.5573329 L60.2248361,17.2378671 C60.8733566,17.7848658 61.6199941,18.2047223 62.4253342,18.4752727 C63.204969,18.7589481 64.0271836,18.9092717 64.8571805,18.9198816 C65.3661018,18.9440976 65.8725139,18.8351304 66.3259727,18.6038343 C66.6733007,18.4141953 66.8820023,18.0443261 66.8639918,17.6503356 C66.8799289,17.1991469 66.6296209,16.7802955 66.2237491,16.5789889 C65.5608215,16.2496858 64.8670397,15.9859422 64.1523755,15.791549 C63.3852677,15.5749048 62.6338859,15.3064457 61.9034557,14.9880389 C61.3105497,14.7163898 60.7920075,14.3066717 60.391622,13.7934872 C59.9475247,13.1818521 59.7289871,12.4363877 59.7729,11.6829341 C59.7068511,10.4777753 60.2600612,9.32170434 61.2416922,8.6135256 C62.3270085,7.8721081 63.6224586,7.49661989 64.9378834,7.54217882 C65.8482309,7.54028334 66.7541482,7.66836273 67.6279789,7.92250693 C68.4593408,8.1562089 69.2489719,8.51767483 69.968362,8.9938537 L68.757819,11.4097407 C68.1067789,11.0264103 67.4135423,10.7190493 66.6918257,10.4937392 Z" id="Path" fill="#4DB576"></path>
                    <path d="M76.2040034,10.8472836 C76.5398225,11.1943561 76.7203041,11.6619488 76.7043612,12.1436132 C76.7234414,12.6385523 76.5433327,13.1206046 76.2040034,13.4827967 C75.8790276,13.8333567 75.4187003,14.0283867 74.9396585,14.0184701 C74.4665416,14.029957 74.0121988,13.8341293 73.6968344,13.4827967 C73.3630225,13.1236672 73.1834557,12.6488324 73.1964766,12.1596834 C73.1805337,11.678019 73.3610153,11.2104263 73.6968344,10.8633538 C74.0159776,10.5172729 74.4678016,10.3225308 74.9396585,10.3276804 C75.4157088,10.3163393 75.8745883,10.5049234 76.2040034,10.8472836 Z M76.2040034,18.4109918 C76.5398225,18.7580643 76.7203041,19.225657 76.7043612,19.7073214 C76.7234414,20.2022605 76.5433327,20.6843129 76.2040034,21.0465049 C75.8790276,21.397065 75.4187003,21.5920949 74.9396585,21.5821783 C74.4665416,21.5936652 74.0121988,21.3978376 73.6968344,21.0465049 C73.3630225,20.6873755 73.1834557,20.2125406 73.1964766,19.7233916 C73.1805337,19.2417273 73.3610153,18.7741345 73.6968344,18.427062 C74.0159776,18.0809811 74.4678016,17.8862391 74.9396585,17.8913887 C75.4157088,17.8800475 75.8745883,18.0686316 76.2040034,18.4109918 Z" id="Shape" fill="#B1B9C3" fill-rule="nonzero"></path>
                    <polygon id="Path" fill="#B1B9C3" points="86.5124494 0.583781527 89.3262893 0.583781527 81.207581 24.2712587 78.3668402 24.2712587"></polygon>
                    <polygon id="Path" fill="#B1B9C3" points="96.3205376 0.583781527 99.1343775 0.583781527 91.0049089 24.2712587 88.164168 24.2712587"></polygon>
                </g>
                <g id="btn" transform="translate(149.125382, 0.000000)">
                    <ellipse id="Oval" fill="#BBC3CB" cx="70.9908257" cy="78.8203125" rx="52.2385321" ry="23.6015625"></ellipse>
                    <polygon id="Path" fill="#57C985" points="118.764526 74.8125 118.764526 60.5757929 117.340638 59.671875 24.1100917 60.5757929 24.1100917 62.0250091 24.1100917 74.105086"></polygon>
                    <ellipse id="Oval" fill="#57C985" cx="71.4373089" cy="76.59375" rx="47.3272171" ry="21.375"></ellipse>
                    <ellipse id="Oval" fill="#88D9A8" cx="71.4373089" cy="61.453125" rx="47.3272171" ry="21.375"></ellipse>
                    <path d="M61.8843108,62.34525 L68.3978972,62.34525 L68.3978972,71.7743313 C66.804647,72.7450415 65.0762163,73.478674 63.2678998,73.9517587 C61.3894899,74.5010494 59.4434485,74.7902504 57.4850823,74.8111424 C55.046049,74.8434432 52.6344004,74.2989141 50.4502142,73.2227309 C48.4503808,72.2537873 46.7532018,70.7654192 45.5394475,68.9161561 C44.3467909,67.0774821 43.7266591,64.9315691 43.7563715,62.7459739 C43.7316139,60.5639646 44.3717276,58.4253149 45.5930372,56.6095876 C46.8609962,54.7453511 48.6200316,53.26094 50.6791884,52.3174968 C52.9648126,51.257922 55.4638578,50.7279338 57.9868769,50.7677093 C59.9672851,50.7767521 61.9332118,51.1028198 63.8086688,51.733309 C65.6055878,52.2950449 67.2832709,53.1787113 68.7584098,54.3404283 L64.4663607,59.0284149 C63.5594379,58.2375798 62.5187716,57.6116015 61.3922598,57.1792915 C60.3006905,56.7332821 59.133407,56.4973361 57.9527744,56.4840596 C56.8009855,56.4686998 55.6653252,56.7533924 54.6594428,57.3096474 C53.6966051,57.8405885 52.8981918,58.6218091 52.3502132,59.5691508 C51.22296,61.5620832 51.22296,63.9926285 52.3502132,65.985561 C52.9084036,66.9433223 53.7204797,67.7314018 54.6984171,68.2643763 C55.7117291,68.8196996 56.8533938,69.1042139 58.0112359,69.0899641 C59.349946,69.0293192 60.6624329,68.7008624 61.8696954,68.1243643 L61.8843108,62.34525 Z" id="Path" fill="#4DB576"></path>
                    <path d="M92.3596741,52.3164976 C94.3740501,53.2650409 96.0901913,54.7426565 97.3231948,56.5901408 C98.520638,58.4078424 99.145722,60.5398888 99.1184076,62.7132817 C99.1453816,64.9062475 98.5208422,67.058276 97.3231948,68.8991992 C96.0993388,70.7725538 94.3825176,72.275809 92.3596741,73.2452771 C87.8653984,75.3349076 82.6717689,75.3349076 78.1774931,73.2452771 C76.1624587,72.2718568 74.4528868,70.7690731 73.2333801,68.8991992 C72.0357327,67.058276 71.4111933,64.9062475 71.4381673,62.7132817 C71.4108529,60.5398888 72.0359369,58.4078424 73.2333801,56.5901408 C74.462008,54.7461374 76.1709041,53.2689842 78.1774931,52.3164976 C82.6766076,50.2486675 87.8605597,50.2486675 92.3596741,52.3164976 Z M82.2870748,57.2903423 C81.3414685,57.8322509 80.555181,58.611489 80.0066694,59.5503028 C79.4373096,60.5158996 79.1437188,61.6179187 79.1575823,62.7374266 C79.1452225,63.8613254 79.4386173,64.9676145 80.0066694,65.9390373 C80.5530063,66.8883235 81.3391115,67.6790334 82.2870748,68.2328006 C83.2227948,68.788192 84.293137,69.0787227 85.3826039,69.0730424 C86.4507666,69.0792969 87.4994214,68.7882668 88.410206,68.2328006 C89.3316711,67.6804071 90.0886492,66.8936735 90.6032767,65.9535242 C91.1412561,64.9671523 91.4152737,63.8596375 91.3989927,62.7374266 C91.4133219,61.6246509 91.1392705,60.5269784 90.6032767,59.5503028 C90.0944672,58.6173304 89.3439187,57.8369841 88.4296137,57.2903423 C87.5118824,56.7401958 86.4587492,56.4543362 85.3874558,56.4645875 C84.2983036,56.458229 83.2274665,56.7434355 82.2870748,57.2903423 Z" id="Shape" fill="#4DB576" fill-rule="nonzero"></path>
                    <path d="M99.9525255,23.0153313 C96.303386,19.7442411 92.1489064,12.7999179 92.1489064,12.7999179 C90.2927529,8.28316524 87.902105,5.51720598 86.0945419,3.92825066 L86.0945419,2.41776226 C86.0945419,1.08246904 85.0220369,0 83.6990349,0 L63.2619105,0 C61.9389085,0 60.8664035,1.08246904 60.8664035,2.41776226 L60.8664035,4.86985381 C56.7848094,10.2644552 56.9014264,18.4691535 57.3873305,24.8494957 L57.69345,28.9346802 C58.7089895,34.2459105 63.7235193,32.9168769 63.7235193,32.9168769 L64.1219606,32.7403263 C64.1802691,32.8433142 64.2385776,32.9413978 64.2968861,33.0296731 C64.8523218,33.8036536 65.7455814,34.2571759 66.6923931,34.2459105 L71.6097421,34.2459105 C72.1194418,35.019936 72.9824241,35.4812707 73.9032092,35.4719563 L78.6650689,35.4719563 L78.6650689,47.732414 C78.6650689,52.3276336 82.3142084,51.616527 82.3142084,51.616527 C85.7592681,51.616527 85.6572283,47.732414 85.6572283,47.732414 L85.6572283,27.0956116 C85.6572283,22.9074392 86.6727677,22.2944163 86.6727677,22.2944163 C87.9895677,21.990357 90.3219072,24.133485 90.3219072,24.133485 C91.4388017,26.0307718 93.4076454,27.2534831 95.5891071,27.4045751 C100.861166,27.9195143 99.9525255,23.0153313 99.9525255,23.0153313 Z" id="Path" fill="#F4D1C1"></path>
                </g>
            </g>
        </g>
    </g>
</svg>