<?xml version="1.0" encoding="utf-8"?>
<!-- Generator: Adobe Illustrator 25.2.3, SVG Export Plug-In . SVG Version: 6.00 Build 0)  -->
<svg version="1.1" id="Layer_1" xmlns="http://www.w3.org/2000/svg" xmlns:xlink="http://www.w3.org/1999/xlink" x="0px" y="0px"
	 width="178.017px" height="80px" viewBox="0 0 178.017 80" style="enable-background:new 0 0 178.017 80;" xml:space="preserve">
<style type="text/css">
	.st0{opacity:0.1978;enable-background:new    ;}
	.st1{fill:#979797;}
	.st2{opacity:0.3001;fill:#565E66;enable-background:new    ;}
</style>
<g class="st0">
	<path class="st1" d="M174.367,80H167.7v-3.333h6.667V80z M161.033,80h-6.667v-3.333h6.667V80z M147.7,80h-6.667v-3.333h6.667V80z
		 M134.367,80H127.7v-3.333h6.667V80z M121.033,80h-6.667v-3.333h6.667V80z M107.7,80h-6.667v-3.333h6.667V80z M94.367,80H87.7
		v-3.333h6.667V80z M81.033,80h-6.667v-3.333h6.667V80z M67.7,80h-6.667v-3.333H67.7V80z M54.367,80H47.7v-3.333h6.667V80z
		 M41.033,80h-6.667v-3.333h6.667V80z M27.7,80h-6.667v-3.333H27.7V80z M14.367,80H7.7v-3.333h6.667V80z M3.333,77.7H0v-6.667h3.333
		V77.7z M178.017,73.649h-3.333v-6.667h3.333V73.649z M3.333,64.367H0V57.7h3.333V64.367z M178.017,60.316h-3.333v-6.667h3.333
		V60.316z M3.333,51.033H0v-6.667h3.333V51.033z M178.017,46.983h-3.333v-6.667h3.333V46.983z M3.333,37.699H0v-6.667h3.333V37.699z
		 M178.017,33.65h-3.333v-6.667h3.333V33.65z M3.333,24.366H0v-6.667h3.333V24.366z M178.017,20.317h-3.333V13.65h3.333V20.317z
		 M3.333,11.033H0V4.366h3.333V11.033z M178.017,6.983h-3.333V1.667H175V0h3.017V6.983z M168.333,3.333h-6.667V0h6.667V3.333z
		 M155,3.333h-6.667V0H155V3.333z M141.667,3.333H135V0h6.667V3.333z M128.333,3.333h-6.667V0h6.667V3.333z M115,3.333h-6.667V0H115
		V3.333z M101.667,3.333H95V0h6.667V3.333z M88.333,3.333h-6.667V0h6.667V3.333z M75,3.333h-6.667V0H75V3.333z M61.667,3.333H55V0
		h6.667V3.333z M48.333,3.333h-6.667V0h6.667V3.333z M35,3.333h-6.667V0H35V3.333z M21.667,3.333H15V0h6.667V3.333z M8.333,3.333
		H1.667V0h6.667V3.333z"/>
</g>
<path class="st2" d="M56.696,35.813v6.222l-5.066-6.222h-1.405v9.187h1.693V38.78l5.066,6.221h1.404v-9.187H56.696z M63.843,45.092
	c2.179,0,3.741-1.497,3.741-3.597c0-2.1-1.562-3.583-3.741-3.583c-2.153,0-3.728,1.483-3.728,3.583
	C60.116,43.596,61.691,45.092,63.843,45.092z M63.843,43.688c-1.181,0-2.073-0.853-2.073-2.192s0.892-2.192,2.073-2.192
	c1.194,0,2.087,0.853,2.087,2.192C65.93,42.835,65.037,43.688,63.843,43.688z M75.785,45.132c2.52,0,3.714-1.26,3.714-2.73
	c0-3.373-5.447-2.1-5.447-4.056c0-0.696,0.577-1.247,1.995-1.247c0.801,0,1.706,0.237,2.533,0.722l0.538-1.326
	c-0.801-0.525-1.956-0.813-3.058-0.813c-2.52,0-3.701,1.26-3.701,2.743c0,3.413,5.46,2.113,5.46,4.095
	c0,0.683-0.604,1.194-2.034,1.194c-1.128,0-2.297-0.42-3.032-1.011l-0.591,1.326C72.924,44.686,74.355,45.132,75.785,45.132z
	 M81.861,36.837c0.617,0,1.05-0.446,1.05-1.024c0-0.538-0.446-0.945-1.05-0.945c-0.603,0-1.05,0.433-1.05,0.984
	C80.811,36.403,81.257,36.837,81.861,36.837z M81.034,45.001h1.641v-7.008h-1.641V45.001z M88.582,43.452
	c-0.249,0.197-0.577,0.289-0.919,0.289c-0.63,0-0.971-0.368-0.971-1.05v-3.333h1.877v-1.312h-1.877v-1.602h-1.641v1.602h-1.155
	v1.312h1.155v3.373c0,1.549,0.879,2.362,2.415,2.362c0.591,0,1.182-0.158,1.575-0.473L88.582,43.452z M96.749,41.536
	c0-2.192-1.497-3.623-3.544-3.623c-2.087,0-3.622,1.497-3.622,3.583c0,2.087,1.522,3.597,3.872,3.597
	c1.207,0,2.192-0.393,2.822-1.142l-0.879-1.011c-0.499,0.512-1.116,0.761-1.903,0.761c-1.221,0-2.074-0.656-2.271-1.68h5.499
	C96.736,41.863,96.749,41.667,96.749,41.536z M93.205,39.226c1.077,0,1.851,0.696,1.982,1.707H91.21
	C91.368,39.908,92.142,39.226,93.205,39.226z M104.957,45.132c2.52,0,3.714-1.26,3.714-2.73c0-3.373-5.447-2.1-5.447-4.056
	c0-0.696,0.577-1.247,1.995-1.247c0.801,0,1.707,0.237,2.533,0.722l0.538-1.326c-0.801-0.525-1.956-0.813-3.058-0.813
	c-2.52,0-3.701,1.26-3.701,2.743c0,3.413,5.46,2.113,5.46,4.095c0,0.683-0.604,1.194-2.034,1.194c-1.128,0-2.297-0.42-3.032-1.011
	l-0.591,1.326C102.097,44.686,103.527,45.132,104.957,45.132z M116.795,41.536c0-2.192-1.497-3.623-3.544-3.623
	c-2.087,0-3.622,1.497-3.622,3.583c0,2.087,1.522,3.597,3.872,3.597c1.208,0,2.192-0.393,2.822-1.142l-0.879-1.011
	c-0.498,0.512-1.116,0.761-1.903,0.761c-1.221,0-2.073-0.656-2.271-1.68h5.499C116.783,41.863,116.795,41.667,116.795,41.536z
	 M113.252,39.226c1.076,0,1.851,0.696,1.982,1.707h-3.977C111.414,39.908,112.188,39.226,113.252,39.226z M120.857,37.913
	c-1.129,0-2.218,0.289-2.967,0.867l0.643,1.194c0.525-0.433,1.339-0.696,2.126-0.696c1.168,0,1.746,0.564,1.746,1.522v0.105h-1.811
	c-2.126,0-2.914,0.919-2.914,2.087c0,1.221,1.011,2.1,2.612,2.1c1.05,0,1.811-0.342,2.205-0.945v0.853h1.549v-4.108
	C124.046,38.871,122.878,37.913,120.857,37.913z M120.633,43.898c-0.84,0-1.339-0.381-1.339-0.972c0-0.512,0.302-0.932,1.418-0.932
	h1.693v0.814C122.129,43.531,121.434,43.898,120.633,43.898z M126.152,45.001h1.641v-9.739h-1.641V45.001z"/>
</svg>
