<svg width="168" height="90" viewBox="0 0 168 90" fill="none" xmlns="http://www.w3.org/2000/svg">
<path fill-rule="evenodd" clip-rule="evenodd" d="M31.4844 67.831H139.419C154.986 67.831 167.606 55.2425 167.606 39.7138C167.606 24.1851 154.986 11.5966 139.419 11.5966H31.4844C15.9173 11.5966 3.29773 24.1851 3.29773 39.7138C3.29773 55.2425 15.9173 67.831 31.4844 67.831ZM5.5118 39.719C5.5118 25.41 17.1401 13.8104 31.4844 13.8104H139.419C153.763 13.8104 165.392 25.41 165.392 39.719C165.392 54.0279 153.763 65.6276 139.419 65.6276H31.4844C17.1401 65.6276 5.5118 54.0279 5.5118 39.719Z" fill="#ABB5BF"/>
<path fill-rule="evenodd" clip-rule="evenodd" d="M119.464 39.8382C120.652 37.0019 123.437 35.1599 126.519 35.1724C130.713 35.1838 134.105 38.5817 134.099 42.7655C134.099 45.8395 132.241 48.6101 129.393 49.7836C126.545 50.957 123.269 50.3016 121.094 48.1236C118.92 45.9455 118.276 42.6745 119.464 39.8382ZM122.909 44.2509C123.516 45.704 124.941 46.649 126.519 46.6448C128.668 46.6391 130.407 44.8993 130.407 42.7552C130.407 41.181 129.456 39.7621 127.998 39.1606C126.54 38.5592 124.862 38.8939 123.747 40.0085C122.633 41.123 122.302 42.7977 122.909 44.2509Z" fill="#1C1C1C"/>
<path fill-rule="evenodd" clip-rule="evenodd" d="M84.6269 39.8351C85.8116 36.9984 88.5935 35.1537 91.6741 35.1621V35.1724C95.8682 35.1781 99.2652 38.5714 99.2652 42.7552C99.2652 45.8282 97.4084 48.5982 94.5615 49.7723C91.7145 50.9463 88.4389 50.2929 86.2636 48.117C84.0883 45.9411 83.4422 42.6717 84.6269 39.8351ZM88.0642 44.2509C88.671 45.704 90.096 46.649 91.6741 46.6448C93.8235 46.6391 95.563 44.8993 95.563 42.7552C95.563 41.181 94.6118 39.7621 93.1535 39.1606C91.6952 38.5592 90.0172 38.8939 88.9028 40.0085C87.7885 41.123 87.4574 42.7977 88.0642 44.2509Z" fill="#1C1C1C"/>
<path fill-rule="evenodd" clip-rule="evenodd" d="M118.399 46.8517C117.911 46.9946 117.411 47.0882 116.905 47.131C115.609 47.131 115.329 46.6862 115.329 45.4448V38.431H118.44V35.4931H115.329V31.3552H111.844L111.108 35.4931H108.474C106.509 35.5667 104.769 36.7806 104.025 38.5965L102.812 35.4931H100.302V50.069H104.585V43.7276C104.585 40.531 106.473 38.4931 108.733 38.431H111.077V45.6724C111.077 49.0759 112.819 50.3483 115.671 50.3483C116.782 50.3483 117.886 50.1666 118.938 49.8103L118.399 46.8517Z" fill="#1C1C1C"/>
<path fill-rule="evenodd" clip-rule="evenodd" d="M139.243 40.1069V50.0586H135.084V35.4931H137.604L138.455 37.7172" fill="#1C1C1C"/>
<path fill-rule="evenodd" clip-rule="evenodd" d="M138.434 37.7379C139.65 36.191 141.484 35.2534 143.453 35.1724C146.917 35.1724 148.348 37.9345 148.348 40.5V50.069H144.065V40.6035C144.053 40.0546 143.813 39.5354 143.402 39.1703C142.991 38.8053 142.446 38.6274 141.898 38.6793C140.849 38.7366 139.88 39.2559 139.253 40.0966" fill="#1C1C1C"/>
<path fill-rule="evenodd" clip-rule="evenodd" d="M67.397 30.2173H72.1673L78.711 42.6931V30.2173H82.6518V50.069H78.3377L71.3481 36.3517V50.069H67.397V30.2173V30.2173Z" fill="#1C1C1C"/>
<path fill-rule="evenodd" clip-rule="evenodd" d="M3.20213 51.396C7.93781 62.7269 19.0535 70.0928 31.36 70.0552C48.1163 70.0038 61.6727 56.4392 61.6726 39.7241C61.6725 27.4479 54.2542 16.3823 42.8809 11.6931C31.5075 7.00394 18.4221 9.61605 9.73341 18.31C1.04476 27.0039 -1.53355 40.0651 3.20213 51.396ZM12.2053 31.8095C15.411 24.0703 22.9656 19.0115 31.36 18.9827C36.8619 18.9711 42.1393 21.158 46.0133 25.0552C54.1319 33.1309 54.1505 46.2428 46.0548 54.3414C37.9591 62.4399 24.8149 62.4585 16.6963 54.3827C10.7707 48.4514 8.99949 39.5486 12.2053 31.8095Z" fill="#FCC200"/>
<rect x="64.3793" y="4.71725" width="2.36444" height="2.36897" fill="#FCC200"/>
<rect x="64.3793" width="2.36444" height="2.36897" fill="#FCC200"/>
<rect x="57.7318" y="7.06552" width="2.20889" height="2.3069" fill="#FCC200"/>
<rect x="53.3556" y="11.5966" width="2.22963" height="2.21379" fill="#1C1C1C"/>
<rect x="59.9408" y="9.37241" width="2.47852" height="2.22414" fill="#1C1C1C"/>
<rect x="51.1364" y="9.47586" width="2.21926" height="2.12069" fill="#1C1C1C"/>
<rect x="57.7318" y="11.5966" width="2.20889" height="2.21379" fill="#1C1C1C"/>
<rect x="62.0459" y="2.36896" width="2.3437" height="2.34828" fill="#1C1C1C"/>
<rect x="57.7318" y="4.71725" width="4.31407" height="2.34828" fill="#1C1C1C"/>
<rect x="55.5852" y="7.06552" width="2.14667" height="4.53103" fill="#1C1C1C"/>
<path fill-rule="evenodd" clip-rule="evenodd" d="M55.5852 13.8103V16.0345H53.3556V13.8103H49.6637V15.4138H47.7038V17.3896H49.9126V19.5931H47.7038V17.3896H45.3289V20.8448H43.1097V23.0483H41.6371V25.2621H40.0193C37.1091 29.9507 34.5143 34.8269 32.2519 39.8586C27.2845 32.9276 23.4163 30.1862 20.3778 29.1931C18.7393 28.6965 16.7586 30.4862 19.486 33.331C25.7082 40.2207 27.7097 45.9207 29.6178 50.4724C30.6549 52.8724 35.1349 53.2448 36.0371 50.8034C38.0729 45.2608 40.7677 39.9817 44.0637 35.0793V32.5759H45.8267V30.3517H47.7038V27.7759H49.923V25.2931H47.7038V23.0276H49.9438V25.2931H52.1319V23.0483H53.8949V20.3483H55.8756V18.4862H57.7837V13.8103H55.5852Z" fill="#1C1C1C"/>
<path fill-rule="evenodd" clip-rule="evenodd" d="M103.061 78.8896C102.341 79.7597 101.971 80.866 102.024 81.9931L102.138 82.0345C102.085 83.1514 102.43 84.251 103.113 85.1379C103.756 85.9217 104.732 86.3584 105.747 86.3172C106.099 86.3175 106.449 86.2616 106.784 86.1517C107.056 86.0696 107.315 85.9476 107.551 85.7896C107.737 85.6577 107.905 85.5011 108.049 85.3241C108.15 85.21 108.244 85.089 108.329 84.9621L108.422 84.7965V85.3448V86.1207H109.916V74.6896H108.339V78.4862C108.327 78.6687 108.327 78.8519 108.339 79.0345L108.277 78.9C108.196 78.7828 108.102 78.6752 107.997 78.5793C107.851 78.4378 107.695 78.3065 107.53 78.1862C107.312 78.0396 107.07 77.9312 106.815 77.8655C106.478 77.7701 106.128 77.7248 105.778 77.731C104.742 77.6826 103.741 78.1094 103.061 78.8896ZM104.274 84.1552C103.82 83.5397 103.593 82.7871 103.631 82.0241L103.621 81.9931C103.58 81.2199 103.823 80.4584 104.305 79.8517C104.716 79.348 105.334 79.0586 105.985 79.0655C106.669 79.0375 107.317 79.3669 107.696 79.9345C108.115 80.5419 108.329 81.2665 108.308 82.0034C108.369 82.8011 108.124 83.5921 107.624 84.2172C107.198 84.6945 106.584 84.9627 105.944 84.9517C105.293 84.9623 104.674 84.6674 104.274 84.1552Z" fill="#0073C2"/>
<path fill-rule="evenodd" clip-rule="evenodd" d="M112.767 74.6896H111.181V76.2931H112.767V74.6896ZM112.757 77.9276H111.181V86.1207H112.757V77.9276Z" fill="#0073C2"/>
<path fill-rule="evenodd" clip-rule="evenodd" d="M117.361 88.1586C116.577 88.1683 115.803 87.9797 115.111 87.6103L114.572 88.8517C115.436 89.3012 116.397 89.5354 117.372 89.5345C117.887 89.5391 118.401 89.4694 118.896 89.3276C119.368 89.1892 119.814 88.9723 120.213 88.6862C120.625 88.3814 120.95 87.975 121.157 87.5069C121.4 86.9674 121.52 86.381 121.51 85.7896V77.9379H120.006V78.6931C120 78.7792 120 78.8656 120.006 78.9517L119.923 78.8379C119.855 78.7205 119.767 78.6155 119.664 78.5276C119.517 78.3957 119.361 78.2747 119.197 78.1655C118.967 78.0211 118.715 77.9162 118.45 77.8552C118.111 77.7695 117.763 77.7277 117.413 77.731C116.409 77.6831 115.439 78.1036 114.79 78.869C114.127 79.7095 113.788 80.7593 113.835 81.8276C113.807 82.9196 114.176 83.985 114.873 84.8276C115.528 85.6273 116.524 86.072 117.558 86.0276C118.546 86.0926 119.485 85.5961 119.985 84.7448V85.2621V85.8621C120.032 86.5276 119.754 87.1746 119.238 87.6C118.695 87.9944 118.033 88.1915 117.361 88.1586ZM117.856 84.6622C118.447 84.6728 119.013 84.432 119.415 84C119.88 83.3835 120.098 82.6164 120.027 81.8483C120.027 80.0138 119.256 79.0965 117.714 79.0965C117.08 79.0636 116.469 79.3322 116.065 79.8207C115.641 80.3933 115.432 81.0962 115.474 81.8069C115.44 82.5502 115.668 83.2819 116.117 83.8759C116.534 84.4045 117.183 84.6978 117.856 84.6622Z" fill="#0073C2"/>
<path fill-rule="evenodd" clip-rule="evenodd" d="M124.444 74.6896H122.858V76.2931H124.444V74.6896ZM124.444 77.9276H122.858L122.879 86.1207H124.444V77.9276Z" fill="#0073C2"/>
<path fill-rule="evenodd" clip-rule="evenodd" d="M125.585 82.0242C125.541 80.8627 125.989 79.7364 126.819 78.9207C127.645 78.1054 128.769 77.6609 129.93 77.6897C130.504 77.6836 131.074 77.7854 131.61 77.9897C132.024 78.1272 132.407 78.3413 132.741 78.6207L133.052 78.9104L132.305 80.0173L132.025 79.7586C131.785 79.5854 131.523 79.4429 131.247 79.3345C130.869 79.1662 130.459 79.0782 130.044 79.0759C129.267 79.045 128.512 79.346 127.97 79.9035C127.434 80.4573 127.143 81.2026 127.162 81.9724C127.149 82.7432 127.443 83.4874 127.981 84.0414C128.523 84.5994 129.276 84.9035 130.055 84.8793C130.87 84.8596 131.655 84.5682 132.284 84.0517L132.575 83.7724L133.207 84.9207L133.073 85.0552C132.76 85.3372 132.411 85.5772 132.036 85.769C131.742 85.904 131.437 86.0114 131.123 86.0897C130.744 86.1876 130.353 86.2363 129.962 86.2345C128.803 86.2664 127.681 85.8299 126.85 85.0242C126.02 84.2085 125.572 83.0822 125.616 81.9207" fill="#0073C2"/>
<path fill-rule="evenodd" clip-rule="evenodd" d="M134.597 78.9103C133.806 79.7463 133.387 80.8654 133.436 82.0138H133.55C133.505 83.171 133.948 84.2939 134.772 85.1098C135.596 85.9257 136.725 86.3599 137.884 86.3069C138.467 86.3082 139.044 86.1994 139.585 85.9862C139.948 85.8515 140.296 85.6781 140.622 85.469C140.757 85.3702 140.885 85.2631 141.006 85.1483L140.353 84L140.062 84.2483C139.784 84.443 139.48 84.5995 139.16 84.7138C138.764 84.8726 138.342 84.9534 137.916 84.9517C137.2 84.9695 136.504 84.7184 135.966 84.2483C135.412 83.7317 135.1 83.0079 135.105 82.2517H141.078V81.569C141.116 80.5669 140.78 79.5865 140.135 78.8172C139.478 78.0795 138.52 77.6799 137.532 77.731C136.431 77.6966 135.366 78.1245 134.597 78.9103ZM139.481 81.0621H135.105C135.179 80.4652 135.47 79.9163 135.924 79.5207C136.366 79.1537 136.926 78.9589 137.501 78.9724C138.018 78.9576 138.519 79.1515 138.89 79.5103C139.286 79.9285 139.499 80.487 139.481 81.0621Z" fill="#0073C2"/>
<path fill-rule="evenodd" clip-rule="evenodd" d="M142.209 86.1207V77.9276H143.733V79.3552V79.9759V79.9759C143.909 79.3793 144.25 78.8448 144.718 78.4345C145.16 78.0407 145.734 77.8266 146.326 77.8345H146.73V79.3862C146.579 79.3687 146.426 79.3687 146.274 79.3862C145.764 79.3876 145.271 79.571 144.884 79.9035C144.45 80.2722 144.136 80.7622 143.982 81.3104C143.844 81.7876 143.778 82.2827 143.785 82.7793V86.1311L142.209 86.1207Z" fill="#0073C2"/>
<path fill-rule="evenodd" clip-rule="evenodd" d="M148.732 83.1207V79.3035H147.695V78.0414H148.815V75.6724H150.339V78.0414H152.31V79.3035H150.339V82.9448C150.335 83.2231 150.381 83.4999 150.474 83.7621C150.54 83.9605 150.646 84.1434 150.785 84.3C150.909 84.4308 151.057 84.5363 151.221 84.6104C151.365 84.6795 151.519 84.7282 151.677 84.7552C151.815 84.7662 151.954 84.7662 152.092 84.7552H152.465V86.1517C152.282 86.1645 152.099 86.1645 151.916 86.1517C151.667 86.1689 151.417 86.1689 151.169 86.1517C150.891 86.0921 150.622 85.9946 150.37 85.8621C150.079 85.7417 149.812 85.57 149.582 85.3552C149.33 85.0991 149.136 84.7922 149.012 84.4552C148.845 84.0195 148.764 83.5559 148.773 83.0897" fill="#0073C2"/>
<path fill-rule="evenodd" clip-rule="evenodd" d="M152.134 75.8823C152.12 75.2281 152.639 74.6861 153.295 74.669L153.336 74.6586C153.652 74.6586 153.954 74.7843 154.176 75.0077C154.398 75.2311 154.521 75.5337 154.519 75.8483C154.524 76.5025 153.999 77.0384 153.343 77.0478C152.687 77.0571 152.147 76.5364 152.134 75.8823ZM152.341 75.8586C152.341 76.3843 152.768 76.8104 153.295 76.8104C153.822 76.8104 154.249 76.3843 154.249 75.8586C154.249 75.333 153.822 74.9069 153.295 74.9069C152.768 74.9069 152.341 75.333 152.341 75.8586Z" fill="#0073C2"/>
<path fill-rule="evenodd" clip-rule="evenodd" d="M152.88 75.1965V76.5103L153.036 76.5517V75.9621H153.316L153.596 76.4793H153.803L153.523 75.9724V75.9103C153.596 75.8878 153.658 75.8401 153.699 75.7759C153.741 75.7111 153.763 75.6355 153.761 75.5586C153.763 75.4783 153.742 75.3993 153.699 75.331C153.662 75.2681 153.603 75.2204 153.533 75.1965C153.451 75.1827 153.367 75.1827 153.284 75.1965H152.88ZM153.326 75.8276H153.067L153.056 75.3828H153.274C153.332 75.3698 153.392 75.3698 153.45 75.3828C153.524 75.4242 153.565 75.506 153.554 75.5896C153.558 75.6543 153.536 75.7178 153.492 75.7655C153.447 75.8077 153.387 75.83 153.326 75.8276Z" fill="#0073C2"/>
<path fill-rule="evenodd" clip-rule="evenodd" d="M160.979 11.6069V12.3104H159.942V15.8069H159.133V12.3104H158.117V11.6069H160.979V11.6069Z" fill="#ABB5BF"/>
<path fill-rule="evenodd" clip-rule="evenodd" d="M161.56 15.8069V11.6069H162.659L163.385 14.3586L164.132 11.6069H165.242V15.8069H164.567V12.5172H164.547L163.707 15.8069H163.105L162.255 12.5172H162.234V15.8069H161.56V15.8069Z" fill="#ABB5BF"/>
<path fill-rule="evenodd" clip-rule="evenodd" d="M26.3719 85.2104C26.9726 84.3398 27.2713 83.2971 27.2223 82.2414V82.1793C27.2976 81.0788 26.9979 79.9852 26.3719 79.0759C25.8302 78.3571 24.9706 77.9476 24.0697 77.9793C23.1681 77.9332 22.2981 78.3171 21.726 79.0138L21.6637 78.1138H20.3986V89.2966H21.7778V85.4069C22.3733 86.0424 23.2196 86.3831 24.0904 86.3379C24.9921 86.3665 25.8484 85.9433 26.3719 85.2104ZM25.2519 79.9241C25.6722 80.5644 25.8757 81.3221 25.8326 82.0862H25.843C25.8978 82.9082 25.6909 83.7264 25.2519 84.4241C24.8914 84.9327 24.2998 85.2278 23.6756 85.2104C22.8829 85.2337 22.1462 84.804 21.7778 84.1035V80.2448C22.1401 79.5471 22.8673 79.1142 23.6549 79.1276C24.2878 79.1074 24.8883 79.4069 25.2519 79.9241Z" fill="#707D87"/>
<path fill-rule="evenodd" clip-rule="evenodd" d="M29.037 79.9448C28.699 80.6085 28.5214 81.3418 28.5185 82.0862L28.5081 82.231C28.4611 83.3321 28.8313 84.4106 29.5452 85.2517C30.2189 86.0086 31.1963 86.4259 32.2104 86.3897C32.8905 86.4003 33.5596 86.2173 34.1393 85.8621C34.7333 85.493 35.2001 84.9515 35.477 84.3104C35.781 83.663 35.9369 82.9563 35.9333 82.2414V82.1483C35.9836 81.0404 35.6133 79.9544 34.8963 79.1069C34.2225 78.35 33.2452 77.9327 32.2311 77.969C31.5622 77.9589 30.9041 78.1382 30.3333 78.4862C29.7702 78.8387 29.3203 79.3449 29.037 79.9448ZM30.5407 84.4035C30.0974 83.7722 29.8784 83.0111 29.9185 82.2414L29.9081 82.2517C29.8567 81.4276 30.0791 80.6095 30.5407 79.9241C30.9223 79.398 31.5388 79.0925 32.1896 79.1069C32.8525 79.0881 33.4816 79.398 33.8696 79.9345C34.3144 80.5616 34.537 81.3188 34.5022 82.0862C34.5513 82.9054 34.333 83.7184 33.88 84.4035C33.4891 84.9326 32.8693 85.245 32.2104 85.245C31.5514 85.245 30.9317 84.9326 30.5407 84.4035Z" fill="#707D87"/>
<path fill-rule="evenodd" clip-rule="evenodd" d="M44.6859 84.2897L46.2415 78.1138H47.6207L45.2667 86.1931H44.1467L42.1867 80.069L40.2785 86.1931H39.1585L36.8148 78.1138H38.1837L39.7704 84.1552L41.6578 78.1138H42.7674L44.6859 84.2897V84.2897Z" fill="#707D87"/>
<path fill-rule="evenodd" clip-rule="evenodd" d="M49.6223 85.2828C50.3268 85.9904 51.2993 86.3664 52.2978 86.3172V86.3586C53.5225 86.4263 54.6884 85.829 55.3467 84.7965L54.4963 84.1345C54.2566 84.4541 53.9573 84.7245 53.6149 84.931C53.2346 85.1408 52.8047 85.2445 52.3704 85.231C51.7227 85.2482 51.1004 84.9794 50.6697 84.4965C50.208 83.9586 49.9607 83.2701 49.9749 82.5621H55.4297V81.9828C55.5001 80.9215 55.1915 79.8697 54.5586 79.0138C53.9471 78.3098 53.0435 77.9279 52.1112 77.9793C51.4764 77.979 50.8557 78.1662 50.3274 78.5172C49.7697 78.8819 49.3245 79.3941 49.0415 79.9965C48.7263 80.6695 48.5702 81.4056 48.5852 82.1483V82.3965C48.5333 83.4578 48.9063 84.4961 49.6223 85.2828ZM50.7215 79.7069C51.0779 79.3113 51.5884 79.0888 52.1215 79.0965V79.0759C52.6452 79.0521 53.1518 79.2649 53.5008 79.6552C53.869 80.1282 54.0663 80.7114 54.0608 81.3103V81.4138H50.0163C50.0643 80.7847 50.3112 80.187 50.7215 79.7069Z" fill="#707D87"/>
<path fill-rule="evenodd" clip-rule="evenodd" d="M60.8741 79.3552C60.6478 79.3191 60.4189 79.3018 60.1897 79.3035C59.3844 79.2367 58.6319 79.709 58.3437 80.4621V86.1931H56.9645V78.1138H58.3126V79.0448C58.7177 78.3742 59.4573 77.9775 60.2415 78.0103C60.4506 77.9998 60.6595 78.0351 60.8534 78.1138L60.8741 79.3552Z" fill="#707D87"/>
<path fill-rule="evenodd" clip-rule="evenodd" d="M62.7408 85.2828C63.4453 85.9904 64.4178 86.3664 65.4163 86.3172L65.3956 86.3897C66.6203 86.4573 67.7862 85.86 68.4445 84.8276L67.6252 84.1138C67.3824 84.4344 67.0796 84.7049 66.7334 84.9103C66.3533 85.1206 65.9233 85.2243 65.4889 85.2104C64.8412 85.2275 64.2189 84.9587 63.7882 84.4759C63.3248 83.9389 63.0773 83.2497 63.0934 82.5414H68.6104V81.9621C68.6809 80.9008 68.3723 79.849 67.7393 78.9931C67.1269 78.2905 66.2239 77.9088 65.2919 77.9586C64.6571 77.9583 64.0365 78.1455 63.5082 78.4966C62.9504 78.8613 62.5052 79.3734 62.2223 79.9759C61.8825 80.6499 61.7049 81.3938 61.7038 82.1483V82.3966C61.6518 83.4578 62.0249 84.4961 62.7408 85.2828ZM63.8401 79.7069C64.1965 79.3113 64.7069 79.0888 65.2401 79.0966V79.0759C65.764 79.0506 66.2712 79.2637 66.6193 79.6552C66.9883 80.1278 67.1857 80.7113 67.1793 81.3103V81.4138H63.1349C63.1821 80.7845 63.4291 80.1867 63.8401 79.7069Z" fill="#707D87"/>
<path fill-rule="evenodd" clip-rule="evenodd" d="M70.6223 79.0966C69.9996 79.9658 69.6891 81.0191 69.7408 82.0862L69.7512 82.2104C69.7011 83.2805 70.0114 84.3365 70.6326 85.2104C71.1609 85.9456 72.0178 86.3749 72.9245 86.3586C73.813 86.3981 74.6676 86.0142 75.2267 85.3242L75.2993 86.1931H76.5541V74.7207H75.1749V78.9414C74.5849 78.2938 73.7393 77.9376 72.8625 77.9675C71.9858 77.9974 71.1666 78.4103 70.6223 79.0966ZM71.7008 84.3931C71.2863 83.7546 71.0865 83.0009 71.1304 82.2414H71.12C71.0641 81.4253 71.2634 80.6121 71.6904 79.9138C72.0491 79.3976 72.648 79.1009 73.2771 79.1276C74.0827 79.108 74.8268 79.5558 75.1852 80.2759V83.9897C74.8342 84.7253 74.0832 85.1869 73.2667 85.169C72.6464 85.1928 72.0565 84.9005 71.7008 84.3931Z" fill="#707D87"/>
<path fill-rule="evenodd" clip-rule="evenodd" d="M88.3348 85.2207C88.9391 84.348 89.238 83.3008 89.1851 82.2414V82.1173C89.2379 81.0417 88.9395 79.9782 88.3348 79.0862C87.7979 78.3537 86.9312 77.935 86.0222 77.969C85.1333 77.9278 84.278 78.3121 83.72 79.0035V74.7207H82.3407V86.2345H83.6474L83.7096 85.3035C84.284 86.009 85.1647 86.3943 86.074 86.3379C86.9658 86.3583 87.8107 85.9407 88.3348 85.2207ZM87.2459 79.9035C87.6497 80.5574 87.8417 81.3196 87.7955 82.0862C87.8535 82.8965 87.6617 83.705 87.2459 84.4035C86.8957 84.9051 86.313 85.1938 85.7007 85.169C84.8396 85.1964 84.0512 84.6899 83.72 83.8966V80.4C84.0485 79.6139 84.8264 79.1089 85.68 79.1276C86.3015 79.0978 86.8941 79.3914 87.2459 79.9035Z" fill="#707D87"/>
<path fill-rule="evenodd" clip-rule="evenodd" d="M93.4786 84.1655L95.4074 78.1138H96.8904L93.6445 87.4241C93.1467 88.769 92.3482 89.4414 91.2489 89.4414H90.9897L90.4711 89.3483V88.2104H90.8445C91.2103 88.2225 91.5715 88.1252 91.8815 87.931C92.195 87.6583 92.419 87.2979 92.5245 86.8966L92.8252 86.0793L89.9423 78.0828H91.4667L93.4786 84.1655Z" fill="#707D87"/>
</svg>
