<?xml version="1.0" encoding="utf-8"?>
<!-- Generator: Adobe Illustrator 22.0.1, SVG Export Plug-In . SVG Version: 6.00 Build 0)  -->
<svg version="1.1" xmlns="http://www.w3.org/2000/svg" xmlns:xlink="http://www.w3.org/1999/xlink" x="0px" y="0px" width="120px"
	 height="64.8px" viewBox="0 0 120 64.8" style="enable-background:new 0 0 120 64.8;" xml:space="preserve">
<style type="text/css">
	.st0{display:none;}
	.st1{display:inline;}
	.st2{fill:#BFBFBF;}
	.st3{fill:#999999;}
	.st4{fill:#FDBB30;}
	.st5{fill:#0174C3;}
	.st6{opacity:0.4;}
	.st7{fill:#1D1D1B;}
	.st8{fill:#FCC200;}
</style>
<g id="Artwork" class="st0">
	<g class="st1">
		<g>
			<path class="st2" d="M99.7,48.9H21.9c-11.2,0-20.3-9.1-20.3-20.3S10.7,8.4,21.9,8.4h77.7c11.2,0,20.3,9.1,20.3,20.3
				S110.9,48.9,99.7,48.9z M21.9,9.9c-10.3,0-18.7,8.4-18.7,18.7s8.4,18.7,18.7,18.7h77.7c10.3,0,18.7-8.4,18.7-18.7
				S110,9.9,99.7,9.9H21.9z"/>
			<g>
				<path d="M90.4,17.3c-3,0-5.5,2.4-5.5,5.5c0,3,2.4,5.5,5.5,5.5c3,0,5.5-2.4,5.5-5.5S93.4,17.3,90.4,17.3z M90.4,25.6
					c-1.5,0-2.8-1.3-2.8-2.8s1.3-2.8,2.8-2.8s2.8,1.3,2.8,2.8C93.2,24.3,91.9,25.6,90.4,25.6z"/>
				<path d="M65.3,17.3c-3,0-5.5,2.4-5.5,5.5c0,3,2.4,5.5,5.5,5.5c3,0,5.5-2.4,5.5-5.5S68.3,17.3,65.3,17.3z M65.3,25.6
					c-1.5,0-2.8-1.3-2.8-2.8s1.3-2.8,2.8-2.8s2.8,1.3,2.8,2.8C68.1,24.3,66.8,25.6,65.3,25.6z"/>
				<path d="M84.6,25.7c-0.3,0.1-0.9,0.2-1.1,0.2c-0.9,0-1.1-0.3-1.1-1.2v-5.1h2.2v-2.1h-2.2v-3h-2.5l-0.5,3h-1.7l0,0h-0.1
					c-1.4,0-2.5,0.9-3.2,2.3l-0.9-2.3h-1.8V28h3.1v-4.6c0-2.3,1.3-3.8,3-3.8h1.7v5.2c0,2.5,1.3,3.4,3.3,3.4c1.1,0,1.9-0.2,2.3-0.4
					L84.6,25.7z"/>
				<path d="M99.6,20.9V28h-3V17.5h1.8l0.6,1.6"/>
				<path d="M99,19.1c0.9-1.1,2.1-1.9,3.6-1.9c2.5,0,3.5,2,3.5,3.8v7H103v-6.8c0-0.9-0.7-1.4-1.5-1.4c-0.9,0-1.4,0.5-1.9,1"/>
				<path d="M47.8,13.7h3.4l4.7,9v-9h2.8V28h-3.1l-5-9.9V28h-2.8C47.8,28,47.8,13.7,47.8,13.7z"/>
			</g>
			<g>
				<g>
					<g>
						<path class="st3" d="M115.3,8.4v0.5h-0.7v2.5H114V8.9h-0.7V8.4H115.3z"/>
						<path class="st3" d="M115.7,11.4v-3h0.8l0.5,2l0,0l0.5-2h0.8v3h-0.5V9l0,0l-0.6,2.4h-0.4L116.2,9l0,0v2.4H115.7z"/>
					</g>
				</g>
			</g>
			<g>
				<path class="st3" d="M46.9,40.7l0.7-1.1c0.6,0.4,1.5,0.8,2.5,0.8s1.7-0.5,1.7-1.3c0-0.9-0.8-1.2-2.1-1.6c-1.2-0.4-2.3-1-2.3-2.7
					c0-1.6,1.2-2.4,2.9-2.4c1.1,0,1.9,0.2,2.6,0.6l-0.6,1.2c-0.5-0.3-1.2-0.5-2-0.5c-0.9,0-1.5,0.3-1.5,1.1c0,0.9,0.7,1.1,1.9,1.5
					c1.3,0.4,2.7,1,2.7,2.9c0,1.6-1.1,2.6-3.2,2.6C48.7,41.7,47.6,41.2,46.9,40.7"/>
				<polygon class="st3" points="56,32.5 61.4,32.5 61.4,33.8 57.6,33.8 57.6,36.2 60.6,36.2 60.6,37.5 57.6,37.5 57.6,40.3 
					61.7,40.3 61.7,41.6 56,41.6 				"/>
				<path class="st3" d="M63.9,37.1c0-2.7,1.3-4.7,3.8-4.7c1.1,0,2,0.4,2.7,1.1l-0.9,1c-0.5-0.5-1-0.8-1.7-0.8
					c-1.5,0-2.2,1.2-2.2,3.5c0,2.1,0.7,3.2,2.2,3.2c0.8,0,1.4-0.4,1.9-0.9l0.9,1c-0.7,0.8-1.5,1.3-2.8,1.3
					C65.1,41.7,63.9,39.7,63.9,37.1"/>
				<path class="st3" d="M73,38.1v-5.6h1.5v5.8c0,1.3,0.3,2.1,1.6,2.1c1.3,0,1.6-0.8,1.6-2.1v-5.8h1.6v5.6c0,2.3-0.9,3.6-3.2,3.6
					C73.8,41.7,73,40.4,73,38.1"/>
				<path class="st3" d="M88.9,41.6h-1.7l-1.7-3.8H84v3.8h-1.5v-9.1h3c1.8,0,3.3,0.7,3.3,2.6c0,1.3-0.8,2-1.7,2.3L88.9,41.6z
					 M85.4,36.6c1.1,0,1.7-0.4,1.7-1.4s-0.6-1.4-1.7-1.4H84v2.8L85.4,36.6L85.4,36.6z"/>
				<polygon class="st3" points="91.5,32.5 96.9,32.5 96.9,33.8 93,33.8 93,36.2 96.1,36.2 96.1,37.5 93,37.5 93,40.3 97.1,40.3 
					97.1,41.6 91.5,41.6 				"/>
				<path class="st3" d="M99.7,32.5h2.3c3,0,4.4,1.6,4.4,4.5c0,3-1.5,4.6-4.3,4.6h-2.3L99.7,32.5L99.7,32.5z M101.9,40.3
					c2.1,0,2.8-1,2.8-3.3c0-2.1-0.6-3.3-2.7-3.3h-0.8v6.6H101.9L101.9,40.3z"/>
			</g>
			<g>
				<g>
					<g>
						<path class="st4" d="M21.8,50.5c-12.1,0-21.9-9.8-21.9-21.9S9.7,6.7,21.8,6.7s21.9,9.8,21.9,21.9
							C43.7,40.7,33.8,50.5,21.8,50.5L21.8,50.5z M21.8,13.7c-4,0-7.7,1.5-10.6,4.4c-2.8,2.8-4.4,6.6-4.4,10.6s1.5,7.7,4.4,10.6
							c2.8,2.8,6.6,4.4,10.6,4.4s7.7-1.5,10.6-4.4c2.8-2.8,4.4-6.6,4.4-10.6s-1.5-7.7-4.4-10.6S25.8,13.7,21.8,13.7L21.8,13.7z"/>
					</g>
				</g>
				<g>
					<rect x="45.6" y="3.4" class="st4" width="1.7" height="1.7"/>
					<rect x="45.6" class="st4" width="1.7" height="1.7"/>
					<rect x="40.8" y="5.1" class="st4" width="1.6" height="1.7"/>
					<rect x="37.7" y="8.4" width="1.6" height="1.6"/>
					<rect x="42.4" y="6.8" width="1.8" height="1.6"/>
					<rect x="36.1" y="6.8" width="1.6" height="1.5"/>
					<rect x="40.8" y="8.4" width="1.6" height="1.6"/>
					<rect x="43.9" y="1.7" width="1.7" height="1.7"/>
					<rect x="40.8" y="3.4" width="3.1" height="1.7"/>
					<rect x="39.3" y="5.1" width="1.5" height="3.3"/>
					<path d="M39.3,9.9v1.6h-1.6V9.9H35V11h-1.4v1.4h1.6V14h-1.6v-1.6h-1.7V15h-1.6v1.6h-1.1v1.6H28c-1.3,1.9-4.6,8.1-5.6,10.5
						c-3.6-5-6.4-7-8.5-7.7c-1.2-0.3-2.6,0.9-0.6,3c4.5,5,5.9,9.1,7.3,12.3c0.7,1.7,4,2,4.6,0.2c1.4-3.7,3.4-7.9,5.8-11.3v-1.8h1.3
						v-1.6h1.3V20h1.6v-1.8h-1.6v-1.6h1.6v1.6h1.6v-1.6h1.3v-1.9h1.4v-1.3h1.4V9.9H39.3z"/>
				</g>
			</g>
		</g>
		<g>
			<g>
				<g>
					<g>
						<path class="st3" d="M4.8,58H6v0.9c0.4-0.5,0.9-1,1.8-1c1.2,0,2.4,1,2.4,2.7l0,0c0,1.7-1.2,2.7-2.4,2.7
							c-0.9,0-1.4-0.4-1.8-0.9v2.4H4.8V58z M9,60.6L9,60.6c0-1-0.7-1.7-1.5-1.7S6,59.6,6,60.6l0,0c0,1,0.7,1.7,1.5,1.7
							S9,61.6,9,60.6z"/>
						<path class="st3" d="M11.2,60.6L11.2,60.6c0-1.5,1.2-2.8,2.8-2.8s2.8,1.2,2.8,2.7l0,0c0,1.5-1.2,2.7-2.8,2.7
							C12.4,63.3,11.2,62.1,11.2,60.6z M15.6,60.6L15.6,60.6c0-0.9-0.7-1.7-1.6-1.7c-0.9,0-1.6,0.7-1.6,1.7l0,0
							c0,0.9,0.7,1.7,1.6,1.7C15,62.3,15.6,61.5,15.6,60.6z"/>
						<path class="st3" d="M17.3,58h1.2l1.1,3.6l1.1-3.6h1l1.2,3.6L24,58h1.2l-1.7,5.3h-1.1l-1.2-3.6L20,63.3h-1.1L17.3,58z"/>
						<path class="st3" d="M25.8,60.6L25.8,60.6c0-1.5,1.1-2.8,2.6-2.8c1.7,0,2.5,1.3,2.5,2.8c0,0.1,0,0.2,0,0.3H27
							c0.1,0.9,0.7,1.3,1.5,1.3c0.6,0,1-0.2,1.4-0.6l0.7,0.6c-0.5,0.6-1.2,1-2.1,1C27,63.3,25.8,62.2,25.8,60.6z M29.7,60.2
							c-0.1-0.8-0.5-1.4-1.3-1.4c-0.7,0-1.2,0.6-1.3,1.4H29.7z"/>
						<path class="st3" d="M32.1,58h1.2v1.2c0.3-0.8,0.9-1.3,1.9-1.3v1.3h-0.1c-1.1,0-1.8,0.7-1.8,2.1v2h-1.2L32.1,58L32.1,58z"/>
						<path class="st3" d="M35.9,60.6L35.9,60.6c0-1.5,1.1-2.8,2.6-2.8c1.7,0,2.5,1.3,2.5,2.8c0,0.1,0,0.2,0,0.3h-3.8
							c0.1,0.9,0.7,1.3,1.5,1.3c0.6,0,1-0.2,1.4-0.6l0.7,0.6c-0.5,0.6-1.2,1-2.1,1C37.1,63.3,35.9,62.2,35.9,60.6z M39.7,60.2
							c-0.1-0.8-0.5-1.4-1.3-1.4c-0.7,0-1.2,0.6-1.3,1.4H39.7z"/>
						<path class="st3" d="M41.9,60.6L41.9,60.6c0-1.7,1.2-2.7,2.4-2.7c0.9,0,1.4,0.4,1.8,0.9V56h1.2v7.2h-1.2v-0.9
							c-0.4,0.5-0.9,1-1.8,1C43.1,63.3,41.9,62.3,41.9,60.6z M46.1,60.6L46.1,60.6c0-1-0.7-1.7-1.5-1.7s-1.5,0.6-1.5,1.7l0,0
							c0,1,0.7,1.7,1.5,1.7C45.4,62.3,46.1,61.6,46.1,60.6z"/>
						<path class="st3" d="M53,62.4v0.8h-1.2V56H53v2.9c0.4-0.5,0.9-1,1.8-1c1.2,0,2.4,1,2.4,2.7l0,0c0,1.7-1.2,2.7-2.4,2.7
							C53.9,63.3,53.3,62.9,53,62.4z M55.9,60.6L55.9,60.6c0-1-0.7-1.7-1.5-1.7s-1.5,0.7-1.5,1.7l0,0c0,1,0.7,1.7,1.5,1.7
							C55.3,62.3,55.9,61.6,55.9,60.6z"/>
						<path class="st3" d="M58,64.5l0.4-0.9c0.2,0.1,0.5,0.2,0.7,0.2c0.3,0,0.5-0.1,0.7-0.6L57.6,58h1.3l1.5,3.9l1.3-3.9H63l-2,5.4
							c-0.4,1.1-0.9,1.5-1.7,1.5C58.7,64.8,58.3,64.7,58,64.5z"/>
						<path d="M66.7,62.2l0.7-0.9c0.7,0.6,1.3,0.9,2.2,0.9c0.7,0,1.2-0.3,1.2-0.9l0,0c0-0.5-0.3-0.8-1.6-1.1
							c-1.5-0.3-2.3-0.8-2.3-2.1l0,0c0-1.2,1-2,2.3-2c1,0,1.8,0.3,2.5,0.9L71,57.9c-0.6-0.5-1.2-0.7-1.9-0.7c-0.7,0-1.1,0.4-1.1,0.8
							l0,0c0,0.5,0.3,0.8,1.6,1.1c1.5,0.3,2.2,0.9,2.2,2l0,0c0,1.3-1,2.1-2.5,2.1C68.5,63.3,67.5,62.9,66.7,62.2z"/>
						<path d="M72.9,64.5l0.4-0.9c0.2,0.1,0.5,0.2,0.7,0.2c0.3,0,0.5-0.1,0.7-0.6L72.6,58h1.3l1.5,3.9l1.3-3.9h1.2l-2.1,5.4
							c-0.4,1.1-0.9,1.5-1.7,1.5C73.6,64.8,73.2,64.7,72.9,64.5z"/>
						<path d="M78.9,58h1.2v0.8c0.3-0.5,0.8-0.9,1.6-0.9c0.7,0,1.3,0.4,1.5,0.9c0.4-0.5,1-0.9,1.8-0.9c1.1,0,1.8,0.7,1.8,2v3.3h-1.2
							v-3c0-0.8-0.4-1.3-1.1-1.3s-1.1,0.5-1.1,1.3v3h-1.2v-3c0-0.8-0.4-1.3-1.1-1.3S80,59.4,80,60.2v3h-1.2L78.9,58L78.9,58z"/>
						<path d="M91.6,63.2v-0.6c-0.3,0.4-0.9,0.7-1.7,0.7c-1,0-1.9-0.6-1.9-1.6l0,0c0-1.1,0.9-1.7,2.1-1.7c0.6,0,1,0.1,1.4,0.2v-0.1
							c0-0.7-0.5-1.1-1.3-1.1c-0.6,0-1,0.1-1.5,0.3l-0.3-1c0.6-0.3,1.1-0.4,2-0.4c1.5,0,2.3,0.8,2.3,2.2v3.1L91.6,63.2L91.6,63.2z
							 M91.6,61c-0.3-0.1-0.7-0.2-1.2-0.2c-0.7,0-1.2,0.3-1.2,0.8l0,0c0,0.5,0.5,0.8,1,0.8c0.8,0,1.4-0.5,1.4-1.1L91.6,61L91.6,61z"
							/>
						<path d="M94.2,58h1.2v0.8c0.3-0.5,0.8-0.9,1.6-0.9c1.2,0,1.9,0.8,1.9,2v3.3h-1.2v-3c0-0.8-0.4-1.3-1.1-1.3s-1.2,0.5-1.2,1.3v3
							h-1.2C94.2,63.2,94.2,58,94.2,58z"/>
						<path d="M100.6,61.7V59h-0.7v-1h0.7v-1.4h1.2V58h1.4v1h-1.4v2.6c0,0.5,0.2,0.7,0.6,0.7c0.3,0,0.5-0.1,0.7-0.2v1
							c-0.3,0.2-0.6,0.3-1.1,0.3C101.2,63.3,100.6,62.9,100.6,61.7z"/>
						<path d="M104,60.6L104,60.6c0-1.5,1.1-2.8,2.6-2.8c1.7,0,2.5,1.3,2.5,2.8c0,0.1,0,0.2,0,0.3h-3.8c0.1,0.9,0.7,1.3,1.5,1.3
							c0.6,0,1-0.2,1.4-0.6l0.7,0.6c-0.5,0.6-1.2,1-2.1,1C105.1,63.3,104,62.2,104,60.6z M107.9,60.2c-0.1-0.8-0.5-1.4-1.3-1.4
							c-0.7,0-1.2,0.6-1.3,1.4H107.9z"/>
						<path d="M110,60.6L110,60.6c0-1.5,1.1-2.8,2.7-2.8c1,0,1.6,0.4,2.1,0.9l-0.7,0.8c-0.4-0.4-0.7-0.7-1.3-0.7
							c-0.9,0-1.5,0.7-1.5,1.7l0,0c0,0.9,0.6,1.7,1.6,1.7c0.6,0,1-0.3,1.3-0.7l0.7,0.7c-0.5,0.6-1.1,1-2.1,1
							C111.1,63.3,110,62.1,110,60.6z"/>
					</g>
				</g>
			</g>
		</g>
	</g>
</g>
<g id="Layer_2">
	<g>
		<g>
			<path class="st5" d="M10.5,64.6v-6.1c0-0.2,0-0.8-0.1-1.6h1l0,1c0.1-0.3,0.3-0.6,0.7-0.8c0.3-0.2,0.7-0.3,1.2-0.3
				c0.7,0,1.3,0.3,1.8,0.8c0.4,0.5,0.7,1.2,0.7,2c0,0.8-0.2,1.5-0.7,2.1c-0.4,0.5-1,0.8-1.8,0.8c-0.4,0-0.8-0.1-1.1-0.3
				c-0.3-0.2-0.6-0.4-0.7-0.7v3.1H10.5z M13.1,61.7c0.5,0,0.9-0.2,1.2-0.6c0.3-0.4,0.4-0.9,0.4-1.5c0-0.6-0.1-1.1-0.4-1.5
				c-0.3-0.4-0.7-0.6-1.2-0.6c-0.5,0-0.9,0.2-1.2,0.6c-0.3,0.4-0.4,0.9-0.4,1.5c0,0.6,0.1,1.1,0.4,1.4
				C12.1,61.5,12.6,61.7,13.1,61.7z"/>
			<path class="st5" d="M19.6,62.5c-0.9,0-1.6-0.3-2.1-0.8c-0.5-0.5-0.7-1.2-0.7-2c0-0.9,0.2-1.5,0.7-2.1s1.2-0.8,2.1-0.8
				c0.9,0,1.6,0.3,2,0.8c0.5,0.5,0.7,1.2,0.7,2.1c0,0.8-0.2,1.5-0.7,2C21.1,62.2,20.4,62.5,19.6,62.5z M19.6,61.7
				c0.6,0,1-0.2,1.3-0.6c0.3-0.4,0.5-0.9,0.5-1.5c0-0.6-0.2-1.1-0.5-1.5c-0.3-0.4-0.7-0.6-1.3-0.6c-0.6,0-1,0.2-1.3,0.6
				c-0.3,0.4-0.5,0.9-0.5,1.5c0,0.6,0.2,1.1,0.5,1.5C18.6,61.5,19,61.7,19.6,61.7z"/>
			<path class="st5" d="M24.9,62.4l-1.8-5.4h1c0.1,0.2,0.2,0.8,0.6,1.9c0.3,1.1,0.6,1.9,0.7,2.4c0.2-0.6,0.5-1.4,0.8-2.4
				c0.4-1,0.6-1.7,0.6-1.9h0.9c0.1,0.2,0.3,0.8,0.6,1.9c0.3,1.1,0.6,1.9,0.8,2.4c0.2-0.6,0.4-1.4,0.7-2.4c0.3-1,0.5-1.7,0.5-1.9h0.9
				l-1.8,5.4h-0.9c0-0.1-0.2-0.7-0.6-1.8c-0.4-1.1-0.6-1.9-0.8-2.4c-0.2,0.6-0.5,1.4-0.8,2.4c-0.4,1.1-0.6,1.7-0.6,1.8H24.9z"/>
			<path class="st5" d="M34.7,62.5c-0.9,0-1.6-0.3-2.1-0.8c-0.5-0.5-0.8-1.2-0.8-2c0-0.8,0.2-1.5,0.7-2.1s1.1-0.8,1.9-0.8
				c0.5,0,0.9,0.1,1.3,0.4c0.4,0.2,0.6,0.6,0.8,1c0.2,0.4,0.3,0.9,0.3,1.4c0,0.1,0,0.2,0,0.3h-4c0,0.6,0.2,1.1,0.5,1.4
				c0.3,0.3,0.8,0.5,1.3,0.5c0.6,0,1.2-0.2,1.7-0.6l0.3,0.7C36.2,62.3,35.5,62.5,34.7,62.5z M32.9,59.1H36c0-0.5-0.2-0.9-0.4-1.1
				c-0.3-0.3-0.6-0.4-1-0.4c-0.4,0-0.8,0.1-1.1,0.4C33.2,58.3,33,58.7,32.9,59.1z"/>
			<path class="st5" d="M38.2,62.4v-4.1c0-0.1,0-0.3,0-0.5c0-0.2,0-0.4,0-0.6l0-0.2h1l0,0.8c0.3-0.6,0.8-1,1.5-1
				c0.2,0,0.4,0,0.6,0.1l0,0.9c-0.2-0.1-0.4-0.1-0.6-0.1c-0.4,0-0.8,0.1-1,0.4c-0.3,0.3-0.4,0.7-0.4,1.3v3H38.2z"/>
			<path class="st5" d="M44.6,62.5c-0.9,0-1.6-0.3-2.1-0.8c-0.5-0.5-0.8-1.2-0.8-2c0-0.8,0.2-1.5,0.7-2.1s1.1-0.8,1.9-0.8
				c0.5,0,0.9,0.1,1.3,0.4c0.4,0.2,0.6,0.6,0.8,1c0.2,0.4,0.3,0.9,0.3,1.4c0,0.1,0,0.2,0,0.3h-4c0,0.6,0.2,1.1,0.5,1.4
				c0.3,0.3,0.8,0.5,1.3,0.5c0.6,0,1.2-0.2,1.7-0.6l0.3,0.7C46.1,62.3,45.4,62.5,44.6,62.5z M42.8,59.1h3.1c0-0.5-0.2-0.9-0.4-1.1
				c-0.3-0.3-0.6-0.4-1-0.4c-0.4,0-0.8,0.1-1.1,0.4C43,58.3,42.8,58.7,42.8,59.1z"/>
			<path class="st5" d="M50.4,62.5c-0.7,0-1.3-0.3-1.8-0.8c-0.5-0.5-0.7-1.2-0.7-2c0-0.6,0.1-1.1,0.3-1.5c0.2-0.4,0.5-0.8,0.9-1
				c0.4-0.2,0.8-0.4,1.4-0.4c0.4,0,0.8,0.1,1.1,0.3c0.3,0.2,0.5,0.4,0.6,0.7v-3.3h1V61c0,0.3,0,0.8,0,1.4h-1l0-0.9
				c-0.1,0.3-0.3,0.5-0.6,0.7C51.3,62.4,50.9,62.5,50.4,62.5z M50.5,61.7c0.5,0,0.9-0.2,1.2-0.6c0.3-0.4,0.4-0.9,0.4-1.5
				c0-0.6-0.1-1.1-0.4-1.5c-0.3-0.4-0.7-0.6-1.2-0.6c-0.5,0-0.9,0.2-1.2,0.6c-0.3,0.4-0.4,0.9-0.4,1.5c0,0.6,0.1,1.1,0.4,1.5
				C49.6,61.5,50,61.7,50.5,61.7z"/>
			<path class="st5" d="M61,62.5c-0.4,0-0.8-0.1-1.1-0.3c-0.3-0.2-0.6-0.4-0.7-0.7l0,0.9h-1c0-0.8,0-1.3,0-1.4v-6.4h1v3.4
				c0.1-0.3,0.4-0.5,0.7-0.7c0.3-0.2,0.7-0.3,1.2-0.3c0.8,0,1.4,0.3,1.8,0.8c0.4,0.5,0.7,1.2,0.7,2c0,0.9-0.2,1.6-0.7,2.1
				C62.3,62.2,61.7,62.5,61,62.5z M60.8,61.7c0.5,0,0.9-0.2,1.2-0.6c0.3-0.4,0.4-0.9,0.4-1.5c0-0.6-0.1-1.1-0.4-1.4
				c-0.3-0.4-0.7-0.6-1.2-0.6c-0.5,0-1,0.2-1.3,0.6c-0.3,0.4-0.5,0.9-0.5,1.5c0,0.6,0.2,1.1,0.5,1.5C59.9,61.5,60.3,61.7,60.8,61.7z
				"/>
			<path class="st5" d="M64.7,64.7L64.3,64c0.9-0.3,1.4-0.8,1.6-1.4l0.1-0.3l-2.2-5.4h1l1.7,4.3l1.6-4.3h1l-2.2,5.7
				c-0.2,0.5-0.5,0.9-0.8,1.3C65.7,64.3,65.2,64.5,64.7,64.7z"/>
		</g>
		<g>
			<path class="st5" d="M72.7,59.5c0-0.9,0.2-1.7,0.7-2.2c0.5-0.6,1.1-0.8,1.9-0.8c0.3,0,0.5,0,0.7,0.1c0.2,0.1,0.4,0.1,0.5,0.2
				c0.1,0.1,0.2,0.2,0.3,0.3c0.1,0.1,0.2,0.2,0.2,0.2l0,0.1h0c0-0.1,0-0.2,0-0.4v-2.7h1.1v8.1h-1.1v-0.5l0-0.4h0c0,0,0,0.1-0.1,0.1
				c0,0-0.1,0.1-0.2,0.3c-0.1,0.1-0.2,0.2-0.4,0.3c-0.1,0.1-0.3,0.2-0.5,0.3c-0.2,0.1-0.5,0.1-0.7,0.1c-0.8,0-1.4-0.3-1.9-0.8
				C72.9,61.1,72.7,60.4,72.7,59.5z M73.8,59.5c0,0.6,0.2,1.1,0.5,1.5c0.3,0.4,0.7,0.6,1.2,0.6c0.5,0,0.9-0.2,1.2-0.5
				c0.3-0.3,0.5-0.9,0.5-1.6c0-0.6-0.1-1-0.4-1.4c-0.3-0.4-0.7-0.6-1.2-0.6c-0.5,0-0.9,0.2-1.2,0.6C74,58.3,73.8,58.9,73.8,59.5z"/>
			<path class="st5" d="M79.1,55.4v-1.1h1.1v1.1H79.1z M79.1,62.4v-5.8h1.1v5.8H79.1z"/>
			<path class="st5" d="M81.9,63.4c0.5,0.3,1,0.4,1.6,0.4c0.5,0,1-0.1,1.3-0.4c0.3-0.3,0.5-0.7,0.5-1.2v-0.4l0-0.4h0
				c-0.4,0.6-0.9,0.9-1.7,0.9c-0.8,0-1.4-0.3-1.9-0.8c-0.5-0.6-0.7-1.3-0.7-2.1c0-0.9,0.2-1.6,0.7-2.1c0.5-0.5,1.1-0.8,1.9-0.8
				c0.3,0,0.5,0,0.7,0.1c0.2,0.1,0.4,0.1,0.5,0.2c0.1,0.1,0.2,0.2,0.3,0.3c0.1,0.1,0.2,0.2,0.2,0.2l0.1,0.1h0c0-0.1,0-0.1,0-0.2
				v-0.5h1.1v5.6c0,0.5-0.1,0.9-0.2,1.2c-0.2,0.4-0.4,0.6-0.7,0.8c-0.3,0.2-0.6,0.4-0.9,0.5c-0.3,0.1-0.7,0.1-1.1,0.1
				c-0.7,0-1.4-0.2-2-0.5L81.9,63.4z M83.9,61.4c0.5,0,0.8-0.2,1.1-0.5c0.3-0.3,0.4-0.8,0.4-1.5c0-1.3-0.5-1.9-1.6-1.9
				c-0.5,0-0.9,0.2-1.2,0.5c-0.3,0.3-0.4,0.8-0.4,1.4c0,0.6,0.2,1.1,0.5,1.5C82.9,61.2,83.3,61.4,83.9,61.4z"/>
			<path class="st5" d="M87.4,55.4v-1.1h1.1v1.1H87.4z M87.4,62.4v-5.8h1.1v5.8H87.4z"/>
			<path class="st5" d="M89.3,59.5c0-0.9,0.3-1.6,0.9-2.2c0.6-0.6,1.3-0.9,2.2-0.9c0.4,0,0.8,0.1,1.2,0.2c0.4,0.1,0.6,0.3,0.8,0.4
				l0.2,0.2l-0.5,0.8c0,0-0.1-0.1-0.2-0.2c-0.1-0.1-0.3-0.2-0.5-0.3c-0.3-0.1-0.6-0.2-0.9-0.2c-0.6,0-1.1,0.2-1.4,0.6
				c-0.4,0.4-0.6,0.9-0.6,1.5c0,0.6,0.2,1.1,0.6,1.5c0.4,0.4,0.9,0.6,1.5,0.6c0.3,0,0.6-0.1,0.9-0.2c0.3-0.1,0.5-0.3,0.7-0.4
				l0.2-0.2l0.4,0.8c0,0-0.1,0.1-0.1,0.1c0,0-0.1,0.1-0.3,0.2c-0.1,0.1-0.3,0.2-0.5,0.3c-0.2,0.1-0.4,0.2-0.6,0.2
				c-0.3,0.1-0.5,0.1-0.8,0.1c-0.9,0-1.7-0.3-2.2-0.9C89.6,61.1,89.3,60.4,89.3,59.5z"/>
			<path class="st5" d="M94.9,59.5c0-0.9,0.3-1.6,0.8-2.2c0.5-0.6,1.2-0.8,2.1-0.8c0.8,0,1.4,0.3,1.8,0.8c0.4,0.5,0.7,1.2,0.7,1.9
				l0,0.5H96c0,0.6,0.2,1.1,0.6,1.4c0.4,0.3,0.8,0.5,1.4,0.5c0.3,0,0.6-0.1,0.9-0.2c0.3-0.1,0.5-0.2,0.6-0.3l0.2-0.2l0.5,0.8
				c-0.1,0.1-0.2,0.1-0.3,0.2c-0.1,0.1-0.4,0.2-0.8,0.4c-0.4,0.2-0.8,0.2-1.2,0.2c-0.9,0-1.6-0.3-2.2-0.9
				C95.2,61.1,94.9,60.4,94.9,59.5z M96.1,58.8h3.1c0-0.5-0.2-0.8-0.4-1.1c-0.3-0.3-0.6-0.4-1-0.4c-0.4,0-0.8,0.1-1.1,0.4
				C96.3,58,96.1,58.4,96.1,58.8z"/>
			<path class="st5" d="M101.1,62.4v-5.8h1.1v1l0,0.4h0c0.1-0.4,0.4-0.8,0.7-1.1c0.3-0.3,0.7-0.4,1.1-0.4l0.3,0v1.1
				c-0.1,0-0.2,0-0.3,0c-0.4,0-0.7,0.1-1,0.4c-0.3,0.2-0.5,0.6-0.6,1c-0.1,0.3-0.1,0.6-0.1,1v2.4H101.1z"/>
			<path class="st5" d="M105.7,60.3v-2.7H105v-0.9h0.8V55h1.1v1.7h1.4v0.9h-1.4v2.6c0,0.2,0,0.4,0.1,0.6c0.1,0.2,0.1,0.3,0.2,0.4
				c0.1,0.1,0.2,0.2,0.3,0.2c0.1,0.1,0.2,0.1,0.3,0.1c0.1,0,0.2,0,0.3,0l0.3,0v1c-0.1,0-0.2,0-0.4,0c-0.2,0-0.4,0-0.5,0
				c-0.2,0-0.4-0.1-0.6-0.2c-0.2-0.1-0.4-0.2-0.6-0.4c-0.2-0.1-0.3-0.4-0.4-0.6C105.8,61,105.7,60.6,105.7,60.3z"/>
			<path class="st5" d="M108.9,54.3c-0.5,0-0.8,0.4-0.8,0.8c0,0.5,0.4,0.8,0.8,0.8c0.5,0,0.8-0.4,0.8-0.8
				C109.8,54.7,109.4,54.3,108.9,54.3 M108.9,55.8c-0.4,0-0.7-0.3-0.7-0.7c0-0.4,0.3-0.7,0.7-0.7c0.4,0,0.7,0.3,0.7,0.7
				C109.6,55.5,109.3,55.8,108.9,55.8"/>
			<g>
				<path class="st5" d="M108.6,55.6v-0.9h0.3c0.1,0,0.1,0,0.2,0c0,0,0.1,0,0.1,0.1c0,0,0,0.1,0,0.2c0,0.1,0,0.1,0,0.2
					c0,0-0.1,0.1-0.1,0.1v0c0,0,0,0,0,0l0.2,0.4h-0.1l-0.2-0.4h-0.2v0.4H108.6z M108.8,55.1h0.2c0.1,0,0.1,0,0.1,0c0,0,0-0.1,0-0.1
					c0-0.1,0-0.1-0.1-0.1c0,0-0.1,0-0.1,0h-0.1V55.1z"/>
			</g>
		</g>
	</g>
	<g>
		<path class="st6" d="M99.1,48.1H22.7c-11,0-19.9-8.9-19.9-19.9c0-11,8.9-19.9,19.9-19.9h76.4c11,0,19.9,8.9,19.9,19.9
			C119,39.2,110.1,48.1,99.1,48.1 M22.7,9.9c-10.1,0-18.3,8.2-18.3,18.3c0,10.1,8.2,18.3,18.3,18.3h76.4c10.1,0,18.3-8.2,18.3-18.3
			c0-10.1-8.2-18.3-18.3-18.3H22.7z"/>
		<path class="st7" d="M90,17.1c-3,0-5.4,2.4-5.4,5.4c0,3,2.4,5.4,5.4,5.4c3,0,5.4-2.4,5.4-5.4C95.3,19.5,92.9,17.1,90,17.1
			 M90,25.2c-1.5,0-2.8-1.2-2.8-2.8c0-1.5,1.2-2.8,2.8-2.8c1.5,0,2.8,1.2,2.8,2.8C92.7,24,91.5,25.2,90,25.2"/>
		<path class="st7" d="M65.3,17.1c-3,0-5.4,2.4-5.4,5.4c0,3,2.4,5.4,5.4,5.4c3,0,5.4-2.4,5.4-5.4C70.7,19.5,68.3,17.1,65.3,17.1
			 M65.3,25.2c-1.5,0-2.8-1.2-2.8-2.8c0-1.5,1.2-2.8,2.8-2.8c1.5,0,2.8,1.2,2.8,2.8C68.1,24,66.9,25.2,65.3,25.2"/>
		<path class="st7" d="M84.2,25.3c-0.3,0.1-0.9,0.2-1.1,0.2c-0.9,0-1.1-0.3-1.1-1.2v-5h2.2v-2.1h-2.2v-2.9h-2.5l-0.5,2.9h-1.7v0
			h-0.1c-1.4,0-2.5,0.9-3.2,2.2l-0.9-2.2h-1.8v10.3h3v-4.5c0-2.3,1.3-3.7,2.9-3.7H79v5.1c0,2.4,1.2,3.3,3.3,3.3c1,0,1.8-0.2,2.3-0.4
			L84.2,25.3z"/>
		<polyline class="st7" points="99,20.6 99,27.6 96,27.6 96,17.3 97.8,17.3 98.4,18.9 		"/>
		<path class="st7" d="M98.4,18.9c0.9-1,2.1-1.8,3.6-1.8c2.5,0,3.5,2,3.5,3.8v6.8h-3v-6.7c0-0.9-0.7-1.4-1.5-1.4
			c-0.8,0-1.4,0.5-1.9,1"/>
		<polygon class="st7" points="48.2,13.6 51.5,13.6 56.2,22.4 56.2,13.6 59,13.6 59,27.6 55.9,27.6 50.9,17.9 50.9,27.6 48.2,27.6 
					"/>
		<polygon class="st6" points="114.4,8.3 114.4,8.8 113.6,8.8 113.6,11.3 113.1,11.3 113.1,8.8 112.3,8.8 112.3,8.3 		"/>
		<polygon class="st6" points="114.8,11.3 114.8,8.3 115.6,8.3 116.1,10.3 116.6,8.3 117.4,8.3 117.4,11.3 116.9,11.3 116.9,9 
			116.9,9 116.3,11.3 115.9,11.3 115.3,9 115.3,9 115.3,11.3 		"/>
		<path class="st6" d="M47.3,40.1L48,39c0.6,0.4,1.4,0.8,2.5,0.8c1,0,1.6-0.5,1.6-1.3c0-0.9-0.8-1.2-2.1-1.6c-1.2-0.4-2.3-1-2.3-2.6
			c0-1.5,1.2-2.4,2.9-2.4c1.1,0,1.9,0.2,2.5,0.6l-0.6,1.2c-0.5-0.3-1.2-0.5-2-0.5c-0.9,0-1.5,0.3-1.5,1.1c0,0.9,0.6,1.1,1.8,1.5
			c1.2,0.4,2.6,1,2.6,2.8c0,1.5-1.1,2.6-3.1,2.6C49,41.1,47.9,40.6,47.3,40.1"/>
		<polygon class="st6" points="56.2,32 61.5,32 61.5,33.3 57.7,33.3 57.7,35.7 60.7,35.7 60.7,36.9 57.7,36.9 57.7,39.7 61.8,39.7 
			61.8,40.9 56.2,40.9 		"/>
		<path class="st6" d="M63.9,36.5c0-2.6,1.2-4.6,3.7-4.6c1.1,0,2,0.4,2.6,1.1l-0.9,1c-0.5-0.5-1-0.8-1.7-0.8c-1.5,0-2.1,1.2-2.1,3.4
			c0,2.1,0.7,3.1,2.1,3.1c0.8,0,1.4-0.4,1.8-0.9l0.9,1c-0.6,0.8-1.5,1.3-2.8,1.3C65.1,41.1,63.9,39.1,63.9,36.5"/>
		<path class="st6" d="M72.9,37.5V32h1.5v5.8c0,1.2,0.3,2,1.6,2c1.3,0,1.6-0.8,1.6-2V32h1.5v5.5c0,2.2-0.9,3.5-3.1,3.5
			C73.7,41.1,72.9,39.7,72.9,37.5"/>
		<path class="st6" d="M88.5,40.9h-1.6l-1.7-3.8h-1.4v3.8h-1.5V32h2.9c1.8,0,3.2,0.6,3.2,2.6c0,1.3-0.8,2-1.7,2.3L88.5,40.9z M85,36
			c1.1,0,1.7-0.4,1.7-1.4c0-1-0.6-1.3-1.6-1.3h-1.4V36H85z"/>
		<polygon class="st6" points="91,32 96.3,32 96.3,33.3 92.5,33.3 92.5,35.7 95.5,35.7 95.5,36.9 92.5,36.9 92.5,39.7 96.6,39.7 
			96.6,40.9 91,40.9 		"/>
		<path class="st6" d="M99.1,32h2.2c2.9,0,4.3,1.6,4.3,4.4c0,2.9-1.4,4.5-4.2,4.5h-2.3V32z M101.3,39.7c2.1,0,2.8-1,2.8-3.3
			c0-2-0.6-3.2-2.6-3.2h-0.8v6.5H101.3z"/>
		<path class="st8" d="M22.7,49.7C10.8,49.7,1.2,40,1.2,28.2c0-11.8,9.6-21.5,21.5-21.5c11.8,0,21.5,9.6,21.5,21.5
			C44.1,40,34.5,49.7,22.7,49.7 M22.7,13.5c-3.9,0-7.6,1.5-10.4,4.3C9.5,20.6,8,24.3,8,28.2c0,3.9,1.5,7.6,4.3,10.4
			c2.8,2.8,6.5,4.3,10.4,4.3c3.9,0,7.6-1.5,10.4-4.3c2.8-2.8,4.3-6.5,4.3-10.4c0-3.9-1.5-7.6-4.3-10.4
			C30.3,15.1,26.6,13.5,22.7,13.5"/>
		<rect x="46" y="3.4" class="st8" width="1.7" height="1.7"/>
		<rect x="46" y="0.1" class="st8" width="1.7" height="1.7"/>
		<rect x="41.3" y="5.1" class="st8" width="1.6" height="1.6"/>
		<rect x="38.2" y="8.3" class="st7" width="1.6" height="1.6"/>
		<rect x="42.9" y="6.7" class="st7" width="1.8" height="1.6"/>
		<rect x="36.7" y="6.8" class="st7" width="1.6" height="1.5"/>
		<rect x="41.3" y="8.3" class="st7" width="1.6" height="1.6"/>
		<rect x="44.4" y="1.8" class="st7" width="1.7" height="1.7"/>
		<rect x="41.3" y="3.4" class="st7" width="3.1" height="1.7"/>
		<rect x="39.8" y="5.1" class="st7" width="1.5" height="3.2"/>
		<path class="st7" d="M39.8,9.9v1.6h-1.6V9.9h-2.6V11h-1.4v1.4h1.6V14h-1.6v-1.6h-1.7v2.4H31v1.6h-1V18h-1.1
			c-1.3,1.9-4.5,7.9-5.5,10.3c-3.5-4.9-6.3-6.8-8.4-7.5c-1.2-0.3-2.6,0.9-0.6,2.9c4.4,4.9,5.8,8.9,7.2,12.1c0.7,1.7,3.9,2,4.5,0.2
			c1.4-3.7,3.3-7.8,5.7-11.1v-1.7h1.2v-1.6h1.3v-1.8h1.6V18h-1.6v-1.6h1.6V18h1.6l0-1.6h1.2v-1.9H40v-1.3h1.3V9.9H39.8z"/>
	</g>
</g>
</svg>
