<?xml version="1.0" encoding="utf-8"?>
<!-- Generator: Adobe Illustrator 22.1.0, SVG Export Plug-In . SVG Version: 6.00 Build 0)  -->
<svg version="1.1" id="Layer_1" xmlns="http://www.w3.org/2000/svg" xmlns:xlink="http://www.w3.org/1999/xlink" x="0px" y="0px"
	 width="180px" height="99.32px" viewBox="0 0 180 99.32" style="enable-background:new 0 0 180 99.32;" xml:space="preserve">
<style type="text/css">
	.st0{fill:#794E2E;}
	.st1{fill:#FFFFFF;}
	.st2{fill:#E85626;}
	.st3{fill:#E95525;}
	.st4{fill:#F4C700;}
</style>
<g>
	<rect y="0" class="st0" width="180" height="99.33"/>
	<rect x="0.87" y="0.87" class="st1" width="178.26" height="97.59"/>
	<g>
		<g>
			<path class="st0" d="M25.9,47.01c0-2.95-2.27-2.68-2.27-2.68H18v5.49h5.63C23.7,49.75,25.9,50.1,25.9,47.01 M13.47,61.97V39.86
				h10.85c0,0,6.11-0.34,6.11,7c0,0,0.27,5.97-4.46,5.97l4.6,9.13h-5.42l-4.39-8.45h-2.68v8.45L13.47,61.97"/>
			<path class="st0" d="M35.65,56.14c0.69,2.95,3.09,1.79,3.09,1.79c2.27-1.51,1.65-3.78,1.65-3.78
				C34.96,52.84,35.65,56.14,35.65,56.14 M34.07,49.68v-4.6c0,0,2.4-0.82,4.19-0.76c0,0,5.91-0.62,6.52,4.53v12.15h-3.71v-0.69
				c0,0-1.79,1.44-3.85,1.51c0,0-6.18,0.76-6.25-5.56c0,0-0.96-5.7,6.73-5.7c0,0,1.24-0.14,3.23,0.69c0,0-0.27-3.09-2.68-3.16
				C37.84,48.1,36.61,47.97,34.07,49.68"/>
			<polyline class="st0" points="66.89,60.94 62.56,60.94 62.49,44.95 66.82,44.95 66.89,60.94 			"/>
			<path class="st0" d="M54.05,57.99c2.2,0,3.09-2.88,3.09-4.6c0-1.72-1.1-4.53-3.16-4.53c-2.2,0-2.4,1.44-2.4,1.44v6.25
				C52.81,57.85,54.05,57.99,54.05,57.99 M47.25,67.05l-0.07-22.11h4.46v0.82c0,0,1.24-1.51,3.71-1.37c0,0,5.56-0.41,6.11,8.86
				c0,0,0.41,9.41-6.73,8.72c0,0-1.24-0.07-3.02-1.17v4.12L47.25,67.05"/>
			<path class="st0" d="M76.02,48.17c-2.13,0-3.09,2.95-3.09,4.6c0,1.72,1.03,4.53,3.16,4.53c2.13,0,2.4-1.44,2.4-1.44v-6.25
				C77.33,48.31,76.02,48.17,76.02,48.17 M82.82,39.11l0.07,22.11h-4.46v-0.76c0,0-1.17,1.51-3.71,1.37c0,0-5.56,0.41-6.11-8.86
				c0,0-0.41-9.41,6.73-8.72c0,0,1.3,0.07,3.02,1.17v-4.12L82.82,39.11"/>
			<path class="st2" d="M87.83,54.9c0,0,3.5,3.23,6.87,1.92c0.48-0.21,0.69-0.27,1.37-0.89c0,0,1.85-2.4-2.95-3.43
				c0,0-7.35-1.1-7.96-5.56c0,0-1.3-6.11,5.36-7.42c0,0,4.74-2.13,10.09,3.16l-3.16,2.95c0,0-4.19-3.57-6.93-1.03
				c0,0-1.3,1.85,1.3,2.88c0,0,7.96,0.76,8.79,5.36c0,0,1.85,5.36-3.71,7.96c0,0-4.81,2.4-8.99-0.27c-1.17-0.82-3.43-2.88-3.43-2.88
				L87.83,54.9"/>
			<path class="st2" d="M104.86,54.9c0,0,5.22,4.12,8.24,0.96c0,0,1.85-2.4-2.95-3.43c0,0-7-1.17-7.96-5.56c0,0-1.3-6.11,5.29-7.42
				c0,0,4.81-2.2,10.16,3.16l-3.16,2.95c0,0-4.46-3.91-6.93-1.03c0,0-1.3,1.85,1.3,2.88c0,0,7.55,0.89,8.72,5.36
				c0,0,1.92,5.36-3.71,7.96c0,0-4.6,2.27-8.99-0.21c-1.17-0.82-3.5-2.95-3.5-2.95L104.86,54.9"/>
			<polyline class="st2" points="130.68,56.27 125.87,56.27 125.8,39.52 121.2,39.52 121.27,61.56 133.9,61.56 130.68,56.27 			"/>
		</g>
		<circle class="st0" cx="64.69" cy="41.31" r="2.2"/>
	</g>
	<path class="st3" d="M137.3,57.69c-1.17,0-2.06,0.89-2.06,2.06s0.89,2.06,2.06,2.06s2.06-0.89,2.06-2.06S138.47,57.69,137.3,57.69z
		 M137.85,59.27c0,0.34-0.27,0.34-0.62,0.34h-0.27v-0.69h0.48C137.78,58.92,137.85,59.13,137.85,59.27z M137.71,59.95
		c0.34-0.07,0.55-0.34,0.55-0.69c0-0.48-0.27-0.69-0.82-0.69h-0.96v2.47h0.41v-1.1h0.34l0.62,1.03l0,0h0.48
		c-0.27,0.27-0.69,0.41-1.1,0.41c-0.96,0-1.65-0.69-1.65-1.65c0-0.96,0.69-1.65,1.65-1.65c0.96,0,1.65,0.69,1.65,1.65
		c0,0.48-0.21,0.89-0.48,1.24L137.71,59.95z"/>
	<g>
		<path class="st4" d="M176.53,69.83L14.24,70.12c-5.95,0-10.77,4.82-10.77,10.77v14.97h162.29c5.95,0,10.77-4.82,10.77-10.77V69.83
			z"/>
		<g>
			<path class="st0" d="M23.92,87.48l-2.75-9h1.58l1.43,5.19l0.53,1.93c0.02-0.1,0.18-0.71,0.47-1.86l1.43-5.27h1.57l1.35,5.22
				l0.45,1.72l0.52-1.74l1.54-5.2h1.48l-2.81,9h-1.58l-1.43-5.39l-0.35-1.53l-1.82,6.92H23.92z"/>
			<path class="st0" d="M36.45,87.48l-2.75-9h1.58l1.43,5.19l0.53,1.93c0.02-0.1,0.18-0.71,0.47-1.86l1.43-5.27h1.57l1.35,5.22
				l0.45,1.72l0.52-1.74l1.54-5.2h1.48l-2.81,9h-1.58l-1.43-5.39l-0.35-1.53l-1.82,6.92H36.45z"/>
			<path class="st0" d="M48.98,87.48l-2.75-9h1.58l1.43,5.19l0.53,1.93c0.02-0.1,0.18-0.71,0.47-1.86l1.43-5.27h1.57l1.35,5.22
				l0.45,1.72l0.52-1.74l1.54-5.2h1.48l-2.81,9h-1.58l-1.43-5.39l-0.35-1.53l-1.82,6.92H48.98z"/>
			<path class="st0" d="M59.33,87.48v-1.74h1.74v1.74H59.33z"/>
			<path class="st0" d="M63.7,87.48v-9h1.37v1.36c0.35-0.64,0.67-1.06,0.97-1.26c0.3-0.2,0.62-0.3,0.98-0.3
				c0.51,0,1.04,0.16,1.57,0.49l-0.53,1.41c-0.37-0.22-0.75-0.33-1.12-0.33c-0.33,0-0.63,0.1-0.9,0.3c-0.27,0.2-0.45,0.48-0.57,0.83
				c-0.17,0.54-0.25,1.14-0.25,1.78v4.71H63.7z"/>
			<path class="st0" d="M75.36,86.37c-0.56,0.48-1.11,0.82-1.63,1.02c-0.52,0.2-1.08,0.3-1.68,0.3c-0.99,0-1.75-0.24-2.28-0.72
				c-0.53-0.48-0.8-1.1-0.8-1.85c0-0.44,0.1-0.84,0.3-1.21c0.2-0.36,0.46-0.66,0.79-0.88c0.32-0.22,0.69-0.39,1.1-0.5
				c0.3-0.08,0.75-0.16,1.36-0.23c1.23-0.15,2.14-0.32,2.72-0.53c0.01-0.21,0.01-0.34,0.01-0.4c0-0.62-0.14-1.06-0.43-1.31
				c-0.39-0.34-0.97-0.52-1.74-0.52c-0.72,0-1.25,0.13-1.59,0.38c-0.34,0.25-0.59,0.7-0.76,1.33l-1.49-0.2
				c0.14-0.64,0.36-1.15,0.67-1.55c0.31-0.39,0.76-0.69,1.35-0.91c0.59-0.21,1.27-0.32,2.04-0.32c0.77,0,1.39,0.09,1.87,0.27
				c0.48,0.18,0.83,0.41,1.06,0.68c0.23,0.27,0.38,0.62,0.47,1.04c0.05,0.26,0.08,0.73,0.08,1.41v2.03c0,1.42,0.03,2.31,0.1,2.69
				c0.06,0.38,0.19,0.74,0.39,1.08h-1.59C75.51,87.16,75.41,86.79,75.36,86.37z M75.24,82.96c-0.55,0.23-1.38,0.42-2.49,0.58
				c-0.63,0.09-1.07,0.19-1.33,0.3c-0.26,0.11-0.46,0.28-0.6,0.5c-0.14,0.22-0.21,0.46-0.21,0.72c0,0.41,0.15,0.75,0.46,1.02
				c0.31,0.27,0.76,0.41,1.35,0.41c0.59,0,1.11-0.13,1.57-0.39c0.46-0.26,0.79-0.61,1.01-1.05c0.16-0.34,0.25-0.85,0.25-1.52V82.96z
				"/>
			<path class="st0" d="M79.14,90.92V78.48h1.39v1.17c0.33-0.46,0.7-0.8,1.11-1.03c0.41-0.23,0.91-0.34,1.5-0.34
				c0.77,0,1.45,0.2,2.03,0.59c0.59,0.4,1.03,0.95,1.33,1.67c0.3,0.72,0.45,1.51,0.45,2.37c0,0.92-0.17,1.75-0.5,2.49
				c-0.33,0.74-0.81,1.3-1.44,1.69c-0.63,0.39-1.29,0.59-1.99,0.59c-0.51,0-0.96-0.11-1.37-0.32c-0.4-0.21-0.74-0.49-1-0.81v4.38
				H79.14z M80.52,83.03c0,1.16,0.23,2.01,0.7,2.57c0.47,0.55,1.04,0.83,1.7,0.83c0.68,0,1.26-0.29,1.74-0.86
				c0.48-0.57,0.72-1.46,0.72-2.66c0-1.15-0.24-2-0.71-2.58c-0.47-0.57-1.03-0.86-1.69-0.86c-0.65,0-1.22,0.3-1.72,0.91
				C80.77,80.99,80.52,81.87,80.52,83.03z"/>
			<path class="st0" d="M88.8,76.81v-1.75h1.52v1.75H88.8z M88.8,87.48v-9h1.52v9H88.8z"/>
			<path class="st0" d="M98.48,87.48v-1.14c-0.57,0.89-1.41,1.34-2.52,1.34c-0.72,0-1.38-0.2-1.98-0.59s-1.07-0.95-1.4-1.66
				s-0.5-1.52-0.5-2.44c0-0.9,0.15-1.71,0.45-2.44c0.3-0.73,0.75-1.29,1.35-1.68s1.27-0.58,2.01-0.58c0.54,0,1.03,0.11,1.45,0.34
				c0.42,0.23,0.77,0.53,1.03,0.89v-4.46h1.52v12.42H98.48z M93.66,82.99c0,1.15,0.24,2.01,0.73,2.58s1.06,0.86,1.72,0.86
				c0.67,0,1.23-0.27,1.7-0.82s0.7-1.38,0.7-2.49c0-1.23-0.24-2.13-0.71-2.71c-0.47-0.58-1.06-0.86-1.75-0.86
				c-0.68,0-1.24,0.28-1.7,0.83S93.66,81.79,93.66,82.99z"/>
			<path class="st0" d="M101.68,84.79l1.51-0.24c0.08,0.6,0.32,1.07,0.71,1.39s0.93,0.48,1.62,0.48c0.7,0,1.22-0.14,1.56-0.43
				c0.34-0.29,0.51-0.62,0.51-1c0-0.34-0.15-0.62-0.45-0.81c-0.21-0.14-0.73-0.31-1.56-0.52c-1.12-0.28-1.89-0.53-2.33-0.73
				c-0.43-0.21-0.76-0.49-0.98-0.86c-0.22-0.36-0.33-0.77-0.33-1.21c0-0.4,0.09-0.77,0.28-1.11s0.43-0.63,0.75-0.85
				c0.24-0.17,0.56-0.32,0.97-0.44c0.41-0.12,0.85-0.18,1.32-0.18c0.71,0,1.33,0.1,1.86,0.3s0.93,0.48,1.18,0.83
				s0.43,0.81,0.53,1.39l-1.49,0.2c-0.07-0.46-0.26-0.82-0.59-1.08c-0.32-0.26-0.78-0.39-1.38-0.39c-0.7,0-1.2,0.12-1.5,0.35
				c-0.3,0.23-0.45,0.5-0.45,0.81c0,0.2,0.06,0.38,0.19,0.53c0.12,0.16,0.32,0.3,0.58,0.41c0.15,0.06,0.6,0.19,1.35,0.39
				c1.08,0.29,1.83,0.52,2.26,0.71c0.43,0.18,0.76,0.45,1,0.8c0.24,0.35,0.36,0.78,0.36,1.3c0,0.51-0.15,0.99-0.44,1.44
				c-0.3,0.45-0.72,0.8-1.28,1.04c-0.56,0.25-1.19,0.37-1.9,0.37c-1.17,0-2.06-0.24-2.67-0.73
				C102.24,86.47,101.85,85.74,101.68,84.79z"/>
			<path class="st0" d="M110.36,84.79l1.51-0.24c0.08,0.6,0.32,1.07,0.71,1.39s0.93,0.48,1.62,0.48c0.7,0,1.22-0.14,1.56-0.43
				c0.34-0.29,0.51-0.62,0.51-1c0-0.34-0.15-0.62-0.45-0.81c-0.21-0.14-0.73-0.31-1.56-0.52c-1.12-0.28-1.89-0.53-2.33-0.73
				c-0.43-0.21-0.76-0.49-0.98-0.86c-0.22-0.36-0.33-0.77-0.33-1.21c0-0.4,0.09-0.77,0.28-1.11s0.43-0.63,0.75-0.85
				c0.24-0.17,0.56-0.32,0.97-0.44c0.41-0.12,0.85-0.18,1.32-0.18c0.71,0,1.33,0.1,1.86,0.3s0.93,0.48,1.18,0.83
				c0.25,0.35,0.43,0.81,0.53,1.39L116,81c-0.07-0.46-0.26-0.82-0.59-1.08c-0.32-0.26-0.78-0.39-1.38-0.39c-0.7,0-1.2,0.12-1.5,0.35
				c-0.3,0.23-0.45,0.5-0.45,0.81c0,0.2,0.06,0.38,0.19,0.53c0.12,0.16,0.32,0.3,0.58,0.41c0.15,0.06,0.6,0.19,1.35,0.39
				c1.08,0.29,1.83,0.52,2.26,0.71s0.76,0.45,1,0.8c0.24,0.35,0.36,0.78,0.36,1.3c0,0.51-0.15,0.99-0.44,1.44
				c-0.3,0.45-0.72,0.8-1.28,1.04c-0.56,0.25-1.19,0.37-1.9,0.37c-1.17,0-2.06-0.24-2.67-0.73
				C110.92,86.47,110.53,85.74,110.36,84.79z"/>
			<path class="st0" d="M119.61,87.48V75.06h1.52v12.42H119.61z"/>
			<path class="st0" d="M123.93,87.48v-1.74h1.74v1.74H123.93z"/>
			<path class="st0" d="M134.19,84.18l1.5,0.19c-0.16,1.03-0.58,1.84-1.26,2.43s-1.5,0.88-2.49,0.88c-1.23,0-2.22-0.4-2.97-1.21
				c-0.75-0.8-1.12-1.96-1.12-3.46c0-0.97,0.16-1.82,0.48-2.55s0.81-1.27,1.47-1.64c0.66-0.36,1.37-0.55,2.15-0.55
				c0.98,0,1.78,0.25,2.4,0.74c0.62,0.49,1.02,1.2,1.19,2.11l-1.48,0.23c-0.14-0.6-0.39-1.06-0.75-1.36
				c-0.36-0.3-0.79-0.46-1.3-0.46c-0.77,0-1.39,0.28-1.87,0.83c-0.48,0.55-0.72,1.42-0.72,2.61c0,1.21,0.23,2.09,0.69,2.63
				c0.46,0.55,1.07,0.82,1.81,0.82c0.6,0,1.1-0.18,1.5-0.55C133.83,85.51,134.08,84.94,134.19,84.18z"/>
			<path class="st0" d="M136.42,82.98c0-1.67,0.46-2.9,1.39-3.7c0.77-0.67,1.72-1,2.83-1c1.24,0,2.25,0.41,3.03,1.22
				c0.78,0.81,1.18,1.93,1.18,3.36c0,1.16-0.17,2.07-0.52,2.73c-0.35,0.66-0.85,1.18-1.52,1.55c-0.66,0.37-1.39,0.55-2.17,0.55
				c-1.26,0-2.28-0.4-3.05-1.21C136.81,85.66,136.42,84.5,136.42,82.98z M137.99,82.98c0,1.15,0.25,2.01,0.75,2.59
				s1.14,0.86,1.9,0.86c0.76,0,1.39-0.29,1.89-0.86c0.5-0.58,0.75-1.45,0.75-2.63c0-1.11-0.25-1.96-0.76-2.53
				c-0.51-0.57-1.13-0.86-1.88-0.86c-0.76,0-1.39,0.29-1.9,0.86S137.99,81.83,137.99,82.98z"/>
			<path class="st0" d="M146.64,87.48v-9H148v1.26c0.28-0.44,0.66-0.8,1.13-1.06c0.47-0.27,1-0.4,1.6-0.4
				c0.67,0,1.21,0.14,1.64,0.42c0.43,0.28,0.73,0.66,0.9,1.16c0.71-1.05,1.64-1.58,2.78-1.58c0.89,0,1.58,0.25,2.06,0.74
				c0.48,0.49,0.72,1.26,0.72,2.28v6.18h-1.52v-5.67c0-0.61-0.05-1.05-0.15-1.32c-0.1-0.27-0.28-0.48-0.54-0.65
				c-0.26-0.16-0.56-0.25-0.91-0.25c-0.63,0-1.16,0.21-1.58,0.63c-0.42,0.42-0.63,1.09-0.63,2.02v5.23h-1.52v-5.85
				c0-0.68-0.12-1.19-0.37-1.52c-0.25-0.34-0.66-0.51-1.22-0.51c-0.43,0-0.83,0.11-1.19,0.34c-0.36,0.23-0.63,0.56-0.79,0.99
				s-0.25,1.06-0.25,1.88v4.67H146.64z"/>
		</g>
	</g>
	<g>
		<path class="st0" d="M174.35,62.03h-27.04c-1.55,0-2.82,1.27-2.82,2.82c0,1.55,1.27,2.82,2.82,2.82h27.04
			c1.55,0,2.82-1.27,2.82-2.82C177.17,63.29,175.91,62.03,174.35,62.03z"/>
		<path class="st0" d="M147.02,60.51h27.04c1.55,0,2.82-1.27,2.82-2.82v0c0-1.55-1.27-2.82-2.82-2.82h-27.04
			c-1.55,0-2.82,1.27-2.82,2.82v0C144.21,59.24,145.47,60.51,147.02,60.51z"/>
		<path class="st0" d="M147.31,53.17h1.89v0.05l3.77-0.05h16.32l3.77,0.05v-0.05h1.29c1.55,0,2.82-1.27,2.82-2.82
			c0-1.55-1.27-2.82-2.82-2.82h-1.29v-3.57c0-5.9-4.83-10.73-10.73-10.73h-2.39c-5.9,0-10.73,4.83-10.73,10.73v3.57h-1.89
			c-1.55,0-2.82,1.27-2.82,2.82C144.49,51.9,145.76,53.17,147.31,53.17z M153.76,44.69c0-4.06,3.32-7.37,7.37-7.37
			c4.06,0,7.37,3.32,7.37,7.37v2.84h-14.75V44.69z"/>
	</g>
	<g>
		<path class="st0" d="M176.69,3.43L14.4,3.41c-5.95,0-10.77,5.17-10.77,11.55v16.38h162.29c5.95,0,10.77-5.17,10.77-11.55V3.43z"/>
		<g>
			<path class="st1" d="M12.36,19.87l2.81-0.27c0.17,0.94,0.51,1.63,1.03,2.08c0.52,0.44,1.21,0.66,2.09,0.66
				c0.93,0,1.63-0.2,2.1-0.59c0.47-0.39,0.71-0.85,0.71-1.38c0-0.34-0.1-0.62-0.3-0.86c-0.2-0.24-0.54-0.44-1.04-0.62
				c-0.34-0.12-1.11-0.32-2.31-0.62c-1.55-0.38-2.63-0.85-3.25-1.41c-0.88-0.79-1.32-1.74-1.32-2.87c0-0.73,0.21-1.41,0.62-2.04
				c0.41-0.63,1.01-1.12,1.78-1.45c0.78-0.33,1.71-0.5,2.81-0.5c1.79,0,3.14,0.39,4.05,1.18c0.91,0.79,1.38,1.83,1.43,3.15
				l-2.88,0.13c-0.12-0.73-0.39-1.26-0.79-1.58c-0.41-0.32-1.01-0.48-1.83-0.48c-0.84,0-1.49,0.17-1.97,0.52
				c-0.31,0.22-0.46,0.52-0.46,0.89c0,0.34,0.14,0.63,0.43,0.87c0.36,0.31,1.25,0.62,2.65,0.95s2.44,0.67,3.11,1.03
				c0.67,0.35,1.2,0.84,1.58,1.45c0.38,0.61,0.57,1.37,0.57,2.27c0,0.82-0.23,1.58-0.68,2.3c-0.45,0.71-1.1,1.25-1.93,1.59
				c-0.83,0.35-1.87,0.52-3.11,0.52c-1.81,0-3.19-0.42-4.16-1.25C13.12,22.69,12.54,21.47,12.36,19.87z"/>
			<path class="st1" d="M29.23,24.52V10.24h10.59v2.42h-7.71v3.17h7.17v2.41h-7.17v3.89h7.98v2.41H29.23z"/>
			<path class="st1" d="M54.51,19.27l2.8,0.89c-0.43,1.56-1.14,2.72-2.14,3.47c-1,0.76-2.26,1.13-3.79,1.13
				c-1.9,0-3.46-0.65-4.68-1.94c-1.22-1.3-1.83-3.07-1.83-5.31c0-2.38,0.61-4.22,1.84-5.54c1.23-1.32,2.84-1.97,4.84-1.97
				c1.75,0,3.17,0.52,4.26,1.55c0.65,0.61,1.14,1.49,1.46,2.63l-2.85,0.68c-0.17-0.74-0.52-1.32-1.06-1.75
				c-0.54-0.43-1.19-0.64-1.95-0.64c-1.06,0-1.92,0.38-2.58,1.14c-0.66,0.76-0.99,1.99-0.99,3.69c0,1.81,0.32,3.09,0.97,3.86
				c0.65,0.77,1.49,1.15,2.53,1.15c0.77,0,1.43-0.24,1.98-0.73C53.87,21.08,54.27,20.32,54.51,19.27z"/>
			<path class="st1" d="M62.59,10.24h2.88v7.74c0,1.23,0.04,2.02,0.11,2.39c0.12,0.58,0.42,1.05,0.88,1.41
				c0.46,0.35,1.1,0.53,1.9,0.53c0.82,0,1.44-0.17,1.85-0.5c0.42-0.33,0.67-0.75,0.75-1.23c0.08-0.49,0.13-1.3,0.13-2.43v-7.9h2.88
				v7.5c0,1.71-0.08,2.93-0.23,3.63c-0.16,0.71-0.44,1.31-0.86,1.79c-0.42,0.49-0.98,0.88-1.68,1.16s-1.62,0.43-2.75,0.43
				c-1.36,0-2.4-0.16-3.1-0.47c-0.7-0.31-1.26-0.72-1.67-1.23c-0.41-0.5-0.68-1.03-0.81-1.58c-0.19-0.82-0.28-2.03-0.28-3.62V10.24z
				"/>
			<path class="st1" d="M79.86,24.52V10.24h6.07c1.53,0,2.64,0.13,3.33,0.38c0.69,0.26,1.25,0.71,1.66,1.37
				c0.42,0.66,0.62,1.41,0.62,2.25c0,1.07-0.32,1.96-0.94,2.65c-0.63,0.7-1.57,1.14-2.83,1.32c0.62,0.36,1.14,0.76,1.54,1.2
				c0.41,0.44,0.95,1.21,1.64,2.32l1.74,2.79h-3.45l-2.08-3.11c-0.74-1.11-1.25-1.81-1.52-2.1c-0.27-0.29-0.56-0.49-0.87-0.59
				c-0.31-0.11-0.79-0.16-1.45-0.16h-0.58v5.96H79.86z M82.74,16.28h2.13c1.38,0,2.25-0.06,2.59-0.18s0.61-0.32,0.81-0.6
				c0.19-0.29,0.29-0.64,0.29-1.07c0-0.48-0.13-0.87-0.38-1.16c-0.26-0.3-0.62-0.48-1.09-0.56c-0.23-0.03-0.94-0.05-2.1-0.05h-2.25
				V16.28z"/>
			<path class="st1" d="M97.09,24.52V10.24h10.59v2.42h-7.71v3.17h7.17v2.41h-7.17v3.89h7.98v2.41H97.09z"/>
			<path class="st1" d="M113.22,10.24h5.27c1.19,0,2.09,0.09,2.72,0.27c0.84,0.25,1.56,0.69,2.15,1.32c0.6,0.63,1.05,1.4,1.36,2.31
				c0.31,0.91,0.47,2.04,0.47,3.38c0,1.18-0.15,2.19-0.44,3.04c-0.36,1.04-0.87,1.88-1.53,2.52c-0.5,0.49-1.18,0.87-2.03,1.14
				c-0.64,0.2-1.49,0.3-2.55,0.3h-5.43V10.24z M116.11,12.65v9.46h2.15c0.81,0,1.39-0.05,1.74-0.14c0.47-0.12,0.86-0.31,1.16-0.59
				c0.31-0.28,0.56-0.74,0.76-1.38c0.19-0.64,0.29-1.51,0.29-2.62c0-1.1-0.1-1.95-0.29-2.54c-0.19-0.59-0.47-1.05-0.82-1.38
				s-0.8-0.56-1.33-0.67c-0.4-0.09-1.19-0.14-2.37-0.14H116.11z"/>
			<path class="st1" d="M138.86,10.24h5.71c1.13,0,1.97,0.05,2.53,0.14c0.56,0.09,1.05,0.29,1.49,0.59c0.44,0.3,0.8,0.7,1.1,1.19
				c0.29,0.5,0.44,1.05,0.44,1.67c0,0.67-0.18,1.28-0.54,1.84c-0.36,0.56-0.85,0.98-1.47,1.26c0.87,0.25,1.54,0.69,2.01,1.3
				c0.47,0.61,0.7,1.33,0.7,2.15c0,0.65-0.15,1.28-0.45,1.89c-0.3,0.61-0.71,1.1-1.24,1.47c-0.52,0.37-1.17,0.59-1.93,0.68
				c-0.48,0.05-1.64,0.08-3.48,0.1h-4.86V10.24z M141.75,12.62v3.3h1.89c1.12,0,1.82-0.02,2.09-0.05c0.49-0.06,0.88-0.23,1.16-0.51
				c0.28-0.28,0.42-0.65,0.42-1.12c0-0.44-0.12-0.8-0.37-1.08c-0.24-0.28-0.61-0.44-1.09-0.5c-0.29-0.03-1.11-0.05-2.46-0.05H141.75
				z M141.75,18.3v3.82h2.67c1.04,0,1.7-0.03,1.98-0.09c0.43-0.08,0.78-0.27,1.05-0.57c0.27-0.3,0.4-0.71,0.4-1.21
				c0-0.43-0.1-0.79-0.31-1.09c-0.21-0.3-0.51-0.52-0.9-0.65c-0.39-0.14-1.25-0.2-2.56-0.2H141.75z"/>
			<path class="st1" d="M159.84,24.52v-6.01l-5.23-8.27h3.38l3.36,5.65l3.29-5.65h3.32l-5.25,8.29v5.99H159.84z"/>
		</g>
	</g>
</g>
</svg>
