<svg width="89" height="21" viewBox="0 0 89 21" fill="none" xmlns="http://www.w3.org/2000/svg">
<path fill-rule="evenodd" clip-rule="evenodd" d="M6.05937 10.951L8.75313 16.3854H12.225L9.33438 10.5198C11.2563 9.76663 12.225 8.34475 12.225 6.07913C12.225 2.86663 9.875 1.29163 7.02812 1.29163H0V16.3854H3.01875V10.951H6.05937ZM3.01875 4.22288H6.96562C8.3 4.22288 9.12187 4.78538 9.12187 6.14163C9.12187 7.45725 8.36563 8.10413 6.96562 8.10413H3.01875V4.22288Z" fill="#754C29"/>
<path fill-rule="evenodd" clip-rule="evenodd" d="M27.0594 15.7385C27.6 16.2354 28.4625 16.6229 29.4531 16.6229C32.2563 16.6229 33.8531 14.251 33.8531 10.8666C33.8531 6.6416 31.8688 4.8291 29.4531 4.8291C28.375 4.8291 27.6188 5.28223 27.0594 5.7791V5.0666H24.0844V20.5479L27.0594 19.0604V15.7385ZM27.0594 8.58223C27.4906 8.01973 27.9656 7.63223 28.8938 7.63223C30.0563 7.63223 30.8344 8.60098 30.8344 10.9322C30.8344 12.8322 30.2094 13.8229 29.0656 13.8229C28.2031 13.8229 27.5125 13.476 27.0594 12.851V8.58223Z" fill="#754C29"/>
<path fill-rule="evenodd" clip-rule="evenodd" d="M35.0187 2.43542C35.0187 3.36355 35.7937 4.13855 36.7219 4.13855C37.6469 4.13855 38.425 3.36042 38.425 2.43542C38.425 1.5073 37.65 0.7323 36.7219 0.7323C35.7937 0.7323 35.0187 1.5073 35.0187 2.43542ZM35.2344 5.06667V16.3854H38.2094V5.06667H35.2344Z" fill="#754C29"/>
<path fill-rule="evenodd" clip-rule="evenodd" d="M46.3375 15.6729V16.3854H49.3125V0.666626L46.3375 2.15413V5.7135C45.7969 5.21663 44.9344 4.82913 43.9438 4.82913C41.1406 4.82913 39.5438 7.201 39.5438 10.5854C39.5438 14.8104 41.5281 16.6229 43.9438 16.6229C45.0219 16.6229 45.7781 16.1698 46.3375 15.6729ZM44.3313 7.63225C45.1938 7.63225 45.8844 7.976 46.3375 8.601V12.8729C45.9063 13.4354 45.4313 13.8229 44.5031 13.8229C43.3375 13.8229 42.5625 12.851 42.5625 10.5229C42.5625 8.62288 43.1875 7.63225 44.3313 7.63225Z" fill="#754C29"/>
<path fill-rule="evenodd" clip-rule="evenodd" d="M56.5781 16.6229C54.0563 16.6229 51.8563 15.5666 50.7125 13.8854L52.8906 11.9448C53.9469 13.1729 55.3063 13.6698 56.75 13.6698C58.5406 13.6698 59.3813 13.1729 59.3813 12.0323C59.3813 11.0604 58.8625 10.6291 56.0188 9.98225C53.2375 9.33538 51.2969 8.451 51.2969 5.476C51.2969 2.7385 53.7125 1.05725 56.6875 1.05725C59.0375 1.05725 60.7625 1.94163 62.1844 3.42913L60.0063 5.54163C59.0375 4.551 57.9594 3.9885 56.5781 3.9885C54.9625 3.9885 54.4219 4.67913 54.4219 5.34788C54.4219 6.29788 55.0688 6.59788 57.4625 7.16038C59.8563 7.71975 62.5094 8.54163 62.5094 11.8166C62.5094 14.6823 60.6969 16.6229 56.5781 16.6229Z" fill="#F15A29"/>
<path fill-rule="evenodd" clip-rule="evenodd" d="M69 16.6229C66.4781 16.6229 64.2781 15.5666 63.1344 13.8854L65.3125 11.9448C66.3688 13.1729 67.7281 13.6698 69.1719 13.6698C70.9625 13.6698 71.8031 13.1729 71.8031 12.0323C71.8031 11.0604 71.2844 10.6291 68.4406 9.98225C65.6594 9.33538 63.7188 8.451 63.7188 5.476C63.7188 2.7385 66.1344 1.05725 69.1094 1.05725C71.4594 1.05725 73.1844 1.94163 74.6063 3.42913L72.4281 5.54163C71.4563 4.551 70.3813 3.9885 69 3.9885C67.3813 3.9885 66.8438 4.67913 66.8438 5.34788C66.8438 6.29788 67.4906 6.59788 69.8844 7.16038C72.2781 7.71975 74.9313 8.54163 74.9313 11.8166C74.9281 14.6823 73.1188 16.6229 69 16.6229Z" fill="#F15A29"/>
<path fill-rule="evenodd" clip-rule="evenodd" d="M79.9541 13.7101V1.66663H77V16.6666H85L83.2997 13.7101H79.9541Z" fill="#F15A29"/>
<path fill-rule="evenodd" clip-rule="evenodd" d="M15.2875 5.28514C16.1469 4.9436 17.05 4.76514 18.2875 4.76514C21.0281 4.76514 22.8813 6.16514 22.875 8.66975V16.1467H19.9V15.4021C19.3625 15.9528 18.4125 16.3774 17.3563 16.3774C15.2438 16.3774 13.1313 15.1036 13.1313 12.4082C13.1313 9.9436 15.1594 8.71283 17.725 8.71283C18.7594 8.71283 19.4281 8.92514 19.9031 9.15898V8.60821C19.9031 7.8236 19.3656 7.18668 18.2875 7.18668C16.9781 7.18668 16.2656 7.36821 15.2875 7.87591V5.28514ZM17.8375 13.8913C18.8063 13.8913 19.5844 13.4051 19.9063 12.8728V11.4728C19.3906 11.1528 18.8938 11.0051 17.8375 11.0051C16.7156 11.0051 16.1125 11.5128 16.1125 12.4051C16.1125 13.1898 16.5656 13.8913 17.8375 13.8913Z" fill="#754C29"/>
<path fill-rule="evenodd" clip-rule="evenodd" d="M86 15.1665C86 16.0191 86.6474 16.6665 87.5 16.6665C88.3526 16.6665 89 16.0191 89 15.1665C89 14.3139 88.3526 13.6665 87.5 13.6665C86.6474 13.6665 86 14.3139 86 15.1665ZM86.2653 15.1665C86.2653 14.4655 86.7989 13.9318 87.5 13.9318C88.2011 13.9318 88.7347 14.4623 88.7347 15.1665C88.7347 15.8676 88.2011 16.4012 87.5 16.4012C86.7989 16.4012 86.2653 15.8707 86.2653 15.1665ZM87.8916 15.3118L88.2074 15.956H87.8158L87.5221 15.356H87.2379V15.956H86.8937V14.317H87.6547C87.9705 14.317 88.2168 14.4844 88.2168 14.8318C88.2137 15.116 88.0653 15.2455 87.8916 15.3118ZM87.2379 14.6328H87.6295C87.7747 14.6328 87.8632 14.696 87.8632 14.8412C87.8632 14.977 87.7779 15.0528 87.6295 15.0528H87.2379V14.6328Z" fill="#F15A29"/>
</svg>
