<?xml version="1.0" encoding="utf-8"?>
<!-- Generator: Adobe Illustrator 25.2.3, SVG Export Plug-In . SVG Version: 6.00 Build 0)  -->
<svg version="1.1" id="Layer_1" xmlns="http://www.w3.org/2000/svg" xmlns:xlink="http://www.w3.org/1999/xlink" x="0px" y="0px"
	 width="101.3px" height="24px" viewBox="0 0 101.3 24" style="enable-background:new 0 0 101.3 24;" xml:space="preserve">
<style type="text/css">
	.st0{fill:#0650A0;}
	.st1{fill:#EB234E;}
</style>
<g>
	<path class="st0" d="M46.1,9.1c-0.6-0.3-1.4-0.6-2.3-0.6c-2.2,0-3.5,1.1-4.1,1.5l0.8-4.8h-3.2l-2.2,12.9h3.2l1.2-7
		c0.8-0.6,1.8-1.1,2.8-1.1c0.6,0,1,0.2,1.3,0.4c0.6,0.5,0.5,1.3,0.3,2.2L43,18.2h3.2l1.1-6.2C47.3,11.2,47.5,10,46.1,9.1 M54.4,8.5
		c-3.6,0-4.8,1.6-5.5,2.5l0.8,0.3c0.6-0.5,1.5-1.4,3.6-1.4c0.9,0,2.2,0.2,2.6,1.2c0.2,0.4,0.2,0.8,0.1,1.2h0.1l-0.5,2.9h-0.1
		l-0.2,1.1c-0.7,0.3-1.5,0.7-2.6,0.7c-1.6,0-2-0.9-1.9-1.7c0.2-1.2,1.5-1.8,2.9-1.8c0.4,0,0.8,0.1,1.2,0.1l0.2-1.3
		c-0.6-0.1-1.2-0.2-1.9-0.2c-2.8,0-5.3,1.2-5.6,3.4c-0.3,1.7,1.1,3,3.5,3c2.3,0,3.6-0.9,4.2-1.3l-0.2,1.1h3l0.9-5.6
		c0.2-0.9,0.3-2.1-0.7-3C57.7,9,56.5,8.5,54.4,8.5 M82,17.5c-0.2,0-1.2,0-1.6-0.8c-0.2-0.3-0.3-0.7-0.1-1.5l0.7-4.3h3.4l0.3-2h-3.4
		l0.4-2.5h-3.2l-0.4,2.5h-3.3l-2.9,4.7l-0.5,0.9c-0.2-0.5-0.2-0.6-0.3-1.1l-1.7-4.5h-1.1l-4.1,5.5c-0.1-0.4-0.1-0.6-0.2-1l-1.2-4.5
		h-3.3l2.9,9.5h1.2l4.1-5.5l2.3,5.5h1.2l4.9-7.5h1.8L77,15.5c-0.1,0.8-0.2,1.7,0.6,2.3c0.8,0.7,2,0.8,2.6,0.8c1.5,0,2.5-0.4,3.3-0.8
		l-0.3-0.6C82.8,17.4,82.5,17.5,82,17.5 M88.5,12.4c-0.1,0.1-0.1,0.3-0.2,0.9c-0.1,0.2-0.1,0.4-0.1,0.6h8.4c0.2-1.1,0.4-2.8-1.1-4.1
		c-1.3-1.2-3.2-1.3-4.2-1.3c-4.3,0-6.9,2.2-7.4,5c-0.5,2.9,1.4,5.2,5.8,5.2c4.1,0,5.5-1.9,6.1-2.9l-0.7-0.3c-1,0.8-2,1.7-4.2,1.7
		c-3.2,0-3.6-1.9-3.7-2.9c0-0.1-0.1-0.2,0.1-0.9c0.1-0.7,0.3-0.9,0.3-0.9C88,11.3,88.7,10,91,10c2.4,0,2.4,1.5,2.4,2.4
		C93.3,12.4,88.5,12.4,88.5,12.4z M32.5,6.4h-3.2l-1.5,9.2c-0.1,0.8-0.2,1.7,0.6,2.3c0.8,0.7,2,0.8,2.6,0.8c1.5,0,2.5-0.4,3.3-0.8
		L34,17.3c-0.4,0.1-0.7,0.2-1.2,0.2c-0.2,0-1.2,0-1.6-0.8c-0.2-0.3-0.3-0.7-0.1-1.5l0.7-4.3h2.5l0.3-2h-2.5L32.5,6.4z"/>
	<path class="st1" d="M12,0C5.4,0,0,5.4,0,12s5.4,12,12,12s12-5.4,12-12C24.1,5.4,18.6,0,12,0 M12,21.6c-5.3,0-9.6-4.3-9.6-9.6
		S6.7,2.4,12,2.4s9.6,4.3,9.6,9.6C21.7,17.3,17.4,21.6,12,21.6 M13.2,6.1H10l-1.5,9.2c-0.1,0.8-0.2,1.7,0.6,2.3
		c0.8,0.7,2,0.8,2.6,0.8c1.5,0,2.5-0.4,3.3-0.8l-0.3-0.6c-0.4,0.1-0.7,0.2-1.2,0.2c-0.2,0-1.2,0-1.6-0.8c-0.2-0.3-0.3-0.7-0.1-1.5
		l0.7-4.3H15l0.3-2h-2.6L13.2,6.1z"/>
	<path class="st0" d="M98.2,7.2h-0.8v2h-0.7v-2h-0.8V6.7h2.2L98.2,7.2L98.2,7.2z M101.2,9.3h-0.7V7.6l-0.4,1.1h-0.4l-0.4-1.1v1.7
		h-0.6V6.7h0.8L99.9,8l0.6-1.3h0.8L101.2,9.3L101.2,9.3z"/>
</g>
</svg>
