<svg width="168" height="85" viewBox="0 0 168 85" fill="none" xmlns="http://www.w3.org/2000/svg">
<path fill-rule="evenodd" clip-rule="evenodd" d="M31.64 58.7329H140.124C155.512 58.4382 167.832 45.8853 167.832 30.5015C167.832 15.1178 155.512 2.56487 140.124 2.27013H31.64C21.4205 2.07438 11.8923 7.41203 6.72523 16.2273C1.5581 25.0427 1.5581 35.9604 6.72523 44.7757C11.8923 53.591 21.4205 58.9287 31.64 58.7329ZM5.61037 30.4963C5.61037 16.1268 17.2642 4.47806 31.64 4.47806H140.124C154.5 4.47806 166.154 16.1268 166.154 30.4963C166.154 44.8659 154.5 56.5146 140.124 56.5146H31.64C17.2642 56.5146 5.61037 44.8659 5.61037 30.4963Z" fill="#ABB5BF"/>
<path fill-rule="evenodd" clip-rule="evenodd" d="M161.798 2.27011V2.98535H160.761V6.48901H159.942V2.98535H158.916V2.27011H161.798V2.27011Z" fill="#ABB5BF"/>
<path fill-rule="evenodd" clip-rule="evenodd" d="M162.39 6.48901V2.27011H163.489L164.225 5.02743L164.972 2.27011H166.082V6.48901H165.407V3.18231H165.387L164.536 6.48901H163.935L163.074 3.18231H163.064V6.48901H162.39V6.48901Z" fill="#ABB5BF"/>
<path fill-rule="evenodd" clip-rule="evenodd" d="M85.0889 15.0823C86.0785 15.0654 87.0572 15.2896 87.9408 15.7354C89.6902 16.7287 89.4247 18.2902 89.2484 19.3268L89.2474 19.3323L87.9615 26.9512H84.1037L85.2859 20.1512C85.4726 19.0732 85.5971 18.1299 84.8919 17.4975C84.4356 17.1282 83.8608 16.9367 83.2741 16.9585C82.0146 17.0296 80.8129 17.5101 79.8519 18.3268L78.3585 26.9512H74.5008L77.1867 11.0811H81.0341L80.0489 16.8756C81.4662 15.7049 83.2504 15.07 85.0889 15.0823ZM130.055 24.9506C130.464 25.6398 131.225 26.0406 132.025 25.9872V25.9146C132.538 25.9033 133.046 25.8266 133.539 25.6866L133.882 26.4018C132.64 27.0128 131.273 27.3285 129.889 27.3244C128.744 27.3883 127.612 27.0551 126.684 26.3811C125.915 25.6576 125.629 24.5576 125.948 23.5512L126.913 17.8396H124.776L118.803 26.9927H117.413L114.634 20.2963L109.584 26.9927H108.163L104.616 15.4036H108.64L110.133 20.9701C110.168 21.127 110.196 21.2487 110.221 21.3577C110.278 21.6089 110.32 21.7926 110.393 22.1829L115.402 15.4036H116.677L118.699 20.9494C118.801 21.2263 118.852 21.3884 118.909 21.5634C118.962 21.729 119.019 21.9063 119.124 22.2036L119.747 21.1671L123.273 15.4347H127.338L127.867 12.325H131.735L131.206 15.4347H135.427L135.012 17.8811H130.791L129.899 23.1262C129.718 23.7321 129.774 24.3841 130.055 24.9506ZM71.3067 12.3457H67.4074L65.5408 23.6238C65.2218 24.6301 65.508 25.7301 66.2771 26.4536C67.2046 27.1276 68.3365 27.4608 69.4815 27.3969C70.8623 27.3999 72.225 27.0841 73.4637 26.4744L73.1215 25.7591C72.6286 25.8992 72.1198 25.9758 71.6074 25.9872C70.804 26.0446 70.0372 25.6433 69.6267 24.9506C69.3581 24.3913 69.3064 23.7524 69.4815 23.1573L70.3734 17.9122H73.4845L73.8993 15.4866H70.7882L71.3067 12.3457ZM140 19.7677C139.845 20.0944 139.747 20.4448 139.71 20.8043C139.71 21.0026 139.676 21.1719 139.648 21.3122C139.635 21.3771 139.623 21.4359 139.616 21.4884H149.914L149.918 21.4626C150.105 20.2051 150.42 18.0878 148.649 16.4817C147.16 15.3645 145.322 14.8133 143.464 14.9268C138.206 14.9268 134.96 17.6634 134.39 21.0427C133.788 24.5671 136.121 27.4177 141.462 27.4177C146.564 27.4177 148.161 25.0646 149.012 23.8L148.11 23.4372C146.746 24.8205 144.866 25.572 142.924 25.5104C138.994 25.5104 138.465 23.178 138.393 21.9756C138.32 21.6339 138.32 21.2807 138.393 20.939C138.438 20.5284 138.554 20.1286 138.735 19.7573C139.313 17.8683 141.144 16.6494 143.111 16.8445C146.015 16.8445 146.015 18.7311 146.015 19.7677H140ZM98.1763 14.9786C93.7689 14.9786 92.2652 16.9585 91.4459 18.0884L92.3689 18.4719C93.5347 17.3313 95.1146 16.7138 96.7452 16.7616C97.8445 16.7616 99.4519 17.0518 99.9393 18.2646C100.099 18.7236 100.149 19.2135 100.084 19.6951H100.167L99.5556 23.3024H99.4934L99.2652 24.6396C98.2794 25.1603 97.1858 25.4442 96.0711 25.4689C94.1319 25.4689 93.5822 24.4323 93.7482 23.3957C93.9971 21.9341 95.6252 21.2396 97.3363 21.2396C97.8034 21.2384 98.2692 21.287 98.7259 21.3847L99.0163 19.6951C98.2328 19.5252 97.4329 19.4418 96.6311 19.4463C93.1778 19.4463 90.1082 20.9286 89.6622 23.5927C89.3097 25.6658 90.9585 27.2725 93.9659 27.2725C95.807 27.3026 97.607 26.7272 99.0889 25.6347L98.8711 26.9512H102.615L103.787 20.0061C104.202 18.7001 103.877 17.2716 102.936 16.2744C102.21 15.6006 100.696 14.9475 98.1659 14.9475L98.1763 14.9786Z" fill="#005999"/>
<path fill-rule="evenodd" clip-rule="evenodd" d="M154.83 15.9323H155.628L155.639 12.8226H154.705L154.01 14.3774L153.316 12.8226H152.382V15.9323H153.139V13.8592L153.71 15.2067H154.259L154.83 13.8592V15.9323ZM150.93 13.4756H151.895L151.905 12.8744H149.167V13.4756H150.132V15.9738H150.93V13.4756Z" fill="#005999"/>
<path fill-rule="evenodd" clip-rule="evenodd" d="M66.3704 47.3719L67.4074 45.8274C68.4202 46.5728 69.6445 46.9759 70.9022 46.978C72.3437 46.978 73.2252 46.325 73.2252 45.1951C73.2252 43.889 72.1052 43.5469 70.2593 42.9043C68.6104 42.3238 66.9822 41.4945 66.9822 39.1518C66.9822 36.8091 68.7141 35.7622 71.037 35.7622C72.2908 35.7081 73.5354 35.9985 74.6355 36.6018L73.837 38.25C72.9824 37.8042 72.0321 37.573 71.0681 37.5762C69.7718 37.5762 68.9941 38.0634 68.9941 39.0896C68.9941 40.3024 69.8963 40.603 71.5867 41.1628C73.277 41.7226 75.2993 42.5518 75.2993 45.1433C75.2993 47.3305 73.7333 48.7817 70.9126 48.7817C69.284 48.8286 67.686 48.3326 66.3704 47.3719" fill="#334047"/>
<path fill-rule="evenodd" clip-rule="evenodd" d="M79.0222 35.9695H86.5511V37.711H81.1585V41.1732H85.4207V42.8835H81.1585V46.8848H86.883V48.6262H79.0222V35.9695V35.9695Z" fill="#334047"/>
<path fill-rule="evenodd" clip-rule="evenodd" d="M89.9422 42.3134C89.9422 38.6232 91.7052 35.7726 95.2415 35.7726C96.6534 35.6914 98.0249 36.2604 98.9644 37.3171L97.72 38.7683C97.1168 38.0569 96.2261 37.6536 95.2933 37.6695C93.2192 37.6695 92.2652 39.3695 92.2652 42.5C92.2652 45.4439 93.3022 46.9366 95.3141 46.9366C96.3362 46.893 97.2893 46.4091 97.9274 45.6098L99.1926 47.0195C98.2558 48.217 96.8029 48.895 95.2829 48.8439C91.6429 48.8439 89.9526 46.0659 89.9526 42.3549" fill="#334047"/>
<path fill-rule="evenodd" clip-rule="evenodd" d="M102.667 43.7854V35.9695H104.824V44.1378C104.824 45.8793 105.259 47.0195 107.095 47.0195C108.93 47.0195 109.366 45.8793 109.366 44.1378V35.9695H111.544V43.7854C111.544 46.8951 110.341 48.8024 107.074 48.8024C103.807 48.8024 102.667 46.9262 102.667 43.7854" fill="#334047"/>
<path fill-rule="evenodd" clip-rule="evenodd" d="M122.443 48.6262H124.787L122.173 42.9561C123.637 42.5412 124.627 41.1793 124.569 39.6598C124.569 36.8921 122.578 35.9695 120.016 35.9695H115.868V48.6262H118.015V43.2567H120.016L122.443 48.6262ZM122.36 39.6183C122.36 41.0799 121.53 41.6085 119.923 41.6085L117.984 41.5982V37.711H120.058C121.52 37.711 122.36 38.1567 122.36 39.6183Z" fill="#334047"/>
<path fill-rule="evenodd" clip-rule="evenodd" d="M128.458 35.9695H135.987V37.711H130.594V41.1732H134.846V42.8835H130.594V46.8848H136.308V48.6262H128.458V35.9695V35.9695Z" fill="#334047"/>
<path fill-rule="evenodd" clip-rule="evenodd" d="M143.039 35.9695H139.927L139.876 48.6262H143.153C147.135 48.6262 149.157 46.2939 149.157 42.2512C149.157 38.2085 147.187 35.9695 143.039 35.9695ZM146.927 42.2512C146.927 45.5165 145.921 46.8848 142.966 46.8848L142.074 46.8744V37.711H143.225C146.139 37.711 146.927 39.3902 146.927 42.2512Z" fill="#334047"/>
<path fill-rule="evenodd" clip-rule="evenodd" d="M100.209 72.8512C99.4427 73.7779 99.0507 74.9572 99.1096 76.1579H99.0889C99.0297 77.3484 99.3975 78.5209 100.126 79.4646C100.811 80.2983 101.847 80.7626 102.926 80.7189C103.306 80.7213 103.685 80.6618 104.046 80.5427C104.336 80.4554 104.612 80.3262 104.865 80.1592C105.063 80.0172 105.24 79.8499 105.394 79.6616C105.499 79.5401 105.596 79.4119 105.684 79.2781L105.778 79.1018V79.6823V80.5116H107.396V68.4146H105.726V72.3951C105.713 72.5884 105.713 72.7823 105.726 72.9756L105.653 72.8409C105.567 72.7157 105.466 72.6009 105.353 72.4988C105.196 72.3493 105.03 72.2107 104.855 72.0842C104.62 71.9271 104.361 71.8114 104.087 71.7421C103.75 71.6499 103.401 71.6046 103.05 71.6073C101.964 71.5732 100.92 72.0301 100.209 72.8512ZM101.484 78.4281C101.007 77.7745 100.769 76.9766 100.81 76.1683V76.1579C100.765 75.3346 101.023 74.5232 101.536 73.8774C101.976 73.3418 102.637 73.0363 103.33 73.0482C104.055 73.0173 104.743 73.3672 105.145 73.9707C105.582 74.6111 105.807 75.3726 105.788 76.1476C105.851 76.9921 105.592 77.8292 105.062 78.4903C104.609 79.0033 103.953 79.2913 103.268 79.2781C102.571 79.2979 101.908 78.9816 101.484 78.4281Z" fill="#0073C2"/>
<path fill-rule="evenodd" clip-rule="evenodd" d="M110.517 68.3732H108.827V70.0732H110.517V68.3732ZM110.496 71.8146H108.827V80.5219H110.496V71.8146Z" fill="#0073C2"/>
<path fill-rule="evenodd" clip-rule="evenodd" d="M115.433 82.6262C114.598 82.6374 113.774 82.4378 113.037 82.0457L112.425 83.3415C113.344 83.8191 114.365 84.068 115.401 84.0671C115.949 84.0696 116.494 83.9928 117.019 83.839C117.52 83.6946 117.994 83.4668 118.419 83.1653C118.869 82.8494 119.227 82.4202 119.456 81.9213C119.714 81.3482 119.841 80.7252 119.83 80.097V71.8043H118.233V72.6128C118.226 72.7025 118.226 72.7926 118.233 72.8823L118.15 72.7579C118.08 72.6326 117.988 72.5204 117.88 72.4262C117.724 72.2864 117.557 72.1582 117.382 72.0427C117.14 71.8886 116.874 71.7764 116.594 71.711C116.255 71.6277 115.906 71.5859 115.557 71.5866C114.489 71.536 113.458 71.9842 112.767 72.7994C112.062 73.6792 111.694 74.7821 111.73 75.9092C111.68 77.0635 112.048 78.1971 112.767 79.1018C113.463 79.9404 114.509 80.4078 115.598 80.3665C116.647 80.4382 117.646 79.9127 118.181 79.0085V79.5579V80.1903C118.236 80.8907 117.955 81.5758 117.424 82.0354C116.847 82.4545 116.144 82.6631 115.433 82.6262ZM117.569 78.2622C117.146 78.7292 116.539 78.9869 115.91 78.9671V78.936C115.196 78.9632 114.512 78.6519 114.064 78.0963C113.584 77.4633 113.342 76.6818 113.379 75.8884C113.345 75.1452 113.569 74.413 114.012 73.8153C114.44 73.3007 115.085 73.0168 115.754 73.0482C117.393 73.0482 118.212 74.0226 118.212 75.9713C118.286 76.788 118.057 77.6035 117.569 78.2622Z" fill="#0073C2"/>
<path fill-rule="evenodd" clip-rule="evenodd" d="M122.93 68.3732H121.24L121.23 70.0732H122.93V68.3732ZM122.91 71.8146H121.24V80.5219H122.91V71.8146Z" fill="#0073C2"/>
<path fill-rule="evenodd" clip-rule="evenodd" d="M124.133 76.1683C124.109 74.9429 124.598 73.763 125.481 72.9134C126.371 72.0371 127.583 71.5649 128.831 71.6073C129.441 71.6018 130.046 71.7108 130.615 71.9287C131.012 72.0748 131.38 72.2887 131.704 72.561L132.036 72.8719L131.247 74.0433L130.947 73.7634C130.69 73.5804 130.411 73.4306 130.117 73.3177C129.712 73.1389 129.274 73.047 128.831 73.0482C128.017 73.0263 127.231 73.3458 126.664 73.9293C126.087 74.5209 125.776 75.3219 125.803 76.1476C125.782 76.9804 126.095 77.787 126.674 78.3866C127.253 78.9803 128.054 79.3038 128.883 79.278C129.361 79.2788 129.835 79.18 130.273 78.9878C130.631 78.8499 130.964 78.6537 131.258 78.4073L131.569 78.1171L132.243 79.3402L132.098 79.4854C131.973 79.603 131.841 79.7138 131.704 79.8171C131.483 79.9809 131.247 80.1232 130.998 80.2421C130.685 80.3825 130.358 80.4936 130.024 80.5738C129.621 80.6785 129.206 80.7308 128.79 80.7293C127.557 80.7607 126.364 80.2935 125.481 79.4335C124.61 78.5743 124.137 77.391 124.175 76.1683" fill="#0073C2"/>
<path fill-rule="evenodd" clip-rule="evenodd" d="M133.705 72.8927C132.862 73.7822 132.417 74.9755 132.471 76.1994L132.554 76.1372C132.515 77.3674 132.991 78.5581 133.867 79.4234C134.742 80.2888 135.939 80.7507 137.169 80.6982C137.787 80.699 138.399 80.5829 138.973 80.3561C139.376 80.2166 139.763 80.0323 140.124 79.8067C140.27 79.7018 140.409 79.5875 140.539 79.4646L139.855 78.2415L139.544 78.5006C139.249 78.708 138.928 78.8753 138.59 78.9982C138.171 79.1681 137.724 79.256 137.273 79.2573C136.512 79.2778 135.772 79.0114 135.199 78.511C134.62 77.9752 134.287 77.226 134.276 76.4378H140.622V75.7122C140.651 74.643 140.282 73.6011 139.585 72.789C138.885 72.0053 137.866 71.582 136.816 71.6384C135.649 71.6 134.519 72.0554 133.705 72.8927ZM138.901 75.1524H134.255L134.244 75.1628C134.323 74.5281 134.633 73.9448 135.116 73.525C135.585 73.1311 136.182 72.9211 136.796 72.9341C137.342 72.9227 137.872 73.1276 138.268 73.5043C138.691 73.9471 138.919 74.5406 138.901 75.1524Z" fill="#0073C2"/>
<path fill-rule="evenodd" clip-rule="evenodd" d="M141.804 80.5116V71.8043H143.422V73.3177V73.9707V73.9707C143.606 73.3377 143.966 72.7698 144.459 72.3329C144.931 71.9168 145.541 71.6914 146.17 71.7006H146.596V73.3903C146.439 73.3553 146.279 73.3379 146.119 73.3384C145.574 73.339 145.049 73.5338 144.636 73.8878C144.173 74.2786 143.837 74.7982 143.671 75.3805C143.525 75.8891 143.455 76.4166 143.464 76.9457V80.5012L141.804 80.5116Z" fill="#0073C2"/>
<path fill-rule="evenodd" clip-rule="evenodd" d="M148.742 77.3293V73.2762H147.602V71.9287H148.784V69.4512H150.37V71.9598H152.444V73.297H150.37V77.1634C150.363 77.4594 150.408 77.7544 150.505 78.0342C150.575 78.2483 150.688 78.4458 150.837 78.6146C150.97 78.7545 151.128 78.8671 151.304 78.9464C151.455 79.0187 151.616 79.071 151.781 79.1018C151.926 79.1132 152.071 79.1132 152.216 79.1018H152.61V80.5842C152.417 80.5974 152.223 80.5974 152.03 80.5842C151.767 80.6023 151.504 80.6023 151.242 80.5842C150.944 80.5366 150.655 80.4494 150.381 80.325C150.074 80.1966 149.793 80.014 149.551 79.786C149.285 79.5144 149.08 79.1893 148.95 78.8323C148.775 78.3724 148.691 77.8833 148.701 77.3915" fill="#0073C2"/>
<path fill-rule="evenodd" clip-rule="evenodd" d="M152.33 69.6171C152.33 68.9186 152.897 68.3524 153.596 68.3524C153.932 68.3496 154.255 68.482 154.493 68.7198C154.731 68.9575 154.864 69.2808 154.861 69.6171C154.861 70.3155 154.294 70.8817 153.596 70.8817C152.897 70.8817 152.33 70.3155 152.33 69.6171ZM152.559 69.586C152.559 70.1585 153.023 70.6226 153.596 70.6226C154.168 70.6226 154.633 70.1585 154.633 69.586C154.633 69.0135 154.168 68.5494 153.596 68.5494C153.023 68.5494 152.559 69.0135 152.559 69.586Z" fill="#0073C2"/>
<path fill-rule="evenodd" clip-rule="evenodd" d="M153.15 68.9122V70.3116L153.305 70.2598V69.7104H153.606L153.896 70.2598H154.114L153.813 69.7207V69.6585C153.889 69.6365 153.955 69.5889 154 69.5238C154.048 69.4536 154.073 69.3704 154.073 69.2854C154.075 69.2016 154.053 69.119 154.01 69.047C153.969 68.9831 153.907 68.9356 153.834 68.9122C153.748 68.8981 153.661 68.8981 153.575 68.9122H153.15ZM153.627 69.586H153.347V69.1092H153.575C153.636 69.0953 153.7 69.0953 153.762 69.1092C153.839 69.1533 153.883 69.2382 153.876 69.3268C153.88 69.3948 153.858 69.4618 153.813 69.5134C153.765 69.5638 153.697 69.5903 153.627 69.586Z" fill="#0073C2"/>
<path fill-rule="evenodd" clip-rule="evenodd" d="M18.6874 79.5061C19.309 78.5912 19.6215 77.5015 19.5793 76.3963L19.5689 76.2616C19.6378 75.1098 19.3203 73.968 18.6667 73.0171C18.0902 72.2529 17.176 71.8193 16.2193 71.8561C15.2607 71.8107 14.3373 72.2222 13.7304 72.9652L13.6578 72.0116H12.32V83.8183H13.803V79.6719C14.4249 80.3688 15.3273 80.7494 16.2607 80.7085C17.2198 80.738 18.1302 80.2868 18.6874 79.5061ZM17.4845 73.9396C17.9317 74.6171 18.1498 75.42 18.1067 76.2305C18.1734 77.1196 17.9515 78.0066 17.4741 78.7597C17.0909 79.3041 16.4597 79.6196 15.7941 79.5994C14.9528 79.6327 14.1683 79.1759 13.7822 78.428V74.2817C14.1618 73.5314 14.9431 73.0701 15.7837 73.1C16.4561 73.0746 17.0959 73.3905 17.4845 73.9396Z" fill="#707D87"/>
<path fill-rule="evenodd" clip-rule="evenodd" d="M21.5496 73.95C21.21 74.658 21.0396 75.4351 21.0518 76.2201L21.0207 76.3238C20.9508 77.487 21.321 78.6341 22.0578 79.5372C22.7728 80.3439 23.8113 80.7888 24.8889 80.75C25.6197 80.767 26.34 80.5726 26.963 80.1903C27.5642 79.817 28.0435 79.2767 28.3422 78.6354C28.6701 77.9315 28.8333 77.1623 28.8193 76.386V76.2823C28.8898 75.1158 28.5197 73.9654 27.7822 73.0585C27.0663 72.253 26.0284 71.8084 24.9511 71.8457C24.2385 71.8333 23.5371 72.0238 22.9289 72.3951C22.3296 72.7707 21.8509 73.3104 21.5496 73.95ZM23.1881 78.6872C22.7179 78.0188 22.4843 77.2125 22.5244 76.3964C22.4654 75.5246 22.695 74.6577 23.1778 73.9293C23.5819 73.3684 24.2392 73.0457 24.9304 73.0689C25.6323 73.0468 26.2999 73.3727 26.7141 73.9396C27.188 74.6068 27.4252 75.4131 27.3881 76.2305C27.4426 77.0985 27.2133 77.9607 26.7348 78.6872C26.3107 79.2366 25.6557 79.5583 24.9615 79.5583C24.2673 79.5583 23.6123 79.2366 23.1881 78.6872Z" fill="#707D87"/>
<path fill-rule="evenodd" clip-rule="evenodd" d="M38.3082 78.5628L39.957 72.0012H41.4296L38.9304 80.5841H37.7378L35.6637 74.0848L33.5896 80.5841H32.4282L29.9393 72.0012H31.4015L33.0919 78.4281L35.0933 72.0012H36.2963L38.3082 78.5628Z" fill="#707D87"/>
<path fill-rule="evenodd" clip-rule="evenodd" d="M43.6385 79.5994C44.3787 80.3696 45.4122 80.7881 46.48 80.75C47.7787 80.8203 49.0148 80.1867 49.7156 79.0915L48.8237 78.3969C48.5664 78.7352 48.2459 79.0203 47.88 79.2366C47.478 79.4605 47.0229 79.5715 46.563 79.5579C45.8763 79.5769 45.2162 79.2925 44.7585 78.7805C44.2597 78.2067 43.9934 77.4673 44.0118 76.7073H49.8296V76.0128C49.892 74.899 49.5617 73.7986 48.8963 72.903C48.2448 72.1548 47.2841 71.7493 46.2933 71.8043C45.6184 71.8037 44.9583 72.002 44.3956 72.3744C43.8027 72.759 43.3287 73.301 43.0267 73.9396C42.693 74.6529 42.5263 75.4328 42.5393 76.2201V76.4896C42.4719 77.6319 42.8682 78.753 43.6385 79.5994ZM44.8 73.7012C45.1812 73.281 45.7259 73.0465 46.2933 73.0585C46.8301 73.0477 47.3449 73.271 47.7037 73.6701C48.1115 74.1564 48.3419 74.7668 48.357 75.4012V75.5152H44.0533C44.0999 74.8459 44.3618 74.2095 44.8 73.7012Z" fill="#707D87"/>
<path fill-rule="evenodd" clip-rule="evenodd" d="M55.6681 73.3281C55.428 73.291 55.1852 73.2737 54.9422 73.2762C54.088 73.2094 53.2912 73.7109 52.9822 74.5098V80.6049H51.52V72.0116H52.9511V73.0482C53.373 72.3073 54.173 71.8635 55.0252 71.8976C55.2487 71.8865 55.4719 71.9254 55.6785 72.0116L55.6681 73.3281Z" fill="#707D87"/>
<path fill-rule="evenodd" clip-rule="evenodd" d="M57.7422 79.5994C58.4824 80.3696 59.5159 80.7881 60.5837 80.75C61.8679 80.8052 63.0845 80.1734 63.7778 79.0915L62.8859 78.3969C62.6286 78.7352 62.3081 79.0203 61.9422 79.2366C61.5402 79.4605 61.0851 79.5715 60.6252 79.5579C59.9385 79.5769 59.2784 79.2925 58.8207 78.7805C58.3219 78.2067 58.0556 77.4673 58.0741 76.7073H63.9333V76.0128C63.9957 74.899 63.6654 73.7986 63 72.903C62.3485 72.1548 61.3878 71.7493 60.397 71.8043C59.7221 71.8037 59.062 72.002 58.4993 72.3744C57.9064 72.759 57.4324 73.301 57.1304 73.9396C56.7967 74.6529 56.63 75.4328 56.643 76.2201V76.4896C56.5756 77.6319 56.9719 78.753 57.7422 79.5994ZM58.9037 73.7012C59.2849 73.281 59.8296 73.0465 60.397 73.0585C60.9517 73.0322 61.4887 73.2568 61.8593 73.6701C62.2484 74.1633 62.4603 74.7731 62.4607 75.4012V75.5152H58.157C58.2036 74.8459 58.4655 74.2095 58.9037 73.7012Z" fill="#707D87"/>
<path fill-rule="evenodd" clip-rule="evenodd" d="M66.2045 73.0585C65.5445 73.9804 65.2156 75.0982 65.2711 76.2305L65.2815 76.2927C65.2283 77.4327 65.5607 78.5573 66.2252 79.4854C66.7851 80.2655 67.6915 80.7223 68.6519 80.7085C69.585 80.7649 70.4907 80.3813 71.0993 79.672L71.1719 80.5945H72.52V68.4146H71.0474V72.8823C70.4171 72.1954 69.5172 71.8191 68.5852 71.8531C67.6533 71.887 66.7831 72.3276 66.2045 73.0585ZM67.3452 78.6768C66.9081 77.9996 66.6975 77.201 66.7437 76.3963C66.678 75.5325 66.8848 74.6697 67.3348 73.9293C67.7178 73.3859 68.3503 73.0737 69.0148 73.1C69.8883 73.0463 70.7077 73.5254 71.0889 74.3128V78.2518C70.7224 79.0574 69.8988 79.5555 69.0148 79.5061C68.3535 79.5308 67.7249 79.2186 67.3452 78.6768Z" fill="#707D87"/>
<path fill-rule="evenodd" clip-rule="evenodd" d="M85.1719 79.5061C85.8025 78.595 86.1193 77.5034 86.0741 76.3963V76.272C86.1413 75.1266 85.8317 73.9908 85.1926 73.0378C84.6209 72.2599 83.6997 71.817 82.7348 71.8561C81.7908 71.8132 80.8824 72.221 80.2874 72.9549V68.4146H78.8148V80.636H80.163L80.2356 79.5994C80.8372 80.3713 81.778 80.8009 82.7556 80.75C83.7178 80.7628 84.6235 80.2966 85.1719 79.5061ZM84 73.9085C84.4358 74.6018 84.646 75.413 84.6015 76.2305H84.6119C84.6643 77.0927 84.4508 77.9502 84 78.6872C83.6232 79.2311 82.9913 79.5411 82.3304 79.5061C81.4294 79.5194 80.6099 78.9869 80.2563 78.1585V74.4372C80.5957 73.597 81.4244 73.0586 82.3304 73.0896C82.9909 73.0567 83.6219 73.3662 84 73.9085Z" fill="#707D87"/>
<path fill-rule="evenodd" clip-rule="evenodd" d="M90.7407 78.4384L92.7422 72.0116H94.3081L90.8548 81.8902C90.3225 83.3207 89.4721 84.036 88.3037 84.036H88.0237L87.4741 83.9323V82.7402H87.8681C88.2773 82.7645 88.6837 82.6594 89.0296 82.4396C89.3635 82.1508 89.6021 81.7677 89.7141 81.3408L90.0355 80.4701L86.9244 71.9805H88.5318L90.7407 78.4384Z" fill="#707D87"/>
<path fill-rule="evenodd" clip-rule="evenodd" d="M3.34969 18.7995C8.07046 7.41577 19.1872 -0.00419114 31.5156 0C48.3372 0.0228542 61.9666 13.6509 61.9837 30.4652C61.9837 42.7882 54.5567 53.8976 43.1664 58.6124C31.7761 63.3273 18.6659 60.7189 9.94996 52.0038C1.23398 43.2886 -1.37107 30.1833 3.34969 18.7995ZM8.22371 30.4652C8.22371 43.3234 18.6518 53.747 31.5156 53.747C44.3793 53.747 54.8074 43.3234 54.8074 30.4652C54.8074 17.6071 44.3793 7.18354 31.5156 7.18354C18.6518 7.18354 8.22371 17.6071 8.22371 30.4652Z" fill="#DB0026"/>
<path fill-rule="evenodd" clip-rule="evenodd" d="M34.4296 15.7975H26.517L22.597 38.9238C22.2445 40.9969 22.1926 43.0701 24.1111 44.7286C26.0296 46.3872 29.2963 46.6671 30.6859 46.6671C33.5188 46.6751 36.3154 46.0295 38.8578 44.7805L38.1526 43.3085C37.1395 43.5949 36.0941 43.7517 35.0415 43.775C33.4078 43.8992 31.842 43.0986 30.9867 41.7018C30.52 40.9244 30.3333 39.95 30.6652 37.9701L32.4904 27.2207H38.8993L39.7393 22.2451H33.3407L34.4296 15.7975Z" fill="#DB0026"/>
</svg>
