<?xml version="1.0" encoding="utf-8"?>
<!-- Generator: Adobe Illustrator 25.2.3, SVG Export Plug-In . SVG Version: 6.00 Build 0)  -->
<svg version="1.1" id="Layer_1" xmlns="http://www.w3.org/2000/svg" xmlns:xlink="http://www.w3.org/1999/xlink" x="0px" y="0px"
	 width="192px" height="80px" viewBox="0 0 192 80" style="enable-background:new 0 0 192 80;" xml:space="preserve">
<style type="text/css">
	.st0{fill:#FFFFFF;}
	.st1{opacity:0.1;}
	.st2{fill-rule:evenodd;clip-rule:evenodd;fill:#80C600;}
	.st3{fill-rule:evenodd;clip-rule:evenodd;fill:#363832;}
	.st4{fill:#EBEBEA;}
	.st5{fill:#666A68;}
</style>
<g>
	<g>
		<path class="st0" d="M3.2,0h185.6c1.767,0,3.2,1.432,3.2,3.2v73.6c0,1.767-1.432,3.2-3.2,3.2H3.2C1.432,80,0,78.568,0,76.8V3.2
			C0,1.432,1.432,0,3.2,0z"/>
	</g>
	<g class="st1">
		<path d="M188.8,80H3.2C1.435,80,0,78.564,0,76.8V3.2C0,1.435,1.435,0,3.2,0h185.6c1.764,0,3.2,1.435,3.2,3.2v73.6
			C192,78.564,190.564,80,188.8,80z M3.2,1.6c-0.882,0-1.6,0.718-1.6,1.6v73.6c0,0.883,0.718,1.6,1.6,1.6h185.6
			c0.883,0,1.6-0.717,1.6-1.6V3.2c0-0.882-0.717-1.6-1.6-1.6L3.2,1.6L3.2,1.6z"/>
	</g>
	<g>
		<path class="st2" d="M172.739,22.333v1.02h-0.598v-2.533c0.237-0.046,0.568-0.077,0.994-0.077c0.488,0,0.709,0.077,0.898,0.185
			c0.143,0.108,0.253,0.309,0.253,0.556c0,0.278-0.221,0.494-0.536,0.587v0.031c0.251,0.093,0.393,0.278,0.472,0.618
			c0.079,0.386,0.126,0.54,0.189,0.633h-0.645c-0.08-0.093-0.126-0.324-0.206-0.618c-0.047-0.278-0.205-0.402-0.535-0.402
			L172.739,22.333L172.739,22.333z M172.755,21.189v0.726h0.283c0.332,0,0.6-0.108,0.6-0.371c0-0.231-0.175-0.386-0.552-0.386
			C172.93,21.158,172.819,21.174,172.755,21.189z M173.148,19.49c1.498,0,2.648,1.128,2.648,2.533c0,1.437-1.15,2.564-2.648,2.564
			c-1.48,0-2.663-1.128-2.663-2.564C170.487,20.618,171.669,19.49,173.148,19.49z M173.148,20c-1.15,0-2,0.911-2,2.024
			c0,1.128,0.849,2.024,2.016,2.024c1.134,0,1.97-0.896,1.97-2.008C175.135,20.911,174.299,20,173.148,20z"/>
	</g>
	<g>
		<path class="st2" d="M166.862,27.162c0-0.939-0.407-2.512-2.192-2.512c-1.632,0-2.294,1.472-2.397,2.512H166.862z M162.299,29.801
			c0.126,1.598,1.709,2.359,3.518,2.359c1.325,0,2.397-0.178,3.441-0.508l0.51,2.613c-1.275,0.507-2.831,0.761-4.514,0.761
			c-4.232,0-6.654-2.436-6.654-6.316c0-3.146,1.963-6.621,6.298-6.621c4.029,0,5.559,3.12,5.559,6.19
			c0,0.66-0.075,1.243-0.126,1.523H162.299z"/>
	</g>
	<g>
		<path class="st2" d="M155.236,18.816v3.551h2.779v2.842h-2.779v4.49c0,1.497,0.357,2.182,1.53,2.182
			c0.484,0,0.867-0.051,1.147-0.102l0.025,2.918c-0.51,0.203-1.427,0.33-2.524,0.33c-1.25,0-2.294-0.432-2.907-1.066
			c-0.714-0.736-1.071-1.928-1.071-3.678v-5.073h-1.657v-2.842h1.657v-2.689L155.236,18.816z"/>
	</g>
	<g>
		<path class="st2" d="M144.272,34.772h3.876V22.367h-3.876V34.772z M148.275,18.918c0,1.066-0.815,1.928-2.091,1.928
			c-1.224,0-2.04-0.862-2.015-1.928c-0.025-1.117,0.79-1.954,2.04-1.954C147.46,16.964,148.25,17.801,148.275,18.918z"/>
	</g>
	<g>
		<path class="st2" d="M131.396,30.79c1.045,0.533,2.652,1.066,4.308,1.066c1.785,0,2.729-0.736,2.729-1.852
			c0-1.066-0.815-1.675-2.882-2.411c-2.856-0.989-4.717-2.563-4.717-5.048c0-2.918,2.447-5.15,6.502-5.15
			c1.939,0,3.365,0.406,4.386,0.863l-0.867,3.12c-0.688-0.33-1.912-0.812-3.595-0.812c-1.683,0-2.499,0.761-2.499,1.649
			c0,1.091,0.969,1.573,3.187,2.411c3.034,1.116,4.462,2.689,4.462,5.098c0,2.867-2.218,5.302-6.935,5.302
			c-1.963,0-3.901-0.508-4.869-1.04L131.396,30.79z"/>
	</g>
	<g>
		<path class="st3" d="M124.307,27.619c0-0.203-0.026-0.482-0.051-0.685c-0.23-1.041-1.071-1.903-2.269-1.903
			c-1.759,0-2.678,1.573-2.678,3.526c0,2.106,1.046,3.425,2.652,3.425c1.122,0,2.014-0.761,2.243-1.852
			c0.077-0.279,0.102-0.558,0.102-0.888L124.307,27.619L124.307,27.619z M128.182,16.761v14.308c0,1.395,0.051,2.867,0.102,3.703
			h-3.442l-0.179-1.827h-0.051c-0.79,1.396-2.294,2.106-3.901,2.106c-2.958,0-5.329-2.512-5.329-6.368
			c-0.025-4.185,2.601-6.596,5.584-6.596c1.53,0,2.728,0.533,3.289,1.396h0.051V16.76L128.182,16.761L128.182,16.761z"/>
	</g>
	<g>
		<path class="st3" d="M106.426,29.737c0.127,1.598,1.708,2.359,3.519,2.359c1.326,0,2.397-0.177,3.442-0.508l0.509,2.613
			c-1.275,0.507-2.83,0.761-4.513,0.761c-4.232,0-6.654-2.436-6.654-6.316c0-3.146,1.964-6.621,6.298-6.621
			c4.028,0,5.559,3.12,5.559,6.19c0,0.66-0.077,1.243-0.127,1.523L106.426,29.737L106.426,29.737z M110.99,27.099
			c0-0.939-0.408-2.512-2.193-2.512c-1.632,0-2.295,1.472-2.397,2.512H110.99z"/>
	</g>
	<g>
		<path class="st3" d="M99.268,18.816v3.551h2.78v2.842h-2.78v4.49c0,1.497,0.357,2.182,1.53,2.182c0.484,0,0.867-0.051,1.147-0.102
			l0.026,2.918c-0.51,0.203-1.427,0.33-2.524,0.33c-1.25,0-2.294-0.432-2.907-1.066c-0.713-0.736-1.071-1.928-1.071-3.678v-5.073
			h-1.657v-2.842h1.657v-2.689L99.268,18.816z"/>
	</g>
	<g>
		<path class="st3" d="M84.199,31.399c0.714,0.431,2.193,0.939,3.34,0.939c1.174,0,1.658-0.406,1.658-1.04s-0.383-0.939-1.836-1.421
			c-2.575-0.863-3.57-2.258-3.544-3.729c0-2.308,1.989-4.058,5.074-4.058c1.453,0,2.754,0.33,3.519,0.711l-0.688,2.664
			c-0.56-0.305-1.632-0.711-2.703-0.711c-0.943,0-1.479,0.381-1.479,1.015c0,0.584,0.484,0.888,2.015,1.421
			c2.371,0.812,3.365,2.005,3.391,3.83c0,2.309-1.836,4.008-5.406,4.008c-1.632,0-3.085-0.355-4.028-0.863L84.199,31.399z"/>
	</g>
	<g>
		<path class="st3" d="M82.056,30.79c0,1.624,0.051,2.943,0.102,3.983h-3.365l-0.179-1.75h-0.076
			c-0.484,0.761-1.658,2.03-3.901,2.03c-2.524,0-4.385-1.573-4.385-5.403v-7.281h3.901v6.672c0,1.801,0.586,2.892,1.938,2.892
			c1.071,0,1.682-0.736,1.938-1.344c0.102-0.228,0.127-0.533,0.127-0.837V22.37h3.901L82.056,30.79L82.056,30.79z"/>
	</g>
	<g>
		<path class="st3" d="M60.945,26.451c0-1.827-0.051-3.019-0.102-4.084h3.34l0.127,2.283h0.102c0.637-1.801,2.167-2.563,3.365-2.563
			c0.357,0,0.535,0,0.816,0.051v3.627c-0.281-0.051-0.612-0.102-1.045-0.102c-1.427,0-2.397,0.761-2.652,1.954
			c-0.051,0.253-0.077,0.558-0.077,0.863v6.291h-3.876L60.945,26.451L60.945,26.451z"/>
	</g>
	<g>
		<path class="st3" d="M52.505,20.921H47.89v-3.247h13.208v3.247h-4.692v13.851h-3.901C52.505,34.772,52.505,20.921,52.505,20.921z"
			/>
	</g>
	<g>
		<path class="st2" d="M35.632,39.208H16V19.766c0-3.847,3.15-6.967,7.034-6.967h19.632v19.441
			C42.667,36.089,39.517,39.208,35.632,39.208z M37.226,18.327c-0.216-0.217-0.57-0.217-0.788,0l-9.841,9.865
			c-0.216,0.217-0.57,0.217-0.787,0l-3.583-3.592c-0.216-0.217-0.57-0.217-0.788,0l-2.361,2.368c-0.216,0.217-0.216,0.572,0,0.789
			l6.732,6.749c0.216,0.217,0.57,0.217,0.787,0l12.99-13.022c0.216-0.217,0.216-0.572,0-0.789L37.226,18.327z"/>
	</g>
	<g>
		<rect x="16" y="48.075" class="st4" width="160" height="1.525"/>
	</g>
	<g>
		<path class="st5" d="M39.212,57.949h1.841l-3.8,10.851h-1.87l-3.785-10.851h1.826l2.264,6.746
			c0.119,0.322,0.245,0.738,0.378,1.247c0.134,0.504,0.221,0.881,0.26,1.128c0.064-0.376,0.163-0.812,0.297-1.306
			s0.242-0.861,0.327-1.098L39.212,57.949z M51.824,68.8h-6.137V57.949h6.137v1.499H47.46v2.954h4.089v1.484H47.46v3.407h4.364V68.8
			z M59.15,62.996h1.232c0.826,0,1.425-0.154,1.796-0.46c0.371-0.307,0.556-0.762,0.556-1.366c0-0.613-0.2-1.054-0.601-1.321
			c-0.401-0.267-1.005-0.401-1.811-0.401h-1.173L59.15,62.996L59.15,62.996z M59.15,64.465v4.334h-1.774v-10.85h3.065
			c1.4,0,2.436,0.262,3.11,0.787c0.673,0.525,1.009,1.316,1.009,2.375c0,1.351-0.702,2.314-2.107,2.887l3.065,4.802h-2.019
			l-2.598-4.334L59.15,64.465L59.15,64.465z M70.299,68.8V57.949h1.774V68.8C72.073,68.8,70.299,68.8,70.299,68.8z M79.904,68.8
			h-1.759V57.949h6.123v1.499h-4.364v3.392h4.089v1.507h-4.089C79.904,64.347,79.904,68.8,79.904,68.8z M89.435,68.8V57.949h1.774
			V68.8C91.209,68.8,89.435,68.8,89.435,68.8z M103.419,68.8H97.28V57.949h6.138v1.499h-4.364v2.954h4.089v1.484h-4.089v3.407h4.364
			V68.8z M117.797,63.271c0,1.792-0.497,3.161-1.492,4.112c-0.995,0.946-2.427,1.417-4.297,1.417h-3.035V57.949h3.354
			c1.726,0,3.07,0.465,4.03,1.395C117.316,60.275,117.797,61.584,117.797,63.271z M115.926,63.33c0-2.598-1.214-3.896-3.644-3.896
			h-1.536v7.875h1.262C114.619,67.308,115.926,65.982,115.926,63.33z M136.739,65.853c0,0.965-0.349,1.722-1.047,2.271
			c-0.697,0.549-1.66,0.824-2.887,0.824s-2.232-0.19-3.014-0.571V66.7c0.494,0.232,1.019,0.415,1.574,0.549
			c0.56,0.134,1.079,0.2,1.559,0.2c0.702,0,1.219-0.134,1.551-0.401c0.337-0.267,0.505-0.626,0.505-1.076
			c0-0.406-0.154-0.749-0.46-1.032c-0.307-0.282-0.94-0.616-1.9-1.002c-0.99-0.401-1.687-0.859-2.093-1.373
			c-0.406-0.515-0.609-1.133-0.609-1.856c0-0.905,0.322-1.618,0.965-2.137s1.507-0.779,2.59-0.779c1.039,0,2.073,0.228,3.102,0.683
			l-0.564,1.447c-0.965-0.406-1.826-0.609-2.583-0.609c-0.574,0-1.01,0.126-1.306,0.378c-0.297,0.247-0.445,0.576-0.445,0.987
			c0,0.282,0.059,0.525,0.178,0.728c0.119,0.198,0.314,0.386,0.586,0.564c0.272,0.178,0.762,0.413,1.469,0.705
			c0.797,0.332,1.381,0.641,1.752,0.928s0.643,0.611,0.817,0.972C136.652,64.938,136.739,65.364,136.739,65.853z M148.297,65.853
			c0,0.965-0.349,1.722-1.047,2.271c-0.697,0.549-1.66,0.824-2.887,0.824c-1.227,0-2.232-0.19-3.014-0.571V66.7
			c0.494,0.232,1.019,0.415,1.574,0.549c0.559,0.134,1.078,0.2,1.559,0.2c0.702,0,1.219-0.134,1.551-0.401
			c0.337-0.267,0.504-0.626,0.504-1.076c0-0.406-0.154-0.749-0.46-1.032c-0.307-0.282-0.941-0.616-1.9-1.002
			c-0.99-0.401-1.687-0.859-2.093-1.373s-0.609-1.133-0.609-1.856c0-0.905,0.322-1.618,0.965-2.137
			c0.643-0.52,1.507-0.779,2.59-0.779c1.039,0,2.073,0.228,3.102,0.683l-0.564,1.447c-0.965-0.406-1.826-0.609-2.583-0.609
			c-0.574,0-1.009,0.126-1.306,0.378c-0.297,0.247-0.445,0.576-0.445,0.987c0,0.282,0.059,0.525,0.178,0.728
			c0.119,0.198,0.314,0.386,0.586,0.564c0.272,0.178,0.762,0.413,1.469,0.705c0.797,0.332,1.381,0.641,1.752,0.928
			s0.643,0.611,0.816,0.972C148.21,64.938,148.297,65.364,148.297,65.853z M153.596,68.8V57.949h1.774v9.329h4.594V68.8
			C159.964,68.8,153.596,68.8,153.596,68.8z"/>
	</g>
</g>
</svg>
