<?xml version="1.0" encoding="utf-8"?>
<!-- Generator: Adobe Illustrator 22.1.0, SVG Export Plug-In . SVG Version: 6.00 Build 0)  -->
<svg version="1.1" id="Layer_1" xmlns="http://www.w3.org/2000/svg" xmlns:xlink="http://www.w3.org/1999/xlink" x="0px" y="0px"
	 width="16px" height="16px" viewBox="0 0 16 16" style="enable-background:new 0 0 16 16;" xml:space="preserve">
<style type="text/css">
	.st0{fill:#CECECE;}
</style>
<path class="st0" d="M9.3,13v-2c0-0.1,0-0.2-0.1-0.2c-0.1-0.1-0.1-0.1-0.2-0.1H7c-0.1,0-0.2,0-0.2,0.1c-0.1,0.1-0.1,0.1-0.1,0.2v2
	c0,0.1,0,0.2,0.1,0.2c0.1,0.1,0.1,0.1,0.2,0.1h2c0.1,0,0.2,0,0.2-0.1C9.3,13.2,9.3,13.1,9.3,13z M12,6c0-0.6-0.2-1.2-0.6-1.7
	C11,3.8,10.6,3.4,10,3.1C9.4,2.8,8.8,2.7,8.2,2.7c-1.7,0-3,0.7-3.9,2.2C4.2,5,4.3,5.2,4.4,5.3l1.4,1c0,0,0.1,0.1,0.2,0.1
	c0.1,0,0.2,0,0.3-0.1c0.4-0.5,0.7-0.8,0.9-1c0.2-0.2,0.5-0.2,0.9-0.2c0.3,0,0.6,0.1,0.9,0.3C9.2,5.5,9.3,5.7,9.3,6
	c0,0.3-0.1,0.5-0.2,0.6C9,6.8,8.8,6.9,8.4,7.1C8,7.3,7.6,7.6,7.2,8S6.7,8.8,6.7,9.3v0.4c0,0.1,0,0.2,0.1,0.2C6.8,10,6.9,10,7,10h2
	c0.1,0,0.2,0,0.2-0.1c0.1-0.1,0.1-0.1,0.1-0.2c0-0.1,0.1-0.3,0.2-0.5c0.2-0.2,0.3-0.4,0.6-0.5c0.2-0.1,0.4-0.2,0.5-0.3
	c0.1-0.1,0.3-0.2,0.5-0.4c0.2-0.2,0.4-0.3,0.5-0.5c0.1-0.2,0.2-0.4,0.3-0.6C12,6.6,12,6.3,12,6z M16,8c0,1.4-0.4,2.8-1.1,4
	s-1.7,2.2-2.9,2.9S9.4,16,8,16s-2.8-0.4-4-1.1S1.8,13.2,1.1,12S0,9.4,0,8s0.4-2.8,1.1-4S2.8,1.8,4,1.1S6.6,0,8,0s2.8,0.4,4,1.1
	s2.2,1.7,2.9,2.9C15.7,5.2,16,6.5,16,8z"/>
</svg>
